<svg xmlns="http://www.w3.org/2000/svg" width="25.51" height="20.408" viewBox="0 0 25.51 20.408">
  <path id="ic_folder_shared_24px" d="M24.959,6.551h-10.2L12.2,4H4.551A2.548,2.548,0,0,0,2.013,6.551L2,21.857a2.558,2.558,0,0,0,2.551,2.551H24.959a2.558,2.558,0,0,0,2.551-2.551V9.1A2.558,2.558,0,0,0,24.959,6.551Zm-6.377,3.826a2.551,2.551,0,1,1-2.551,2.551A2.558,2.558,0,0,1,18.581,10.377Zm5.1,10.2h-10.2V19.306c0-1.7,3.406-2.551,5.1-2.551s5.1.855,5.1,2.551Z" transform="translate(-2 -4)" fill="#000"/>
</svg>
