<svg xmlns="http://www.w3.org/2000/svg" width="22" height="28" viewBox="0 0 22.038 27.98">
  <g id="Group_7462" data-name="Group 7462" transform="translate(-311.375 -103.297)">
    <g id="Group_7461" data-name="Group 7461" transform="translate(311.375 103.297)">
      <path id="Path_8524" data-name="Path 8524" d="M330.182,123.7a6.557,6.557,0,1,0,6.557,6.557A6.557,6.557,0,0,0,330.182,123.7Zm-.321,5.4,1.481.762a2.235,2.235,0,0,1,1.195,2.379,2.176,2.176,0,0,1-1.281,1.672v.2a.911.911,0,0,1-1.821,0v-.138a2.693,2.693,0,0,1-1.623-1.483.911.911,0,0,1,1.671-.726.879.879,0,0,0,.88.523.386.386,0,0,0,.377-.335.436.436,0,0,0-.229-.471l-1.481-.762a2.245,2.245,0,0,1-1.183-2.427,2.183,2.183,0,0,1,1.59-1.744v-.136a.911.911,0,0,1,1.821,0v.337a2.668,2.668,0,0,1,1.3,1.338.911.911,0,1,1-1.671.727.877.877,0,0,0-.88-.524.39.39,0,0,0-.369.336A.42.42,0,0,0,329.86,129.1Z" transform="translate(-314.701 -108.837)" fill="#c1c1c1"/>
      <path id="Path_8525" data-name="Path 8525" d="M328.511,103.783l-1.614.88a.731.731,0,0,1-.7,0l-2.342-1.277a.728.728,0,0,0-.7,0l-2.337,1.276a.728.728,0,0,1-.7,0l-2.336-1.276a.724.724,0,0,0-.7,0l-2.336,1.276a.728.728,0,0,1-.7,0l-1.6-.876a.729.729,0,0,0-1.078.639V127.77a.728.728,0,0,0,1.078.64l1.614-.879a.727.727,0,0,1,.7,0l2.342,1.276a.728.728,0,0,0,.7,0l1.373-.75a8.36,8.36,0,0,1,10.412-11.248V104.423A.729.729,0,0,0,328.511,103.783Zm-12.4,17.693h-1.093a.911.911,0,0,1,0-1.821h1.093a.911.911,0,0,1,0,1.821Zm2.133-3.643h-3.226a.911.911,0,0,1,0-1.821h3.226a.911.911,0,0,1,0,1.821Zm7.523-3.643H315.018a.911.911,0,0,1,0-1.821h10.749a.911.911,0,0,1,0,1.821Zm0-3.643H315.018a.911.911,0,0,1,0-1.821h10.749a.911.911,0,0,1,0,1.821Z" transform="translate(-311.375 -103.297)" fill="#c1c1c1"/>
    </g>
  </g>
</svg>
