<svg xmlns="http://www.w3.org/2000/svg" width="57.646" height="56" viewBox="0 0 57.646 56">
  <path id="Group_7538" data-name="Group 7538" d="M-558.873,150.153v14.823a1.648,1.648,0,0,0,1.647,1.647h18.116V146.859h-16.47A3.3,3.3,0,0,0-558.873,150.153Zm3.294,22.235v13.176a3.3,3.3,0,0,0,3.294,3.294h13.175V170.741h-14.823A1.648,1.648,0,0,0-555.579,172.388Zm49.411-1.647h-14.823v18.117h13.181a3.294,3.294,0,0,0,3.294-3.294h0V172.388a1.646,1.646,0,0,0-1.645-1.647Zm1.647-23.882h-16.47v19.765h18.117a1.647,1.647,0,0,0,1.647-1.647h0V150.153a3.293,3.293,0,0,0-3.292-3.294Zm-30.47,42h9.882v-42h-9.882Zm2.882-49.3a6.7,6.7,0,0,0-6.7-6.7h-9.434a.824.824,0,0,0-.817.829.823.823,0,0,0,.236.571l2.953,2.953a.824.824,0,0,1,0,1.164l-2.953,2.953a.824.824,0,0,0,0,1.166.822.822,0,0,0,.581.241h16.13Zm17.877-1.173a.824.824,0,0,1,0-1.164l2.953-2.953a.821.821,0,0,0-.01-1.163.82.82,0,0,0-.573-.237H-521.3a6.7,6.7,0,0,0-6.7,6.7h0v3.187h16.13a.823.823,0,0,0,.825-.823.826.826,0,0,0-.242-.584Z" transform="translate(558.873 -132.859)" fill="#cdb061"/>
</svg>
