<svg xmlns="http://www.w3.org/2000/svg" width="34.137" height="31.737" viewBox="0 0 34.137 31.737">
  <g id="Group_6468" data-name="Group 6468" transform="translate(0 0)">
    <path id="Path_92" data-name="Path 92" d="M1600.787,456.776h-2.138V452.5h-4.28v-2.138h4.28v-4.279h2.138v4.279h4.28V452.5h-4.28Z" transform="translate(-1570.929 -444.597)" fill="#ffd297"/>
    <path id="Path_8061" data-name="Path 8061" d="M1355.528,440.262v1.954h-4.36v-4.365h-4.362v-4.362h4.367v-.207a15.866,15.866,0,1,0,4.355,6.98Zm-9.076,5.98a6.188,6.188,0,0,1-6.474,6.128,6.727,6.727,0,0,1-6.909-6.564v-.45a6.909,6.909,0,0,1,6.909-6.909h1.832v3.362l0,.247h-1.99a3.127,3.127,0,0,0-3.127,3.127v.239a3.127,3.127,0,1,0,6.254,0v-2.209l3.5-.016Zm-4.658-2.936v2.188a2.033,2.033,0,0,1-2.033,2.033h0a2.033,2.033,0,0,1-2.033-2.033v-.155a2.033,2.033,0,0,1,2.033-2.033Zm4.658-1.258-3.5.008h0v-.211l.023-4.977c0-3.11,3.463-2.594,3.463-2.594v4.174h.016Z" transform="translate(-1324.479 -429.016)" fill="#ffd297"/>
  </g>
</svg>
