<svg xmlns="http://www.w3.org/2000/svg" xmlns:xlink="http://www.w3.org/1999/xlink" width="75.12" height="68.763" viewBox="0 0 75.12 68.763">
  <defs>
    <linearGradient id="linear-gradient" y1="0.5" x2="1" y2="0.5" gradientUnits="objectBoundingBox">
      <stop offset="0" stop-color="#875017"/>
      <stop offset="0.047" stop-color="#915e22"/>
      <stop offset="0.137" stop-color="#ad843f"/>
      <stop offset="0.26" stop-color="#d9c06d"/>
      <stop offset="0.35" stop-color="#fdf193"/>
      <stop offset="0.403" stop-color="#ebd774"/>
      <stop offset="0.486" stop-color="#d5b54c"/>
      <stop offset="0.561" stop-color="#c49c2f"/>
      <stop offset="0.626" stop-color="#ba8d1d"/>
      <stop offset="0.673" stop-color="#b78817"/>
      <stop offset="0.972" stop-color="#9d6917"/>
    </linearGradient>
  </defs>
  <g id="Group_7628" data-name="Group 7628" transform="translate(-1542.63 -460.237)">
    <g id="Group_7535" data-name="Group 7535" transform="translate(2136.118 203.645)">
      <path id="Path_8529" data-name="Path 8529" d="M-488.324,275.733q.319.258.63.525h11.636a6.622,6.622,0,0,0,1.287-3.542c0-2.959-3.256-1.356-7.273-1.356-3.157,0-5.844-1.084-6.85-.037a2.78,2.78,0,0,1,.457,1.531,2.783,2.783,0,0,1-.513,1.613A8.246,8.246,0,0,0-488.324,275.733Z" transform="translate(-53.625 -7.323)" fill="#e8a92b"/>
      <path id="Path_8530" data-name="Path 8530" d="M-484.812,283.321q.855.785,1.651,1.629h10.287a.817.817,0,0,0,.814-.814.817.817,0,0,0-.814-.814Z" transform="translate(-55.748 -13.711)" fill="#e8a92b"/>
      <path id="Path_8531" data-name="Path 8531" d="M-489.731,279.082l-.067.062.1.075C-489.707,279.173-489.719,279.127-489.731,279.082Z" transform="translate(-53.191 -11.537)" fill="#e8a92b"/>
      <path id="Path_8532" data-name="Path 8532" d="M-528.5,278.919h-15.231c-8.3,4.648-14.865,15.775-14.865,23.464a18.38,18.38,0,0,0,4.126,11.515,10.282,10.282,0,0,1,6.072-2.012l15.322-.015a5.077,5.077,0,0,1,5.073,5.063,5.061,5.061,0,0,1-1.826,3.9l.544.511,8.839-6.925a5.023,5.023,0,0,1,3.117-1.08,18.3,18.3,0,0,0,3.694-10.955C-513.64,294.694-520.206,283.567-528.5,278.919Zm.488,24.547c0,4.7-3.807,8.052-8.5,8.052h-.029a8.839,8.839,0,0,1-9.048-8.624v-.6a9.078,9.078,0,0,1,9.086-9.069h2.407v4.742h-2.613a4.1,4.1,0,0,0-4.1,4.1v.314a4.108,4.108,0,0,0,4.1,4.109h0a4.1,4.1,0,0,0,4.1-4.109l0-2.9,4.6-.02Zm-6.117-3.856v2.873a2.671,2.671,0,0,1-2.671,2.671,2.671,2.671,0,0,1-2.671-2.67v-.2a2.671,2.671,0,0,1,2.671-2.671Zm6.122-1.655-4.6.011v-.277l.031-6.539c0-4.086,4.549-3.408,4.549-3.408v5.483h.022Z" transform="translate(-17.896 -11.453)" fill="#e8a92b"/>
      <path id="Path_8533" data-name="Path 8533" d="M-585.537,283.832a8.425,8.425,0,0,0,3.229-3.736.8.8,0,0,0,.306.061h2.818a2.8,2.8,0,0,1,2.05-1,2.8,2.8,0,0,1-.2-.628h-4.631c0-2.121-.624-3.384-1.4-4.012a2.373,2.373,0,0,0-1.114-.511,2.183,2.183,0,0,0-1.474.285,2.154,2.154,0,0,0-.975,2.407,2.77,2.77,0,0,0,.2.542,2.838,2.838,0,0,0-.613.176,2.228,2.228,0,0,0-1.408,2.187,2.119,2.119,0,0,0,1.1,1.745,7.466,7.466,0,0,1-2.944-.053.813.813,0,0,0-.979.6.813.813,0,0,0,.6.979,9.248,9.248,0,0,0,3.879.021,9.392,9.392,0,0,1-4.979,1.445c-.159,0-.329-.018-.51-.038a.816.816,0,0,0-.9.721.815.815,0,0,0,.721.9q.3.034.638.044A11.37,11.37,0,0,0-585.537,283.832Zm.421-8.145a.609.609,0,0,1,.638.032.858.858,0,0,1,.094.067,2.843,2.843,0,0,1,.769,2.03,8.043,8.043,0,0,0-.887-.352,2.226,2.226,0,0,1-.837-1.136A.566.566,0,0,1-585.117,275.687Zm-2.008,3.826a.633.633,0,0,1,.426-.6,1.846,1.846,0,0,1,.98-.091,3.827,3.827,0,0,1,.479.1,8.022,8.022,0,0,0,.719.476,4.881,4.881,0,0,1-1.2.557,1.823,1.823,0,0,1-.945.05A.564.564,0,0,1-587.125,279.513Z" transform="translate(0 -8.918)" fill="#e8a92b"/>
      <path id="Path_8534" data-name="Path 8534" d="M-520.3,351.667l-10.44,8.181a2.951,2.951,0,0,1-1.817.628l-7.481.008a1.844,1.844,0,0,1-1.845-1.842,1.843,1.843,0,0,1,1.842-1.846l6.269-.006a3.688,3.688,0,0,0,3.684-3.691,3.688,3.688,0,0,0-3.691-3.684l-6.942.007-4.74,0-2.67,0h-.97a8.86,8.86,0,0,0-5.462,1.891l-5.121,4.021a.737.737,0,0,0-.123,1.037l9.948,12.581a.737.737,0,0,0,.572.281l12.033.1,3.327.028a8.849,8.849,0,0,0,5.563-1.908l12.634-9.989a3.694,3.694,0,0,0,.607-5.189A3.694,3.694,0,0,0-520.3,351.667Z" transform="translate(-17.195 -47.615)" fill="#c8c8c8"/>
      <path id="Path_8535" data-name="Path 8535" d="M-569.408,368.111a.738.738,0,0,0-1.036-.121l-2.314,1.83a.737.737,0,0,0-.121,1.036l9.711,12.282a.737.737,0,0,0,1.036.122l2.314-1.83a.737.737,0,0,0,.121-1.036Z" transform="translate(-9.49 -58.063)" fill="#c8c8c8"/>
      <path id="Path_8536" data-name="Path 8536" d="M-471.667,288.049h-8.479q.841.938,1.605,1.921c3.562,4.572,6.885,11.183,6.885,17.1a19.72,19.72,0,0,1-1.759,8.134,21.13,21.13,0,0,1-1.788,3.184,5.052,5.052,0,0,1,2.108,1.564,5.132,5.132,0,0,1,.553.866c7.124-1.9,12.315-7.764,12.315-14.707C-460.227,300.191-465.281,291.626-471.667,288.049Z" transform="translate(-58.142 -16.137)" fill="#e8a92b"/>
      <path id="Path_8537" data-name="Path 8537" d="M-565.516,276.258a2.812,2.812,0,0,1,.071-.486,2.8,2.8,0,0,1,3.367-2.071q.153.037.31.065a4.753,4.753,0,0,1-.051-.475,4.518,4.518,0,0,1,.342-2.007c-.52.045-1.06.076-1.615.076-4.017,0-7.273-1.755-7.273,1.356a6.658,6.658,0,0,0,1.333,3.542Z" transform="translate(-11.861 -7.323)" fill="#e8a92b"/>
      <path id="Path_8538" data-name="Path 8538" d="M-572.457,319.653a21.174,21.174,0,0,1-2.721-4.452,19.714,19.714,0,0,1-1.759-8.134c0-5.252,2.62-11.053,5.7-15.487a13.923,13.923,0,0,1-3.847.438c-.323-.01-.645-.032-.966-.067a2.8,2.8,0,0,1-2.473-3.088,2.776,2.776,0,0,1,.217-.814h-1.212c-6.387,3.577-11.441,12.141-11.441,18.059,0,8.162,7.175,14.834,16.232,15.325Z" transform="translate(-1.298 -16.137)" fill="#e8a92b"/>
      <path id="Path_8539" data-name="Path 8539" d="M-558.133,270.142a1.057,1.057,0,0,0-1.273.783,1.057,1.057,0,0,0,.784,1.273,12.031,12.031,0,0,0,5.04.028,12.212,12.212,0,0,1-6.469,1.878c-.207-.007-.429-.023-.664-.05a1.059,1.059,0,0,0-1.169.937,1.058,1.058,0,0,0,.937,1.168c.26.029.537.049.829.058a14.77,14.77,0,0,0,8.558-2.78,10.94,10.94,0,0,0,4.2-4.855,1.05,1.05,0,0,0,.4.079h18.316a1.061,1.061,0,0,0,1.058-1.058,1.061,1.061,0,0,0-1.058-1.058h-18.263c0-2.757-.813-4.4-1.823-5.213a3.071,3.071,0,0,0-1.447-.663,2.833,2.833,0,0,0-1.915.37,2.8,2.8,0,0,0-1.267,3.128,3.6,3.6,0,0,0,.255.7,3.7,3.7,0,0,0-.8.229,2.9,2.9,0,0,0-1.83,2.842,2.754,2.754,0,0,0,1.429,2.268A9.7,9.7,0,0,1-558.133,270.142Zm7.12-7.286a.792.792,0,0,1,.829.041,1.181,1.181,0,0,1,.122.086,3.694,3.694,0,0,1,1,2.638,10.478,10.478,0,0,0-1.154-.458,2.876,2.876,0,0,1-1.085-1.475A.734.734,0,0,1-551.013,262.856Zm-2.056,4.194a2.393,2.393,0,0,1,1.273-.118,4.9,4.9,0,0,1,.623.135,10.4,10.4,0,0,0,.935.62,6.4,6.4,0,0,1-1.558.723,2.367,2.367,0,0,1-1.228.064.732.732,0,0,1-.6-.646A.821.821,0,0,1-553.069,267.049Z" transform="translate(-16.209 -2.073)" fill="#e8a92b"/>
      <path id="Path_8540" data-name="Path 8540" d="M-514.618,263.6a8.6,8.6,0,0,0,1.672-4.6c0-3.845-4.231-1.763-9.45-1.763s-9.451-2.28-9.451,1.763a8.651,8.651,0,0,0,1.733,4.6Z" transform="translate(-31.62 0)" fill="#e8a92b"/>
    </g>
    <g id="Group_7536" data-name="Group 7536" transform="translate(2291.117 415.302)">
      <path id="Path_8544" data-name="Path 8544" d="M-697.574,55.486a2.781,2.781,0,0,0,.513-1.612,2.777,2.777,0,0,0-.458-1.531c1.006-1.047,3.693.037,6.851.037,4.016,0,7.273-1.6,7.273,1.356a6.623,6.623,0,0,1-1.287,3.542h-11.635c-.208-.178-.418-.354-.63-.525A8.191,8.191,0,0,1-697.574,55.486Zm2.015,2.467q.855.785,1.651,1.628h10.288a.817.817,0,0,0,.814-.814.816.816,0,0,0-.814-.814Zm-2.362-2.065-.067.062.1.075C-697.9,55.979-697.908,55.933-697.921,55.888Zm11.385,23.386a18.3,18.3,0,0,1-3.694,10.955,5.027,5.027,0,0,0-3.117,1.08l-8.838,6.925-.544-.511a5.06,5.06,0,0,0,1.826-3.9,5.076,5.076,0,0,0-5.073-5.063l-15.322.015a10.283,10.283,0,0,0-6.071,2.011A18.378,18.378,0,0,1-731.5,79.273c0-7.69,6.567-18.817,14.866-23.465H-701.4C-693.1,60.456-686.535,71.584-686.535,79.273Zm-14.376-2.917-4.6.02,0,2.9a4.1,4.1,0,0,1-4.1,4.109h0a4.109,4.109,0,0,1-4.1-4.109v-.314a4.1,4.1,0,0,1,4.1-4.1H-707V70.12h-2.407a9.078,9.078,0,0,0-9.086,9.069v.6a8.839,8.839,0,0,0,9.048,8.624h.03c4.7,0,8.5-3.354,8.5-8.052Zm-8.788.144a2.671,2.671,0,0,0-2.671,2.671v.2a2.671,2.671,0,0,0,2.671,2.669,2.671,2.671,0,0,0,2.671-2.671V76.5Zm8.793-6.386h-.022V64.631s-4.549-.677-4.549,3.409l-.03,6.539v.277l4.6-.01ZM-747.123,65.4c-.225-.007-.438-.022-.639-.044a.815.815,0,0,1-.721-.9.814.814,0,0,1,.9-.72c.181.02.352.033.511.038a9.4,9.4,0,0,0,4.979-1.446,9.25,9.25,0,0,1-3.88-.022.812.812,0,0,1-.6-.978.813.813,0,0,1,.979-.6,7.467,7.467,0,0,0,2.944.054,2.121,2.121,0,0,1-1.1-1.746,2.23,2.23,0,0,1,1.408-2.187,2.9,2.9,0,0,1,.613-.176,2.752,2.752,0,0,1-.2-.542,2.155,2.155,0,0,1,.976-2.408,2.181,2.181,0,0,1,1.473-.284,2.365,2.365,0,0,1,1.114.51c.777.628,1.4,1.891,1.4,4.012h4.631a2.781,2.781,0,0,0,.2.628,2.8,2.8,0,0,0-2.049,1H-737a.805.805,0,0,1-.306-.061,8.426,8.426,0,0,1-3.228,3.736A11.369,11.369,0,0,1-747.123,65.4Zm6.784-9.643a2.222,2.222,0,0,0,.837,1.136,7.935,7.935,0,0,1,.886.352,2.838,2.838,0,0,0-.769-2.03.774.774,0,0,0-.094-.067.609.609,0,0,0-.638-.032A.565.565,0,0,0-740.339,55.752Zm-1.326,3.683a1.829,1.829,0,0,0,.945-.05,4.9,4.9,0,0,0,1.2-.557,8.083,8.083,0,0,1-.719-.476,3.659,3.659,0,0,0-.479-.1,1.844,1.844,0,0,0-.979.091.632.632,0,0,0-.426.6A.565.565,0,0,0-741.664,59.436Zm56.857.82h-8.479c.561.625,1.1,1.268,1.605,1.921,3.563,4.572,6.885,11.182,6.885,17.1a19.722,19.722,0,0,1-1.759,8.134,21.03,21.03,0,0,1-1.788,3.184,5.057,5.057,0,0,1,2.108,1.564,5.051,5.051,0,0,1,.553.866c7.124-1.9,12.316-7.765,12.316-14.707C-673.367,72.4-678.421,63.833-684.808,60.255Zm-47.568-2.977a2.842,2.842,0,0,1,.071-.486,2.8,2.8,0,0,1,3.367-2.071c.1.024.205.046.31.065-.025-.156-.042-.315-.052-.475a4.523,4.523,0,0,1,.342-2.007c-.52.045-1.06.075-1.615.075-4.017,0-7.273-1.754-7.273,1.356a6.66,6.66,0,0,0,1.334,3.542Zm3.622,34.581a21.211,21.211,0,0,1-2.722-4.452,19.723,19.723,0,0,1-1.759-8.134c0-5.252,2.619-11.053,5.7-15.487a13.939,13.939,0,0,1-3.847.438c-.322-.01-.645-.032-.966-.067a2.8,2.8,0,0,1-2.473-3.088,2.771,2.771,0,0,1,.218-.814h-1.212c-6.386,3.577-11.441,12.141-11.441,18.059,0,8.163,7.175,14.835,16.233,15.326Zm3.239-35.378a2.755,2.755,0,0,1-1.428-2.268,2.9,2.9,0,0,1,1.829-2.842,3.71,3.71,0,0,1,.8-.229,3.591,3.591,0,0,1-.255-.7,2.8,2.8,0,0,1,1.267-3.128,2.834,2.834,0,0,1,1.914-.37,3.076,3.076,0,0,1,1.448.664c1.01.816,1.827,2.456,1.822,5.213h18.264a1.06,1.06,0,0,1,1.057,1.058,1.061,1.061,0,0,1-1.057,1.058h-18.317a1.052,1.052,0,0,1-.4-.079,10.938,10.938,0,0,1-4.2,4.855,14.768,14.768,0,0,1-8.559,2.779c-.292-.009-.569-.028-.829-.057a1.058,1.058,0,0,1-.937-1.168,1.058,1.058,0,0,1,1.169-.937q.353.039.663.049A12.207,12.207,0,0,0-724.79,58.5a12.023,12.023,0,0,1-5.04-.028,1.057,1.057,0,0,1-.783-1.272,1.056,1.056,0,0,1,1.272-.783A9.713,9.713,0,0,0-725.516,56.481Zm3.005-6.523a2.879,2.879,0,0,0,1.085,1.475,10.489,10.489,0,0,1,1.154.458,3.694,3.694,0,0,0-1-2.638,1.138,1.138,0,0,0-.122-.086.79.79,0,0,0-.829-.041A.734.734,0,0,0-722.51,49.958Zm-2.32,4.139a.732.732,0,0,0,.6.646A2.367,2.367,0,0,0-723,54.678a6.371,6.371,0,0,0,1.557-.723,10.4,10.4,0,0,1-.935-.619A4.8,4.8,0,0,0-723,53.2a2.39,2.39,0,0,0-1.273.118A.82.82,0,0,0-724.83,54.1Zm23.592-2.158a8.605,8.605,0,0,0,1.672-4.6c0-3.845-4.231-1.763-9.45-1.763s-9.45-2.28-9.45,1.763a8.652,8.652,0,0,0,1.732,4.6Z" transform="translate(0 0)" fill="url(#linear-gradient)"/>
    </g>
  </g>
</svg>
