<svg xmlns="http://www.w3.org/2000/svg" xmlns:xlink="http://www.w3.org/1999/xlink" width="88.959" height="88.959" viewBox="0 0 88.959 88.959">
  <defs>
    <linearGradient id="linear-gradient" x1="0.5" y1="0.958" x2="0.5" y2="-0.042" gradientUnits="objectBoundingBox">
      <stop offset="0" stop-color="#c99b14"/>
      <stop offset="0.214" stop-color="#b78817"/>
      <stop offset="0.222" stop-color="#b98b1b"/>
      <stop offset="0.34" stop-color="#d6b64e"/>
      <stop offset="0.442" stop-color="#ebd673"/>
      <stop offset="0.524" stop-color="#f8e98a"/>
      <stop offset="0.576" stop-color="#fdf193"/>
      <stop offset="0.578" stop-color="#f9ea8a"/>
      <stop offset="0.589" stop-color="#ecd56a"/>
      <stop offset="0.601" stop-color="#e1c34f"/>
      <stop offset="0.615" stop-color="#d8b439"/>
      <stop offset="0.63" stop-color="#d1a828"/>
      <stop offset="0.65" stop-color="#cca01c"/>
      <stop offset="0.678" stop-color="#c99c15"/>
      <stop offset="0.754" stop-color="#c99b14"/>
      <stop offset="0.757" stop-color="#c69814"/>
      <stop offset="0.791" stop-color="#af7d15"/>
      <stop offset="0.828" stop-color="#9d6915"/>
      <stop offset="0.869" stop-color="#905b16"/>
      <stop offset="0.919" stop-color="#895216"/>
      <stop offset="1" stop-color="#875017"/>
    </linearGradient>
    <linearGradient id="linear-gradient-2" x1="0.5" y1="0.958" x2="0.5" y2="-0.042" gradientUnits="objectBoundingBox">
      <stop offset="0" stop-color="#875017"/>
      <stop offset="0.081" stop-color="#895216"/>
      <stop offset="0.131" stop-color="#905b16"/>
      <stop offset="0.172" stop-color="#9d6915"/>
      <stop offset="0.209" stop-color="#af7d15"/>
      <stop offset="0.243" stop-color="#c69814"/>
      <stop offset="0.246" stop-color="#c99b14"/>
      <stop offset="0.322" stop-color="#c99c15"/>
      <stop offset="0.35" stop-color="#cca01c"/>
      <stop offset="0.37" stop-color="#d1a828"/>
      <stop offset="0.385" stop-color="#d8b439"/>
      <stop offset="0.399" stop-color="#e1c34f"/>
      <stop offset="0.411" stop-color="#ecd56a"/>
      <stop offset="0.422" stop-color="#f9ea8a"/>
      <stop offset="0.424" stop-color="#fdf193"/>
      <stop offset="0.476" stop-color="#f8e98a"/>
      <stop offset="0.558" stop-color="#ebd673"/>
      <stop offset="0.66" stop-color="#d6b64e"/>
      <stop offset="0.778" stop-color="#b98b1b"/>
      <stop offset="0.786" stop-color="#b78817"/>
      <stop offset="1" stop-color="#c99b14"/>
    </linearGradient>
    <linearGradient id="linear-gradient-3" x1="0.5" y1="0.976" x2="0.5" y2="0.028" gradientUnits="objectBoundingBox">
      <stop offset="0" stop-color="#c99b14"/>
      <stop offset="0.037" stop-color="#cfa523"/>
      <stop offset="0.11" stop-color="#dfc04b"/>
      <stop offset="0.21" stop-color="#faec8c"/>
      <stop offset="0.22" stop-color="#fdf193"/>
      <stop offset="0.251" stop-color="#f9eb8b"/>
      <stop offset="0.299" stop-color="#f1dd76"/>
      <stop offset="0.357" stop-color="#e3c654"/>
      <stop offset="0.423" stop-color="#d0a625"/>
      <stop offset="0.444" stop-color="#c99b14"/>
      <stop offset="0.61" stop-color="#ecd66b"/>
      <stop offset="0.693" stop-color="#fdf193"/>
      <stop offset="0.906" stop-color="#b78817"/>
      <stop offset="1" stop-color="#c99b14"/>
    </linearGradient>
    <linearGradient id="linear-gradient-4" x1="-1.093" y1="-1.82" x2="-1.093" y2="-2.82" gradientUnits="objectBoundingBox">
      <stop offset="0" stop-color="#875017"/>
      <stop offset="0.107" stop-color="#9d6917"/>
      <stop offset="0.248" stop-color="#b78817"/>
      <stop offset="0.668" stop-color="#fdf193"/>
      <stop offset="0.743" stop-color="#fbee8f"/>
      <stop offset="0.801" stop-color="#f7e886"/>
      <stop offset="0.853" stop-color="#f1dd75"/>
      <stop offset="0.901" stop-color="#e7cd5e"/>
      <stop offset="0.947" stop-color="#dbb941"/>
      <stop offset="0.99" stop-color="#cca11c"/>
      <stop offset="1" stop-color="#c99b14"/>
    </linearGradient>
    <linearGradient id="linear-gradient-5" x1="0.5" y1="0.958" x2="0.5" y2="-0.042" xlink:href="#linear-gradient-4"/>
  </defs>
  <g id="Group_6847" data-name="Group 6847" transform="translate(0 0)">
    <circle id="Ellipse_2396" data-name="Ellipse 2396" cx="31.452" cy="31.452" r="31.452" transform="translate(0 44.479) rotate(-45)" fill="url(#linear-gradient)"/>
    <circle id="Ellipse_2397" data-name="Ellipse 2397" cx="30.301" cy="30.301" r="30.301" transform="translate(1.628 44.479) rotate(-45)" fill="url(#linear-gradient-2)"/>
    <g id="Group_6175" data-name="Group 6175" transform="translate(10.054 10.053)">
      <circle id="Ellipse_2398" data-name="Ellipse 2398" cx="24.343" cy="24.343" r="24.343" transform="translate(0 34.426) rotate(-45)" fill="url(#linear-gradient-3)"/>
      <circle id="Ellipse_2399" data-name="Ellipse 2399" cx="23.853" cy="23.853" r="23.853" transform="translate(0.693 34.426) rotate(-45)" fill="url(#linear-gradient-4)"/>
      <ellipse id="Ellipse_2400" data-name="Ellipse 2400" cx="21.232" cy="21.232" rx="21.232" ry="21.232" transform="translate(13.194 13.194)" fill="url(#linear-gradient-5)"/>
    </g>
    <g id="Group_6178" data-name="Group 6178" transform="translate(15.266 15.233)">
      <g id="Group_6176" data-name="Group 6176" transform="translate(0 0)" opacity="0.9" style="mix-blend-mode: multiply;isolation: isolate">
        <path id="Path_7981" data-name="Path 7981" d="M336.642,851.321l-.779-.231a1.575,1.575,0,0,1-.947-.753,1.5,1.5,0,0,1-.149-1.219,1.579,1.579,0,0,1,.774-.971,1.547,1.547,0,0,1,1.232-.14l.772.224c.172.05.268.116.29.2a.583.583,0,0,1-.028.284l-.682,2.345a1.23,1.23,0,0,1-.049.146.349.349,0,0,1-.072.1Q336.912,851.4,336.642,851.321Zm-.712-2.505a.77.77,0,0,0-.409.5.793.793,0,0,0,.072.64.811.811,0,0,0,.492.393l.4.118.463-1.594-.409-.119A.821.821,0,0,0,335.93,848.816Z" transform="translate(-314.667 -793.722)" fill="#875017"/>
        <path id="Path_7982" data-name="Path 7982" d="M289.876,828.947l-1.249-.519a1.164,1.164,0,0,1-.137-.064.356.356,0,0,1-.092-.083q-.086-.1.022-.362.118-.284.288-.27a.719.719,0,0,1,.221.063l1.606.668c.189.079.279.176.268.293a.694.694,0,0,1-.062.217l-.938,2.254a.424.424,0,0,1-.194.25.458.458,0,0,1-.323-.046l-1.6-.665a1.315,1.315,0,0,1-.138-.065.357.357,0,0,1-.091-.083q-.086-.1.022-.361.118-.284.288-.271a.733.733,0,0,1,.221.064l1.245.518.17-.409-.8-.334a1.218,1.218,0,0,1-.138-.064.357.357,0,0,1-.091-.083q-.086-.1.022-.362c.079-.189.176-.278.292-.268a.736.736,0,0,1,.221.063l.794.331Z" transform="translate(-270.535 -774.781)" fill="#875017"/>
        <path id="Path_7983" data-name="Path 7983" d="M255.438,807.6l.162-2.718a.574.574,0,0,1,.044-.232q.077-.138.362-.124a.584.584,0,0,1,.242.049.238.238,0,0,1,.1.1.262.262,0,0,1,.028.112c0,.033,0,.083,0,.148l-.032.525,1.062.594.431-.3c.054-.037.095-.063.122-.078a.315.315,0,0,1,.109-.032.227.227,0,0,1,.143.032.577.577,0,0,1,.169.18q.162.231.085.37a.572.572,0,0,1-.174.159l-2.234,1.564a.382.382,0,0,1-.208.07.4.4,0,0,1-.212-.048A.373.373,0,0,1,255.438,807.6Zm.825-.746.547-.383-.51-.285Z" transform="translate(-240.679 -753.195)" fill="#875017"/>
        <path id="Path_7984" data-name="Path 7984" d="M224.253,783.18l-.971-.695a.506.506,0,0,1-.152-.15.167.167,0,0,1-.011-.135.8.8,0,0,1,.217-.3.153.153,0,0,1,.117-.035.491.491,0,0,1,.211.1l1.286.92q.25.179.2.345a.69.69,0,0,1-.109.2l-1.421,1.985a1.214,1.214,0,0,1-.093.119.343.343,0,0,1-.1.07c-.079.04-.2.006-.348-.1s-.234-.234-.2-.344a.867.867,0,0,1,.115-.2Z" transform="translate(-210.271 -732.04)" fill="#875017"/>
        <path id="Path_7985" data-name="Path 7985" d="M139.748,715.479a.577.577,0,1,1,.81.1A.51.51,0,0,1,139.748,715.479Z" transform="translate(-132.542 -669.176)" fill="#875017"/>
        <path id="Path_7986" data-name="Path 7986" d="M60.873,599.641l-.281-.763a1.577,1.577,0,0,1,.036-1.21,1.5,1.5,0,0,1,.887-.849,1.577,1.577,0,0,1,1.241.039,1.548,1.548,0,0,1,.85.9l.282.752c.063.167.068.284.014.351a.586.586,0,0,1-.245.148l-2.286.857a1.2,1.2,0,0,1-.146.048.36.36,0,0,1-.122,0Q60.972,599.9,60.873,599.641Zm1.581-2.07a.769.769,0,0,0-.643-.031.792.792,0,0,0-.47.441.811.811,0,0,0-.02.629l.148.395,1.554-.583-.15-.4A.82.82,0,0,0,62.454,597.571Z" transform="translate(-58.702 -559.212)" fill="#875017"/>
        <path id="Path_7987" data-name="Path 7987" d="M45.593,552.8l-.331-1.311a1.25,1.25,0,0,1-.031-.148.35.35,0,0,1,.012-.123q.031-.13.3-.2.3-.075.389.069a.73.73,0,0,1,.082.215l.426,1.686q.075.3-.074.39a.7.7,0,0,1-.211.08l-2.367.6a.426.426,0,0,1-.316-.006.46.46,0,0,1-.156-.286l-.424-1.678a1.277,1.277,0,0,1-.031-.149.353.353,0,0,1,.012-.123q.031-.13.3-.2c.2-.05.328-.027.389.07a.73.73,0,0,1,.082.215l.33,1.307.43-.109-.213-.843a1.313,1.313,0,0,1-.031-.149.356.356,0,0,1,.012-.123q.031-.13.3-.2.3-.075.39.073a.729.729,0,0,1,.081.215l.211.835Z" transform="translate(-42.248 -516.538)" fill="#875017"/>
        <path id="Path_7988" data-name="Path 7988" d="M37.247,502.647l2.274-1.5a.571.571,0,0,1,.212-.1q.157-.021.316.215a.575.575,0,0,1,.1.223.234.234,0,0,1-.021.144.261.261,0,0,1-.072.089c-.027.02-.067.048-.122.085l-.44.289.16,1.206.5.164c.062.021.107.038.135.051a.314.314,0,0,1,.091.068.226.226,0,0,1,.06.134.576.576,0,0,1-.043.242q-.088.269-.245.289a.57.57,0,0,1-.232-.045l-2.589-.853a.381.381,0,0,1-.18-.125.389.389,0,0,1-.088-.2A.372.372,0,0,1,37.247,502.647Zm1.092.214.635.208-.077-.579Z" transform="translate(-36.835 -469.911)" fill="#875017"/>
        <path id="Path_7989" data-name="Path 7989" d="M36.194,465.055l-.025-1.194a.5.5,0,0,1,.028-.212.167.167,0,0,1,.1-.09.8.8,0,0,1,.373-.008.151.151,0,0,1,.1.073.494.494,0,0,1,.049.227l.034,1.581q.006.308-.159.364a.685.685,0,0,1-.223.031l-2.441.052a1.194,1.194,0,0,1-.152,0,.348.348,0,0,1-.117-.039q-.12-.059-.126-.34-.007-.307.155-.368a.868.868,0,0,1,.228-.027Z" transform="translate(-33.633 -434.895)" fill="#875017"/>
        <path id="Path_7990" data-name="Path 7990" d="M68.76,355.159a.577.577,0,1,1,.4.71A.51.51,0,0,1,68.76,355.159Z" transform="translate(-66.391 -333.325)" fill="#875017"/>
        <path id="Path_7991" data-name="Path 7991" d="M93.26,227.885l.443-.681a1.577,1.577,0,0,1,.991-.694,1.5,1.5,0,0,1,1.211.2,1.578,1.578,0,0,1,.711,1.018,1.547,1.547,0,0,1-.215,1.221l-.434.676q-.145.225-.273.222a.585.585,0,0,1-.265-.108l-2.054-1.32a1.3,1.3,0,0,1-.126-.089.356.356,0,0,1-.073-.1Q93.108,228.121,93.26,227.885Zm2.6.029a.77.77,0,0,0-.359-.534.794.794,0,0,0-.635-.113.812.812,0,0,0-.516.36l-.228.355,1.4.9.23-.358A.822.822,0,0,0,95.865,227.913Z" transform="translate(-89.194 -213.598)" fill="#875017"/>
        <path id="Path_7992" data-name="Path 7992" d="M123.554,185.593l.852-1.051a1.223,1.223,0,0,1,.1-.113.347.347,0,0,1,.106-.064q.123-.053.341.124.239.193.178.353a.734.734,0,0,1-.123.194l-1.095,1.351q-.194.239-.356.175a.685.685,0,0,1-.191-.121l-1.9-1.537a.425.425,0,0,1-.185-.257.459.459,0,0,1,.136-.3L122.508,183a1.277,1.277,0,0,1,.1-.114.355.355,0,0,1,.106-.064q.123-.053.341.124.239.193.177.353a.735.735,0,0,1-.123.194l-.849,1.047.345.279.547-.676a1.276,1.276,0,0,1,.1-.113.353.353,0,0,1,.106-.064q.123-.054.341.123.239.194.175.356a.731.731,0,0,1-.123.194l-.542.669Z" transform="translate(-115.45 -172.855)" fill="#875017"/>
        <path id="Path_7993" data-name="Path 7993" d="M164.016,157.124l2.562.921a.573.573,0,0,1,.21.108q.111.113.018.382a.577.577,0,0,1-.115.218.235.235,0,0,1-.128.07.261.261,0,0,1-.115,0l-.141-.046-.5-.179-.869.851.169.5c.02.062.034.109.04.139a.315.315,0,0,1,0,.113.226.226,0,0,1-.071.128.572.572,0,0,1-.22.111q-.268.09-.379-.023a.57.57,0,0,1-.1-.212l-.871-2.583a.4.4,0,0,1,.1-.409A.372.372,0,0,1,164.016,157.124Zm.483,1,.214.633.417-.409Z" transform="translate(-154.847 -148.849)" fill="#875017"/>
        <path id="Path_7994" data-name="Path 7994" d="M192.486,133.3l.94-.737a.5.5,0,0,1,.186-.1.166.166,0,0,1,.133.027.8.8,0,0,1,.23.294.152.152,0,0,1,0,.122.5.5,0,0,1-.153.175l-1.245.975q-.242.19-.386.091a.7.7,0,0,1-.159-.16l-1.506-1.922a1.265,1.265,0,0,1-.088-.123.353.353,0,0,1-.039-.117q-.025-.131.2-.3.242-.19.387-.1a.879.879,0,0,1,.158.166Z" transform="translate(-179.967 -124.851)" fill="#875017"/>
        <path id="Path_7995" data-name="Path 7995" d="M314.813,82.041a.577.577,0,1,1-.327.748A.51.51,0,0,1,314.813,82.041Z" transform="translate(-295.742 -78.732)" fill="#875017"/>
        <path id="Path_7996" data-name="Path 7996" d="M421.2,34.6l.811-.053a1.577,1.577,0,0,1,1.15.378,1.5,1.5,0,0,1,.562,1.092,1.578,1.578,0,0,1-.389,1.179,1.547,1.547,0,0,1-1.107.559l-.8.057q-.267.019-.341-.086a.584.584,0,0,1-.073-.277l-.173-2.436a1.3,1.3,0,0,1,0-.154.345.345,0,0,1,.033-.117Q420.924,34.621,421.2,34.6Zm1.537,2.1a.771.771,0,0,0,.212-.607.794.794,0,0,0-.29-.576.811.811,0,0,0-.6-.2l-.421.03.118,1.656.425-.03A.822.822,0,0,0,422.741,36.7Z" transform="translate(-395.072 -34.45)" fill="#875017"/>
        <path id="Path_7997" data-name="Path 7997" d="M470.26,35.6l1.352.051a1.282,1.282,0,0,1,.151.012.355.355,0,0,1,.115.046q.116.066.105.347-.012.307-.176.354a.733.733,0,0,1-.229.018l-1.738-.065q-.307-.012-.354-.18a.684.684,0,0,1-.018-.225l.092-2.44a.425.425,0,0,1,.1-.3.458.458,0,0,1,.319-.069l1.729.065a1.273,1.273,0,0,1,.151.012.354.354,0,0,1,.115.046q.116.066.106.347-.012.307-.176.354a.735.735,0,0,1-.229.018l-1.347-.051-.017.443.869.033a1.272,1.272,0,0,1,.151.012.35.35,0,0,1,.115.046q.117.066.106.347-.012.307-.18.354a.736.736,0,0,1-.229.018l-.86-.032Z" transform="translate(-440.467 -33.144)" fill="#875017"/>
        <path id="Path_7998" data-name="Path 7998" d="M511.619,38.648l.8,2.6a.578.578,0,0,1,.04.233q-.024.156-.3.243a.576.576,0,0,1-.244.038.234.234,0,0,1-.133-.06.26.26,0,0,1-.065-.094c-.011-.031-.027-.078-.047-.141l-.154-.5-1.2-.185-.3.434q-.057.08-.087.116a.314.314,0,0,1-.09.068.225.225,0,0,1-.145.02.575.575,0,0,1-.221-.109q-.233-.16-.209-.317a.567.567,0,0,1,.108-.21l1.545-2.246a.382.382,0,0,1,.17-.138.389.389,0,0,1,.215-.029A.372.372,0,0,1,511.619,38.648Zm-.512.988-.377.551.577.089Z" transform="translate(-477.618 -38.017)" fill="#875017"/>
        <path id="Path_7999" data-name="Path 7999" d="M560.779,47.835l1.153.312a.5.5,0,0,1,.2.087.165.165,0,0,1,.057.123.645.645,0,0,1-.027.186.636.636,0,0,1-.07.174.152.152,0,0,1-.1.074.5.5,0,0,1-.232-.017l-1.526-.413q-.3-.08-.3-.255a.7.7,0,0,1,.033-.223l.638-2.357a1.148,1.148,0,0,1,.046-.145.34.34,0,0,1,.07-.1c.06-.066.181-.074.362-.025q.3.08.309.252a.873.873,0,0,1-.038.226Z" transform="translate(-524.907 -44.419)" fill="#875017"/>
        <path id="Path_8000" data-name="Path 8000" d="M680.732,115.559a.577.577,0,1,1-.8.185A.51.51,0,0,1,680.732,115.559Z" transform="translate(-636.821 -109.966)" fill="#875017"/>
        <path id="Path_8001" data-name="Path 8001" d="M758.914,171.117l.529.617a1.576,1.576,0,0,1,.388,1.146,1.5,1.5,0,0,1-.536,1.1,1.578,1.578,0,0,1-1.177.4,1.547,1.547,0,0,1-1.111-.55l-.527-.607q-.175-.2-.136-.324a.59.59,0,0,1,.178-.224l1.844-1.6a1.245,1.245,0,0,1,.12-.1.349.349,0,0,1,.114-.043Q758.73,170.905,758.914,171.117Zm-.76,2.491a.769.769,0,0,0,.613-.195.792.792,0,0,0,.287-.577.812.812,0,0,0-.2-.6l-.277-.318-1.254,1.088.279.322A.822.822,0,0,0,758.154,173.609Z" transform="translate(-708.248 -161.764)" fill="#875017"/>
        <path id="Path_8002" data-name="Path 8002" d="M786.742,211.606l.769,1.113a1.3,1.3,0,0,1,.081.129.35.35,0,0,1,.032.119c.011.088-.06.186-.214.292s-.3.14-.389.071a.735.735,0,0,1-.151-.173l-.989-1.431q-.175-.253-.068-.391a.7.7,0,0,1,.17-.149l2.009-1.388a.425.425,0,0,1,.3-.1.457.457,0,0,1,.246.214l.984,1.423a1.223,1.223,0,0,1,.081.129.343.343,0,0,1,.032.119q.017.132-.214.292-.253.175-.389.071a.734.734,0,0,1-.152-.173l-.767-1.109-.365.252.495.715a1.225,1.225,0,0,1,.081.128.351.351,0,0,1,.032.119c.011.088-.061.186-.215.292s-.3.139-.391.067a.741.741,0,0,1-.152-.173l-.489-.708Z" transform="translate(-735.724 -197.942)" fill="#875017"/>
        <path id="Path_8003" data-name="Path 8003" d="M812.281,263.941l-1.606,2.2a.573.573,0,0,1-.163.171q-.14.074-.371-.091a.571.571,0,0,1-.176-.172.235.235,0,0,1-.032-.143.263.263,0,0,1,.037-.109c.018-.028.047-.069.084-.122l.311-.424-.572-1.074-.526.021q-.1,0-.144,0a.316.316,0,0,1-.109-.032.227.227,0,0,1-.1-.1.575.575,0,0,1-.044-.242q-.011-.283.128-.357a.569.569,0,0,1,.233-.039l2.724-.107a.383.383,0,0,1,.213.054.387.387,0,0,1,.152.155A.372.372,0,0,1,812.281,263.941Zm-1.1.182-.668.027.275.516Z" transform="translate(-757.282 -247.999)" fill="#875017"/>
        <path id="Path_8004" data-name="Path 8004" d="M832.268,298.09l.44,1.11a.509.509,0,0,1,.047.208.166.166,0,0,1-.064.12.64.64,0,0,1-.165.089.647.647,0,0,1-.182.049.152.152,0,0,1-.117-.034.5.5,0,0,1-.125-.2l-.583-1.47q-.113-.286.022-.4a.7.7,0,0,1,.2-.107l2.27-.9a1.276,1.276,0,0,1,.143-.05.352.352,0,0,1,.124,0q.133.014.236.275c.076.19.07.323-.017.4a.877.877,0,0,1-.2.1Z" transform="translate(-778.38 -278.982)" fill="#875017"/>
        <path id="Path_8005" data-name="Path 8005" d="M856.042,341.633a.577.577,0,1,1-.724-.378A.51.51,0,0,1,856.042,341.633Z" transform="translate(-800.251 -320.714)" fill="#875017"/>
        <path id="Path_8006" data-name="Path 8006" d="M866.707,450.5l.009.812a1.576,1.576,0,0,1-.441,1.127,1.494,1.494,0,0,1-1.121.5A1.577,1.577,0,0,1,864,452.49a1.548,1.548,0,0,1-.5-1.136l-.013-.8q-.005-.268.1-.336a.582.582,0,0,1,.281-.057l2.441-.039a1.268,1.268,0,0,1,.154,0,.363.363,0,0,1,.115.04C866.663,450.2,866.7,450.316,866.707,450.5Zm-2.184,1.419a.772.772,0,0,0,.595.245.8.8,0,0,0,.591-.258.81.81,0,0,0,.23-.586l-.006-.421-1.66.026.006.426A.826.826,0,0,0,864.523,451.922Z" transform="translate(-808.27 -422.373)" fill="#875017"/>
        <path id="Path_8007" data-name="Path 8007" d="M860.817,497.63l-.144,1.345a1.142,1.142,0,0,1-.023.15.358.358,0,0,1-.053.111q-.074.112-.354.082-.305-.033-.34-.2a.717.717,0,0,1,0-.23l.184-1.729c.021-.2.089-.317.2-.34a.687.687,0,0,1,.226,0l2.428.259a.427.427,0,0,1,.295.115.462.462,0,0,1,.047.323l-.183,1.721a1.347,1.347,0,0,1-.023.15.37.37,0,0,1-.054.111q-.074.111-.353.082-.305-.033-.341-.2a.743.743,0,0,1,0-.23l.143-1.341-.441-.047-.092.865a1.275,1.275,0,0,1-.023.15.341.341,0,0,1-.054.111q-.074.111-.353.081c-.2-.022-.317-.09-.341-.2a.74.74,0,0,1,0-.23l.091-.856Z" transform="translate(-804.913 -465.956)" fill="#875017"/>
        <path id="Path_8008" data-name="Path 8008" d="M852.769,538.911l-2.652.618a.575.575,0,0,1-.235.023q-.155-.035-.222-.312a.571.571,0,0,1-.021-.246.236.236,0,0,1,.069-.128.266.266,0,0,1,.1-.059c.032-.009.079-.022.143-.037l.514-.118.268-1.187-.413-.327c-.05-.042-.087-.073-.109-.095a.307.307,0,0,1-.062-.095.221.221,0,0,1-.01-.146.572.572,0,0,1,.125-.212c.117-.148.227-.21.33-.187a.575.575,0,0,1,.2.122l2.134,1.7a.384.384,0,0,1,.126.179.391.391,0,0,1,.015.217A.373.373,0,0,1,852.769,538.911Zm-.95-.579-.523-.415-.129.57Z" transform="translate(-795.336 -502.913)" fill="#875017"/>
        <path id="Path_8009" data-name="Path 8009" d="M838.445,587.127l-.391,1.128a.507.507,0,0,1-.1.188.166.166,0,0,1-.126.049.64.64,0,0,1-.184-.04.656.656,0,0,1-.169-.082.152.152,0,0,1-.067-.1.493.493,0,0,1,.033-.23l.518-1.494c.068-.194.159-.289.276-.286a.684.684,0,0,1,.22.048l2.307.8a1.275,1.275,0,0,1,.141.056.351.351,0,0,1,.1.078q.091.1,0,.362-.1.29-.273.291a.877.877,0,0,1-.223-.054Z" transform="translate(-783.922 -549.454)" fill="#875017"/>
        <path id="Path_8010" data-name="Path 8010" d="M796.9,704.239a.577.577,0,1,1-.13-.806A.51.51,0,0,1,796.9,704.239Z" transform="translate(-745.111 -658.699)" fill="#875017"/>
        <path id="Path_8011" data-name="Path 8011" d="M703.556,777.084l-.651.486a1.576,1.576,0,0,1-1.17.307,1.5,1.5,0,0,1-1.066-.611,1.577,1.577,0,0,1-.314-1.2,1.549,1.549,0,0,1,.626-1.072l.642-.484q.214-.161.333-.113a.581.581,0,0,1,.211.193l1.47,1.949a1.251,1.251,0,0,1,.087.127.341.341,0,0,1,.036.116Q703.78,776.915,703.556,777.084Zm-2.432-.929a.77.77,0,0,0,.152.625.8.8,0,0,0,.556.326.812.812,0,0,0,.609-.159l.337-.254-1-1.326-.34.256A.82.82,0,0,0,701.123,776.154Z" transform="translate(-655.976 -725.064)" fill="#875017"/>
        <path id="Path_8012" data-name="Path 8012" d="M658.627,802.311l-1.163.69a1.193,1.193,0,0,1-.134.072.357.357,0,0,1-.121.024q-.133.007-.277-.234-.157-.264-.044-.393a.747.747,0,0,1,.183-.139l1.5-.888c.176-.1.308-.118.395-.04a.706.706,0,0,1,.137.179l1.246,2.1a.423.423,0,0,1,.084.305c-.02.075-.1.152-.23.231l-1.488.883a1.38,1.38,0,0,1-.134.072.36.36,0,0,1-.121.024q-.133.008-.277-.234-.157-.264-.044-.392a.722.722,0,0,1,.183-.139l1.16-.688-.227-.381-.747.444a1.28,1.28,0,0,1-.134.071.362.362,0,0,1-.121.024q-.133.007-.277-.234-.157-.264-.04-.395a.736.736,0,0,1,.183-.139l.74-.439Z" transform="translate(-615.372 -750.236)" fill="#875017"/>
        <path id="Path_8013" data-name="Path 8013" d="M613.71,825.4l-2.082-1.754a.579.579,0,0,1-.159-.174q-.064-.145.116-.364a.575.575,0,0,1,.184-.164.234.234,0,0,1,.144-.021.263.263,0,0,1,.106.044c.027.02.065.051.116.092l.4.34,1.111-.5.016-.526c0-.066.006-.114.01-.144a.315.315,0,0,1,.039-.106.232.232,0,0,1,.112-.1.581.581,0,0,1,.245-.027c.188.006.3.057.347.153a.577.577,0,0,1,.023.235l-.082,2.725a.4.4,0,0,1-.234.35A.371.371,0,0,1,613.71,825.4Zm-.1-1.108.019-.667-.533.238Z" transform="translate(-573.003 -769.507)" fill="#875017"/>
        <path id="Path_8014" data-name="Path 8014" d="M576.944,842.245l-1.138.362a.5.5,0,0,1-.211.032.166.166,0,0,1-.115-.072.652.652,0,0,1-.078-.171.64.64,0,0,1-.036-.185.149.149,0,0,1,.042-.114.491.491,0,0,1,.2-.111l1.507-.479q.293-.094.394.05a.682.682,0,0,1,.093.205l.74,2.327a1.268,1.268,0,0,1,.04.146.347.347,0,0,1,0,.123c-.015.088-.112.16-.291.217q-.293.094-.4-.044a.9.9,0,0,1-.09-.211Z" transform="translate(-539.32 -787.684)" fill="#875017"/>
        <path id="Path_8015" data-name="Path 8015" d="M471.6,874.852a.577.577,0,1,1,.567-.587A.51.51,0,0,1,471.6,874.852Z" transform="translate(-441.91 -817.767)" fill="#875017"/>
      </g>
      <g id="Group_6177" data-name="Group 6177" transform="translate(0 0.339)" style="mix-blend-mode: soft-light;isolation: isolate">
        <path id="Path_8016" data-name="Path 8016" d="M336.642,856.411l-.779-.231a1.578,1.578,0,0,1-.947-.753,1.5,1.5,0,0,1-.149-1.219,1.576,1.576,0,0,1,.774-.971,1.546,1.546,0,0,1,1.232-.141l.772.225q.257.075.29.2a.583.583,0,0,1-.028.285l-.682,2.344a1.249,1.249,0,0,1-.049.146.353.353,0,0,1-.072.1Q336.912,856.489,336.642,856.411Zm-.712-2.505a.769.769,0,0,0-.409.5.793.793,0,0,0,.072.641.811.811,0,0,0,.492.392l.4.118.463-1.594-.409-.119A.821.821,0,0,0,335.93,853.906Z" transform="translate(-314.667 -798.812)" fill="#fdf193"/>
        <path id="Path_8017" data-name="Path 8017" d="M289.876,834.036l-1.249-.52a1.326,1.326,0,0,1-.137-.064.361.361,0,0,1-.092-.084c-.057-.069-.05-.189.022-.362q.118-.284.288-.271a.752.752,0,0,1,.221.064l1.606.668c.189.079.279.176.268.292a.7.7,0,0,1-.062.217l-.938,2.255a.427.427,0,0,1-.194.249.458.458,0,0,1-.323-.046l-1.6-.665a1.166,1.166,0,0,1-.138-.064.355.355,0,0,1-.091-.083q-.086-.1.022-.362c.079-.189.175-.28.288-.27a.742.742,0,0,1,.221.063l1.245.518.17-.41-.8-.334a1.13,1.13,0,0,1-.138-.064.35.35,0,0,1-.091-.083c-.057-.068-.05-.189.022-.362.079-.189.176-.279.292-.268a.73.73,0,0,1,.221.063l.794.331Z" transform="translate(-270.535 -779.87)" fill="#fdf193"/>
        <path id="Path_8018" data-name="Path 8018" d="M255.438,812.688l.162-2.718a.569.569,0,0,1,.044-.232c.051-.092.172-.133.362-.125a.579.579,0,0,1,.242.05.239.239,0,0,1,.1.1.265.265,0,0,1,.028.112c0,.034,0,.083,0,.148l-.032.526,1.062.594.431-.3c.054-.037.095-.063.122-.078a.312.312,0,0,1,.109-.032.229.229,0,0,1,.143.032.581.581,0,0,1,.169.18q.162.231.085.37a.565.565,0,0,1-.174.159l-2.234,1.563a.385.385,0,0,1-.208.07.389.389,0,0,1-.212-.048A.373.373,0,0,1,255.438,812.688Zm.825-.746.547-.384-.51-.285Z" transform="translate(-240.679 -758.284)" fill="#fdf193"/>
        <path id="Path_8019" data-name="Path 8019" d="M224.253,788.27l-.971-.695a.5.5,0,0,1-.152-.15.167.167,0,0,1-.011-.135.808.808,0,0,1,.217-.3.15.15,0,0,1,.117-.035.489.489,0,0,1,.211.1l1.286.92q.25.179.2.345a.687.687,0,0,1-.109.2l-1.421,1.986a1.2,1.2,0,0,1-.093.119.335.335,0,0,1-.1.071c-.079.041-.2.006-.348-.1s-.234-.234-.2-.344a.865.865,0,0,1,.115-.2Z" transform="translate(-210.271 -737.13)" fill="#fdf193"/>
        <path id="Path_8020" data-name="Path 8020" d="M139.748,720.569a.577.577,0,1,1,.81.1A.51.51,0,0,1,139.748,720.569Z" transform="translate(-132.542 -674.265)" fill="#fdf193"/>
        <path id="Path_8021" data-name="Path 8021" d="M60.873,604.731l-.281-.762a1.577,1.577,0,0,1,.036-1.21,1.5,1.5,0,0,1,.887-.849,1.579,1.579,0,0,1,1.241.039,1.548,1.548,0,0,1,.85.9l.282.752q.094.251.014.351a.585.585,0,0,1-.245.148l-2.286.857a1.285,1.285,0,0,1-.146.048.346.346,0,0,1-.122,0Q60.972,604.994,60.873,604.731Zm1.581-2.07a.771.771,0,0,0-.643-.031.792.792,0,0,0-.47.441.812.812,0,0,0-.02.629l.148.395,1.554-.583-.15-.4A.82.82,0,0,0,62.454,602.66Z" transform="translate(-58.702 -564.302)" fill="#fdf193"/>
        <path id="Path_8022" data-name="Path 8022" d="M45.593,557.893l-.331-1.312a1.248,1.248,0,0,1-.031-.148.351.351,0,0,1,.012-.123q.031-.13.3-.2.3-.075.389.069a.731.731,0,0,1,.082.215l.426,1.686q.075.3-.074.39a.7.7,0,0,1-.211.081l-2.367.6a.425.425,0,0,1-.316-.006.458.458,0,0,1-.156-.287l-.424-1.678a1.281,1.281,0,0,1-.031-.148.352.352,0,0,1,.012-.123c.02-.087.122-.153.3-.2q.3-.076.389.07a.73.73,0,0,1,.082.214l.33,1.307.43-.109-.213-.843a1.263,1.263,0,0,1-.031-.148.355.355,0,0,1,.012-.123c.02-.087.121-.153.3-.2q.3-.075.39.074a.726.726,0,0,1,.081.215l.211.835Z" transform="translate(-42.248 -521.627)" fill="#fdf193"/>
        <path id="Path_8023" data-name="Path 8023" d="M37.247,507.737l2.274-1.5a.576.576,0,0,1,.212-.1q.157-.021.316.215a.574.574,0,0,1,.1.223.235.235,0,0,1-.021.145.26.26,0,0,1-.072.089q-.04.03-.122.085l-.44.289.16,1.206.5.164c.062.021.107.038.135.051a.311.311,0,0,1,.091.068.226.226,0,0,1,.06.134.578.578,0,0,1-.043.243q-.088.269-.245.289a.569.569,0,0,1-.232-.045l-2.589-.853a.386.386,0,0,1-.18-.124.39.39,0,0,1-.088-.2A.372.372,0,0,1,37.247,507.737Zm1.092.214.635.208-.077-.579Z" transform="translate(-36.835 -475.001)" fill="#fdf193"/>
        <path id="Path_8024" data-name="Path 8024" d="M36.194,470.144l-.025-1.194a.5.5,0,0,1,.028-.212.168.168,0,0,1,.1-.09.66.66,0,0,1,.186-.026.645.645,0,0,1,.187.018.151.151,0,0,1,.1.073.494.494,0,0,1,.049.227l.034,1.581q.006.307-.159.364a.681.681,0,0,1-.223.031l-2.441.052a1.29,1.29,0,0,1-.152,0,.35.35,0,0,1-.117-.039q-.12-.059-.126-.34-.007-.307.155-.368a.874.874,0,0,1,.228-.027Z" transform="translate(-33.633 -439.984)" fill="#fdf193"/>
        <path id="Path_8025" data-name="Path 8025" d="M68.76,360.249a.577.577,0,1,1,.4.71A.51.51,0,0,1,68.76,360.249Z" transform="translate(-66.391 -338.414)" fill="#fdf193"/>
        <path id="Path_8026" data-name="Path 8026" d="M93.26,232.975l.443-.681a1.577,1.577,0,0,1,.991-.694,1.5,1.5,0,0,1,1.211.2,1.578,1.578,0,0,1,.711,1.018,1.547,1.547,0,0,1-.215,1.221l-.434.676q-.145.225-.273.222a.584.584,0,0,1-.265-.108l-2.054-1.32a1.292,1.292,0,0,1-.126-.089.357.357,0,0,1-.073-.1Q93.108,233.211,93.26,232.975Zm2.6.029a.77.77,0,0,0-.359-.534.794.794,0,0,0-.635-.113.812.812,0,0,0-.516.36l-.228.355,1.4.9.23-.358A.822.822,0,0,0,95.865,233Z" transform="translate(-89.194 -218.688)" fill="#fdf193"/>
        <path id="Path_8027" data-name="Path 8027" d="M123.554,190.683l.852-1.051a1.242,1.242,0,0,1,.1-.113.348.348,0,0,1,.106-.064q.123-.053.341.124.239.193.178.353a.731.731,0,0,1-.123.194l-1.095,1.351q-.194.239-.356.175a.692.692,0,0,1-.191-.121l-1.9-1.537a.425.425,0,0,1-.185-.257.459.459,0,0,1,.136-.3l1.089-1.344a1.271,1.271,0,0,1,.1-.114.351.351,0,0,1,.106-.064q.123-.053.341.123.239.194.177.353a.736.736,0,0,1-.123.194l-.849,1.048.345.279.547-.676a1.277,1.277,0,0,1,.1-.114.352.352,0,0,1,.106-.064q.123-.054.341.123.239.194.175.356a.736.736,0,0,1-.123.194l-.542.669Z" transform="translate(-115.45 -177.945)" fill="#fdf193"/>
        <path id="Path_8028" data-name="Path 8028" d="M164.016,162.214l2.562.921a.573.573,0,0,1,.21.108q.111.113.018.382a.575.575,0,0,1-.115.218.234.234,0,0,1-.128.07.262.262,0,0,1-.115,0c-.032-.01-.079-.025-.141-.047l-.5-.179-.869.851.169.5c.02.062.034.109.04.138a.316.316,0,0,1,0,.113.226.226,0,0,1-.071.128.574.574,0,0,1-.22.111q-.268.09-.379-.022a.572.572,0,0,1-.1-.212l-.871-2.583a.4.4,0,0,1,.1-.409A.371.371,0,0,1,164.016,162.214Zm.483,1,.214.632.417-.409Z" transform="translate(-154.847 -153.939)" fill="#fdf193"/>
        <path id="Path_8029" data-name="Path 8029" d="M192.486,138.389l.94-.737a.5.5,0,0,1,.186-.1.167.167,0,0,1,.133.027.8.8,0,0,1,.23.294.151.151,0,0,1,0,.122.494.494,0,0,1-.153.175l-1.245.975q-.242.189-.386.091a.693.693,0,0,1-.159-.16l-1.506-1.922a1.266,1.266,0,0,1-.088-.123.353.353,0,0,1-.039-.117q-.025-.131.2-.3.242-.19.387-.1a.887.887,0,0,1,.158.166Z" transform="translate(-179.967 -129.941)" fill="#fdf193"/>
        <path id="Path_8030" data-name="Path 8030" d="M314.813,87.13a.577.577,0,1,1-.327.748A.51.51,0,0,1,314.813,87.13Z" transform="translate(-295.742 -83.822)" fill="#fdf193"/>
        <path id="Path_8031" data-name="Path 8031" d="M421.2,39.691l.811-.053a1.577,1.577,0,0,1,1.15.378,1.5,1.5,0,0,1,.562,1.092,1.578,1.578,0,0,1-.389,1.179,1.548,1.548,0,0,1-1.107.559l-.8.057q-.267.019-.341-.086a.584.584,0,0,1-.073-.277l-.173-2.436a1.3,1.3,0,0,1,0-.154.344.344,0,0,1,.033-.117Q420.924,39.711,421.2,39.691Zm1.537,2.1a.771.771,0,0,0,.212-.607.794.794,0,0,0-.29-.576.811.811,0,0,0-.6-.2l-.421.03.118,1.656.425-.03A.822.822,0,0,0,422.741,41.794Z" transform="translate(-395.072 -39.54)" fill="#fdf193"/>
        <path id="Path_8032" data-name="Path 8032" d="M470.26,40.689l1.352.051a1.287,1.287,0,0,1,.151.012.354.354,0,0,1,.115.046q.116.066.105.347-.012.307-.176.354a.737.737,0,0,1-.229.018l-1.738-.066q-.307-.012-.354-.18a.683.683,0,0,1-.018-.225l.092-2.44a.425.425,0,0,1,.1-.3.458.458,0,0,1,.319-.069l1.729.065a1.3,1.3,0,0,1,.151.012.354.354,0,0,1,.115.046q.116.066.106.347-.012.307-.176.354a.736.736,0,0,1-.229.018l-1.347-.051-.017.443.869.033a1.293,1.293,0,0,1,.151.012.35.35,0,0,1,.115.046q.117.066.106.347-.012.307-.18.354a.734.734,0,0,1-.229.018l-.86-.032Z" transform="translate(-440.467 -38.234)" fill="#fdf193"/>
        <path id="Path_8033" data-name="Path 8033" d="M511.619,43.738l.8,2.6a.578.578,0,0,1,.04.233q-.024.156-.3.243a.575.575,0,0,1-.244.038.234.234,0,0,1-.133-.06.261.261,0,0,1-.065-.094c-.011-.031-.027-.078-.047-.141l-.154-.5-1.2-.185-.3.434q-.057.08-.087.116a.315.315,0,0,1-.09.068.226.226,0,0,1-.145.02.576.576,0,0,1-.221-.109q-.233-.16-.209-.316a.567.567,0,0,1,.108-.21l1.545-2.246a.383.383,0,0,1,.17-.138.389.389,0,0,1,.215-.029A.372.372,0,0,1,511.619,43.738Zm-.512.988-.377.551.577.089Z" transform="translate(-477.618 -43.107)" fill="#fdf193"/>
        <path id="Path_8034" data-name="Path 8034" d="M560.779,52.925l1.153.312a.5.5,0,0,1,.2.087.165.165,0,0,1,.057.123.645.645,0,0,1-.027.186.637.637,0,0,1-.07.174.152.152,0,0,1-.1.074.5.5,0,0,1-.232-.017l-1.526-.413q-.3-.08-.3-.255a.7.7,0,0,1,.033-.223l.638-2.357a1.143,1.143,0,0,1,.046-.145.338.338,0,0,1,.07-.1c.06-.066.181-.074.362-.025q.3.08.309.252a.873.873,0,0,1-.038.226Z" transform="translate(-524.907 -49.509)" fill="#fdf193"/>
        <path id="Path_8035" data-name="Path 8035" d="M680.732,120.649a.577.577,0,1,1-.8.185A.51.51,0,0,1,680.732,120.649Z" transform="translate(-636.821 -115.056)" fill="#fdf193"/>
        <path id="Path_8036" data-name="Path 8036" d="M758.914,176.207l.529.617a1.577,1.577,0,0,1,.388,1.147,1.5,1.5,0,0,1-.536,1.1,1.578,1.578,0,0,1-1.177.4,1.547,1.547,0,0,1-1.111-.551l-.527-.607q-.175-.2-.136-.324a.59.59,0,0,1,.178-.224l1.844-1.6a1.24,1.24,0,0,1,.12-.1.349.349,0,0,1,.114-.044Q758.73,175.995,758.914,176.207Zm-.76,2.491a.77.77,0,0,0,.613-.195.792.792,0,0,0,.287-.577.812.812,0,0,0-.2-.6l-.277-.318-1.254,1.088.279.322A.822.822,0,0,0,758.154,178.7Z" transform="translate(-708.248 -166.853)" fill="#fdf193"/>
        <path id="Path_8037" data-name="Path 8037" d="M786.742,216.7l.769,1.113a1.268,1.268,0,0,1,.081.129.35.35,0,0,1,.032.119c.011.088-.06.186-.214.292s-.3.14-.389.071a.735.735,0,0,1-.151-.173l-.989-1.431q-.175-.253-.068-.391a.7.7,0,0,1,.17-.149l2.009-1.388a.425.425,0,0,1,.3-.1.457.457,0,0,1,.246.214l.984,1.424a1.221,1.221,0,0,1,.081.128.343.343,0,0,1,.032.119q.017.133-.214.292-.253.175-.389.071a.732.732,0,0,1-.152-.173l-.767-1.109-.365.252.495.715a1.234,1.234,0,0,1,.081.128.352.352,0,0,1,.032.119c.011.088-.061.186-.215.292s-.3.139-.391.068a.743.743,0,0,1-.152-.173l-.489-.708Z" transform="translate(-735.724 -203.031)" fill="#fdf193"/>
        <path id="Path_8038" data-name="Path 8038" d="M812.281,269.031l-1.606,2.2a.575.575,0,0,1-.163.171q-.14.074-.371-.091a.574.574,0,0,1-.176-.172.235.235,0,0,1-.032-.143.264.264,0,0,1,.037-.109c.018-.028.047-.069.084-.122l.311-.425-.572-1.074-.526.021q-.1,0-.144,0a.316.316,0,0,1-.109-.031.228.228,0,0,1-.1-.1.574.574,0,0,1-.044-.242q-.011-.283.128-.357a.569.569,0,0,1,.233-.039l2.724-.107a.385.385,0,0,1,.213.054.389.389,0,0,1,.152.155A.372.372,0,0,1,812.281,269.031Zm-1.1.181-.668.027.275.516Z" transform="translate(-757.282 -253.089)" fill="#fdf193"/>
        <path id="Path_8039" data-name="Path 8039" d="M832.268,303.18l.44,1.11a.51.51,0,0,1,.047.208.167.167,0,0,1-.064.12.8.8,0,0,1-.347.138.151.151,0,0,1-.117-.034.5.5,0,0,1-.125-.2l-.583-1.47q-.113-.286.022-.4a.7.7,0,0,1,.2-.107l2.27-.9a1.246,1.246,0,0,1,.143-.05.347.347,0,0,1,.124,0q.133.013.236.275c.076.19.07.323-.017.4a.873.873,0,0,1-.2.1Z" transform="translate(-778.38 -284.071)" fill="#fdf193"/>
        <path id="Path_8040" data-name="Path 8040" d="M856.042,346.722a.577.577,0,1,1-.724-.378A.51.51,0,0,1,856.042,346.722Z" transform="translate(-800.251 -325.804)" fill="#fdf193"/>
        <path id="Path_8041" data-name="Path 8041" d="M866.707,455.593l.009.812a1.577,1.577,0,0,1-.441,1.127,1.5,1.5,0,0,1-1.121.5A1.577,1.577,0,0,1,864,457.58a1.548,1.548,0,0,1-.5-1.136l-.013-.8c0-.179.031-.29.1-.336a.583.583,0,0,1,.281-.057l2.441-.04a1.383,1.383,0,0,1,.154,0,.368.368,0,0,1,.115.04C866.663,455.292,866.7,455.405,866.707,455.593Zm-2.184,1.419a.77.77,0,0,0,.595.245.794.794,0,0,0,.591-.258.809.809,0,0,0,.23-.586l-.006-.422-1.66.027.006.426A.827.827,0,0,0,864.523,457.012Z" transform="translate(-808.27 -427.462)" fill="#fdf193"/>
        <path id="Path_8042" data-name="Path 8042" d="M860.817,502.72l-.144,1.345a1.143,1.143,0,0,1-.023.15.364.364,0,0,1-.053.111q-.074.111-.354.082-.305-.033-.34-.2a.717.717,0,0,1,0-.23l.184-1.729c.021-.2.089-.317.2-.34a.679.679,0,0,1,.226,0l2.428.259a.427.427,0,0,1,.295.115.461.461,0,0,1,.047.323l-.183,1.721a1.344,1.344,0,0,1-.023.15.369.369,0,0,1-.054.111q-.074.112-.353.081-.305-.033-.341-.2a.744.744,0,0,1,0-.23l.143-1.341-.441-.047-.092.865a1.246,1.246,0,0,1-.023.15.338.338,0,0,1-.054.111q-.074.111-.353.081c-.2-.022-.317-.09-.341-.2a.742.742,0,0,1,0-.23l.091-.856Z" transform="translate(-804.913 -471.046)" fill="#fdf193"/>
        <path id="Path_8043" data-name="Path 8043" d="M852.769,544l-2.652.617a.568.568,0,0,1-.235.023q-.155-.034-.222-.311a.572.572,0,0,1-.021-.246.235.235,0,0,1,.069-.128.26.26,0,0,1,.1-.059c.032-.009.079-.022.143-.037l.514-.118.268-1.187-.413-.327c-.05-.042-.087-.073-.109-.095a.309.309,0,0,1-.062-.095.221.221,0,0,1-.01-.146.571.571,0,0,1,.125-.213c.117-.148.227-.21.33-.187a.571.571,0,0,1,.2.122l2.134,1.7a.407.407,0,0,1,.14.4A.373.373,0,0,1,852.769,544Zm-.95-.579-.523-.415-.129.569Z" transform="translate(-795.336 -508.002)" fill="#fdf193"/>
        <path id="Path_8044" data-name="Path 8044" d="M838.445,592.217l-.391,1.128a.5.5,0,0,1-.1.188.165.165,0,0,1-.126.049.8.8,0,0,1-.353-.122.151.151,0,0,1-.067-.1.5.5,0,0,1,.033-.23l.518-1.493c.068-.194.159-.289.276-.286a.7.7,0,0,1,.22.048l2.307.8a1.317,1.317,0,0,1,.141.056.35.35,0,0,1,.1.078c.061.064.061.185,0,.362q-.1.29-.273.291a.879.879,0,0,1-.223-.054Z" transform="translate(-783.922 -554.544)" fill="#fdf193"/>
        <path id="Path_8045" data-name="Path 8045" d="M796.9,709.328a.577.577,0,1,1-.13-.806A.51.51,0,0,1,796.9,709.328Z" transform="translate(-745.111 -663.789)" fill="#fdf193"/>
        <path id="Path_8046" data-name="Path 8046" d="M703.556,782.174l-.651.485a1.575,1.575,0,0,1-1.17.307,1.5,1.5,0,0,1-1.066-.61,1.578,1.578,0,0,1-.314-1.2,1.547,1.547,0,0,1,.626-1.071l.642-.484q.214-.161.333-.113a.583.583,0,0,1,.211.193l1.47,1.95a1.238,1.238,0,0,1,.087.127.345.345,0,0,1,.036.116Q703.78,782,703.556,782.174Zm-2.432-.93a.769.769,0,0,0,.152.625.791.791,0,0,0,.556.326.81.81,0,0,0,.609-.159l.337-.253-1-1.326-.34.257A.821.821,0,0,0,701.123,781.244Z" transform="translate(-655.976 -730.154)" fill="#fdf193"/>
        <path id="Path_8047" data-name="Path 8047" d="M658.627,807.4l-1.163.69a1.153,1.153,0,0,1-.134.072.348.348,0,0,1-.121.024q-.133.008-.277-.234-.157-.264-.044-.393a.759.759,0,0,1,.183-.14l1.5-.887q.265-.157.395-.04a.7.7,0,0,1,.137.179l1.246,2.1a.424.424,0,0,1,.084.305c-.02.075-.1.152-.23.231l-1.488.883a1.284,1.284,0,0,1-.134.072.36.36,0,0,1-.121.023q-.133.008-.277-.234-.157-.264-.044-.393a.734.734,0,0,1,.183-.139l1.16-.688-.227-.381-.747.444a1.281,1.281,0,0,1-.134.072.345.345,0,0,1-.121.023c-.088.005-.181-.073-.277-.234q-.157-.265-.04-.4a.736.736,0,0,1,.183-.14l.74-.439Z" transform="translate(-615.372 -755.326)" fill="#fdf193"/>
        <path id="Path_8048" data-name="Path 8048" d="M613.71,830.487l-2.082-1.755a.576.576,0,0,1-.159-.174q-.064-.145.116-.365a.575.575,0,0,1,.184-.164.238.238,0,0,1,.144-.021.262.262,0,0,1,.106.044c.027.02.065.051.116.093l.4.339,1.111-.5.016-.526c0-.065.006-.113.01-.144a.315.315,0,0,1,.039-.106.231.231,0,0,1,.112-.1.584.584,0,0,1,.245-.027c.188.005.3.057.347.153a.581.581,0,0,1,.023.235l-.082,2.725a.392.392,0,0,1-.068.209.4.4,0,0,1-.166.141A.373.373,0,0,1,613.71,830.487Zm-.1-1.108.019-.667-.533.238Z" transform="translate(-573.003 -774.597)" fill="#fdf193"/>
        <path id="Path_8049" data-name="Path 8049" d="M576.944,847.335l-1.138.362a.491.491,0,0,1-.211.032.166.166,0,0,1-.115-.071.659.659,0,0,1-.078-.171.641.641,0,0,1-.036-.185.151.151,0,0,1,.042-.115.5.5,0,0,1,.2-.111l1.507-.479q.293-.093.394.051a.678.678,0,0,1,.093.2l.74,2.327a1.249,1.249,0,0,1,.04.146.347.347,0,0,1,0,.123c-.015.088-.112.16-.291.217-.2.062-.328.047-.4-.045a.9.9,0,0,1-.09-.211Z" transform="translate(-539.32 -792.774)" fill="#fdf193"/>
        <path id="Path_8050" data-name="Path 8050" d="M471.6,879.941a.577.577,0,1,1,.567-.587A.511.511,0,0,1,471.6,879.941Z" transform="translate(-441.91 -822.856)" fill="#fdf193"/>
      </g>
    </g>
    <g id="Group_6185" data-name="Group 6185" transform="translate(32.824 27.719)">
      <g id="Group_6181" data-name="Group 6181" transform="translate(0.945 0)">
        <g id="Group_6180" data-name="Group 6180">
          <path id="Path_8051" data-name="Path 8051" d="M427,445.567h0a3.254,3.254,0,0,0,3.254-3.254v-3.5H427a3.254,3.254,0,0,0-3.254,3.254v.248A3.254,3.254,0,0,0,427,445.567Z" transform="translate(-416.294 -424.304)" fill="#ebd673"/>
          <g id="Group_6179" data-name="Group 6179">
            <path id="Path_8052" data-name="Path 8052" d="M327.52,333.111a5.005,5.005,0,0,1-5.005,5.005h0a5,5,0,0,1-5-5.005v-.382a5,5,0,0,1,5-5H325.7l0-.395v-5.381h-2.932a11.058,11.058,0,0,0-11.058,11.058v.72a10.766,10.766,0,0,0,11.058,10.505c5.722,0,10.361-4.086,10.361-9.808V329.55l-5.605.025Z" transform="translate(-311.707 -315.217)" fill="#ebd673"/>
            <path id="Path_8053" data-name="Path 8053" d="M554.936,227.524v-6.68s-5.543-.825-5.543,4.152l-.037,7.966v.337h0l5.606-.013v-5.763Z" transform="translate(-533.544 -220.794)" fill="#ebd673"/>
          </g>
        </g>
      </g>
      <g id="Group_6184" data-name="Group 6184" transform="translate(0 0)">
        <g id="Group_6183" data-name="Group 6183">
          <path id="Path_8054" data-name="Path 8054" d="M412.8,445.567h0a3.254,3.254,0,0,0,3.254-3.254v-3.5H412.8a3.254,3.254,0,0,0-3.254,3.254v.248A3.254,3.254,0,0,0,412.8,445.567Z" transform="translate(-402.092 -424.304)" fill="#ba8b1d"/>
          <g id="Group_6182" data-name="Group 6182">
            <path id="Path_8055" data-name="Path 8055" d="M313.317,333.111a5,5,0,0,1-5,5.005h0a5.005,5.005,0,0,1-5-5.005v-.382a5,5,0,0,1,5-5H311.5l0-.395v-5.381h-2.932A11.058,11.058,0,0,0,297.5,333.006v.72a10.767,10.767,0,0,0,11.058,10.505c5.722,0,10.36-4.086,10.36-9.808V329.55l-5.605.025Z" transform="translate(-297.504 -315.217)" fill="#ba8b1d"/>
            <path id="Path_8056" data-name="Path 8056" d="M540.734,227.524v-6.68s-5.542-.825-5.542,4.152l-.037,7.966v.337h0l5.606-.013v-5.763Z" transform="translate(-519.341 -220.794)" fill="#ba8b1d"/>
          </g>
        </g>
      </g>
      <path id="Path_8057" data-name="Path 8057" d="M410.492,442.313v-.248a3.254,3.254,0,0,1,3.254-3.254H412.8a3.254,3.254,0,0,0-3.254,3.254v.248a3.254,3.254,0,0,0,3.254,3.254h0a3.293,3.293,0,0,0,.472-.034A3.254,3.254,0,0,1,410.492,442.313Z" transform="translate(-402.092 -424.304)" fill="#8f5919" opacity="0.81"/>
      <path id="Path_8058" data-name="Path 8058" d="M298.449,333.726v-.72a11.058,11.058,0,0,1,11.058-11.058h-.945A11.058,11.058,0,0,0,297.5,333.006v.72a10.767,10.767,0,0,0,11.058,10.505c.157,0,.314,0,.469-.01A10.743,10.743,0,0,1,298.449,333.726Z" transform="translate(-297.504 -315.217)" fill="#8f5919" opacity="0.81"/>
      <path id="Path_8059" data-name="Path 8059" d="M472.517,439.75v-3.536l4.66-.021v0l-5.605.025v3.536a5,5,0,0,1-4.532,4.982c.156.015.313.023.472.023A5,5,0,0,0,472.517,439.75Z" transform="translate(-455.759 -421.857)" fill="#8f5919" opacity="0.81"/>
      <path id="Path_8060" data-name="Path 8060" d="M536.136,225c0-3.39,2.57-4.088,4.211-4.188-1.259-.079-5.156.015-5.156,4.188l-.037,7.966v.337h0l.945,0v-.335Z" transform="translate(-519.341 -220.794)" fill="#8f5919" opacity="0.81"/>
    </g>
  </g>
</svg>
