<svg xmlns="http://www.w3.org/2000/svg" xmlns:xlink="http://www.w3.org/1999/xlink" width="88.551" height="64" viewBox="0 0 88.551 64">
  <defs>
    <linearGradient id="linear-gradient" y1="0.5" x2="1" y2="0.5" gradientUnits="objectBoundingBox">
      <stop offset="0" stop-color="#875017"/>
      <stop offset="0.047" stop-color="#915e22"/>
      <stop offset="0.137" stop-color="#ad843f"/>
      <stop offset="0.26" stop-color="#d9c06d"/>
      <stop offset="0.35" stop-color="#fdf193"/>
      <stop offset="0.403" stop-color="#ebd774"/>
      <stop offset="0.486" stop-color="#d5b54c"/>
      <stop offset="0.561" stop-color="#c49c2f"/>
      <stop offset="0.626" stop-color="#ba8d1d"/>
      <stop offset="0.673" stop-color="#b78817"/>
      <stop offset="0.972" stop-color="#9d6917"/>
    </linearGradient>
  </defs>
  <path id="Path_8541" data-name="Path 8541" d="M-517.024,271.937a.963.963,0,0,1,.96.96.963.963,0,0,1-.96.96h-12.127q-.937-.993-1.946-1.92Zm-20.767-7.088a10.144,10.144,0,0,0,1.971-5.424c0-4.532-4.987-2.078-11.14-2.078s-11.141-2.687-11.141,2.078a10.2,10.2,0,0,0,2.043,5.424Zm-36.705,6.293a3.307,3.307,0,0,1,.084-.573,3.306,3.306,0,0,1,3.969-2.442q.181.043.365.077c-.029-.184-.049-.371-.06-.56a5.325,5.325,0,0,1,.4-2.366c-.613.053-1.25.09-1.9.09-4.735,0-8.574-2.068-8.574,1.6a7.848,7.848,0,0,0,1.571,4.175Zm8.087-.94a3.247,3.247,0,0,1-1.685-2.674,3.415,3.415,0,0,1,2.157-3.35,4.363,4.363,0,0,1,.938-.27,4.239,4.239,0,0,1-.3-.83,3.3,3.3,0,0,1,1.493-3.687,3.339,3.339,0,0,1,2.257-.436,3.62,3.62,0,0,1,1.706.782c1.191.962,2.154,2.895,2.149,6.145h21.529a1.25,1.25,0,0,1,1.247,1.247,1.25,1.25,0,0,1-1.247,1.247h-21.591a1.237,1.237,0,0,1-.468-.094,12.9,12.9,0,0,1-4.945,5.723,17.41,17.41,0,0,1-10.089,3.277c-.344-.011-.671-.034-.978-.068a1.248,1.248,0,0,1-1.1-1.377,1.248,1.248,0,0,1,1.378-1.1c.277.032.538.051.782.059a14.4,14.4,0,0,0,7.626-2.214,14.183,14.183,0,0,1-5.941-.033,1.246,1.246,0,0,1-.924-1.5,1.246,1.246,0,0,1,1.5-.923A11.439,11.439,0,0,0-566.409,270.2Zm3.543-7.69a3.391,3.391,0,0,0,1.279,1.738,12.363,12.363,0,0,1,1.36.54,4.354,4.354,0,0,0-1.177-3.109,1.381,1.381,0,0,0-.144-.1.934.934,0,0,0-.978-.049A.865.865,0,0,0-562.866,262.513Zm-2.736,4.879a.863.863,0,0,0,.7.761,2.79,2.79,0,0,0,1.448-.076,7.539,7.539,0,0,0,1.836-.852,12.275,12.275,0,0,1-1.1-.73,5.766,5.766,0,0,0-.734-.16,2.821,2.821,0,0,0-1.5.139A.968.968,0,0,0-565.6,267.392Zm32.867,3.131q.376.3.742.619h13.716a7.806,7.806,0,0,0,1.517-4.175c0-3.488-3.839-1.6-8.573-1.6-3.722,0-6.889-1.277-8.075-.044a3.276,3.276,0,0,1,.539,1.8,3.281,3.281,0,0,1-.6,1.9A9.724,9.724,0,0,0-532.735,270.523Zm-1.145-1.02-.079.073.121.088C-533.852,269.611-533.866,269.556-533.88,269.5Zm-58,11.207q-.4-.012-.753-.052a.961.961,0,0,1-.85-1.06.961.961,0,0,1,1.06-.85c.214.024.414.039.6.045a11.071,11.071,0,0,0,5.87-1.7,10.9,10.9,0,0,1-4.573-.025.958.958,0,0,1-.711-1.154.959.959,0,0,1,1.154-.711,8.8,8.8,0,0,0,3.471.063,2.5,2.5,0,0,1-1.3-2.058,2.627,2.627,0,0,1,1.66-2.578,3.346,3.346,0,0,1,.722-.208,3.27,3.27,0,0,1-.231-.639,2.54,2.54,0,0,1,1.149-2.838,2.574,2.574,0,0,1,1.737-.336,2.8,2.8,0,0,1,1.314.6c.916.74,1.655,2.229,1.652,4.729h5.459a3.3,3.3,0,0,0,.234.74,3.3,3.3,0,0,0-2.416,1.18h-3.322a.947.947,0,0,1-.361-.072,9.931,9.931,0,0,1-3.806,4.4A13.4,13.4,0,0,1-591.88,280.711Zm8-11.367a2.623,2.623,0,0,0,.986,1.339,9.471,9.471,0,0,1,1.045.415,3.35,3.35,0,0,0-.906-2.393,1.006,1.006,0,0,0-.11-.079.718.718,0,0,0-.752-.037A.667.667,0,0,0-583.883,269.343Zm-1.562,4.342a2.15,2.15,0,0,0,1.114-.059,5.756,5.756,0,0,0,1.412-.656,9.447,9.447,0,0,1-.848-.561,4.51,4.51,0,0,0-.564-.123,2.176,2.176,0,0,0-1.155.107.747.747,0,0,0-.5.706A.665.665,0,0,0-585.445,273.685Zm67.022.966h-10q.991,1.106,1.892,2.265c4.2,5.39,8.116,13.182,8.116,20.153a23.246,23.246,0,0,1-2.073,9.588,25.232,25.232,0,0,1-5.1,7.382l.247,0c11.264,0,20.395-8.105,20.395-18.1C-504.937,288.964-510.895,278.868-518.423,274.651Zm-2.036,22.418c0,12.991-11.864,23.522-26.5,23.522s-26.5-10.531-26.5-23.522c0-9.065,7.741-22.181,17.523-27.66h17.955C-528.2,274.889-520.459,288.005-520.459,297.07Zm-16.946-3.439-5.424.024,0,3.422a4.839,4.839,0,0,1-4.833,4.843h-.005a4.843,4.843,0,0,1-4.838-4.843v-.37a4.838,4.838,0,0,1,4.838-4.838h3.08v-5.59h-2.837a10.7,10.7,0,0,0-10.71,10.691v.7a10.419,10.419,0,0,0,10.666,10.166h.034c5.537,0,10.025-3.954,10.025-9.491Zm-10.36.17a3.149,3.149,0,0,0-3.149,3.149v.24a3.149,3.149,0,0,0,3.149,3.147,3.149,3.149,0,0,0,3.149-3.149V293.8Zm10.366-7.528h-.026V279.81s-5.363-.8-5.363,4.018l-.036,7.708v.326l5.425-.013Zm-38.11,10.8c0-6.191,3.088-13.029,6.72-18.257a16.412,16.412,0,0,1-4.534.517c-.381-.012-.761-.037-1.138-.079a3.3,3.3,0,0,1-2.915-3.64,3.276,3.276,0,0,1,.256-.96h-1.428c-7.529,4.217-13.486,14.312-13.486,21.288,0,10,9.131,18.1,20.395,18.1a23.022,23.022,0,0,0,3.1-.208,25.185,25.185,0,0,1-4.894-7.177A23.24,23.24,0,0,1-575.509,297.07Z" transform="translate(593.488 -256.592)" fill="url(#linear-gradient)"/>
</svg>
