<svg xmlns="http://www.w3.org/2000/svg" xmlns:xlink="http://www.w3.org/1999/xlink" width="40.67" height="61.408" viewBox="0 0 40.67 61.408">
  <defs>
    <linearGradient id="linear-gradient" x1="1" y1="0.5" x2="0" y2="0.5" gradientUnits="objectBoundingBox">
      <stop offset="0" stop-color="#532ddc"/>
      <stop offset="1" stop-color="#dd466b"/>
    </linearGradient>
  </defs>
  <path id="Path_7262" data-name="Path 7262" d="M40.621,19.1V0C27.016,0,26.484,3.252,26.484,11.777V19.1H21a21,21,0,0,0-21,21v1.367c.387,11.3,9.228,19.947,21,19.947h0c10.865,0,19.673-7.758,19.673-18.623V19.1ZM23.59,39.2l2.955-.013V41.76a5.22,5.22,0,0,1-5.462,5.17,5.676,5.676,0,0,1-5.829-5.538v-.38a5.829,5.829,0,0,1,5.829-5.829h1.546V38.02l0,.208H20.952a2.638,2.638,0,0,0-2.638,2.638v.2a2.638,2.638,0,0,0,2.638,2.638h0a2.638,2.638,0,0,0,2.638-2.638Zm2.955-4.02v3.038l-2.955.007h0V38.05l.019-4.2c0-2.624,2.922-2.189,2.922-2.189v3.521Zm-7.361,5.787V40.84A1.715,1.715,0,0,1,20.9,39.125h1.715v1.846A1.715,1.715,0,0,1,20.9,42.686h0A1.715,1.715,0,0,1,19.184,40.971Z" transform="translate(0)" fill="url(#linear-gradient)"/>
</svg>
