<svg
    id="Group_5167"
    data-name="Group 5167"
    xmlns="http://www.w3.org/2000/svg"
    xmlns:xlink="http://www.w3.org/1999/xlink"
    width="40.67"
    height="74.968"
    viewBox="0 0 40.67 74.968"
  >
    <defs>
      <linearGradient
        id="linear-gradient"
        x1="1"
        y1="0.5"
        x2="0"
        y2="0.5"
        gradientUnits="objectBoundingBox"
      >
        <stop offset="0" stop-color="#532ddc" />
        <stop offset="1" stop-color="#dd466b" />
      </linearGradient>
    </defs>
    <path
      id="Path_7262"
      data-name="Path 7262"
      d="M40.621,19.1V0C27.016,0,26.484,3.252,26.484,11.777V19.1H21a21,21,0,0,0-21,21v1.367c.387,11.3,9.228,19.947,21,19.947h0c10.865,0,19.673-7.758,19.673-18.623V19.1ZM23.59,39.2l2.955-.013V41.76a5.22,5.22,0,0,1-5.462,5.17,5.676,5.676,0,0,1-5.829-5.538v-.38a5.829,5.829,0,0,1,5.829-5.829h1.546V38.02l0,.208H20.952a2.638,2.638,0,0,0-2.638,2.638v.2a2.638,2.638,0,0,0,2.638,2.638h0a2.638,2.638,0,0,0,2.638-2.638Zm2.955-4.02v3.038l-2.955.007h0V38.05l.019-4.2c0-2.624,2.922-2.189,2.922-2.189v3.521Zm-7.361,5.787V40.84A1.715,1.715,0,0,1,20.9,39.125h1.715v1.846A1.715,1.715,0,0,1,20.9,42.686h0A1.715,1.715,0,0,1,19.184,40.971Z"
      transform="translate(0)"
      fill="url(#linear-gradient)"
    />
    <path
      id="Path_7263"
      data-name="Path 7263"
      d="M104.795,1292.992v3.5a4.69,4.69,0,1,0,0,8.018v.681h2.386v-12.2Zm-2.445,9.633a2.205,2.205,0,1,1,2.205-2.2A2.2,2.2,0,0,1,102.35,1302.625Z"
      transform="translate(-92.93 -1230.232)"
      fill="#464646"
    />
    <path
      id="Path_7264"
      data-name="Path 7264"
      d="M524.957,1346.341v1.2a4.536,4.536,0,1,0,0,7.755v.649h2.38v-9.608ZM522.6,1353.5a2.075,2.075,0,1,1,2.075-2.075A2.075,2.075,0,0,1,522.6,1353.5Z"
      transform="translate(-492.92 -1280.992)"
      fill="#464646"
    />
    <path
      id="Path_7265"
      data-name="Path 7265"
      d="M311.689,1355.2a2.56,2.56,0,0,0,.536,1.6,1.748,1.748,0,0,0,1.384.546,2.2,2.2,0,0,0,.607-.083,1.989,1.989,0,0,0,.518-.227,1.6,1.6,0,0,0,.387-.337,1.052,1.052,0,0,0,.213-.408H318a4.936,4.936,0,0,1-.677,1.371,3.727,3.727,0,0,1-.972.938,4.056,4.056,0,0,1-1.259.541,6.38,6.38,0,0,1-1.536.174,5.765,5.765,0,0,1-1.993-.326,4.221,4.221,0,0,1-1.518-.939,4.132,4.132,0,0,1-.966-1.484,5.408,5.408,0,0,1-.338-1.969,5.073,5.073,0,0,1,.354-1.929,4.331,4.331,0,0,1,.988-1.488,4.426,4.426,0,0,1,1.521-.96,5.4,5.4,0,0,1,1.954-.341,4.964,4.964,0,0,1,1.463.2,4.293,4.293,0,0,1,1.189.567,4.121,4.121,0,0,1,.911.859,4.642,4.642,0,0,1,.631,1.088,5.415,5.415,0,0,1,.344,1.253,6.351,6.351,0,0,1,.058,1.35Zm3.645-1.548a2.915,2.915,0,0,0-.18-.7,1.806,1.806,0,0,0-.36-.573,1.641,1.641,0,0,0-.555-.384,1.9,1.9,0,0,0-.753-.14,1.733,1.733,0,0,0-.832.183,1.681,1.681,0,0,0-.546.454,1.875,1.875,0,0,0-.3.585,2.569,2.569,0,0,0-.116.576Z"
      transform="translate(-293.759 -1284.354)"
      fill="#464646"
    />
    <path
      id="Path_7266"
      data-name="Path 7266"
      d="M726.6,1302.742v-9.75h-2.4v10.891a1.324,1.324,0,0,0,1.34,1.307h2.278C726.814,1305.152,726.631,1303.562,726.6,1302.742Z"
      transform="translate(-689.051 -1230.232)"
      fill="#464646"
    />
  </svg>