<svg xmlns="http://www.w3.org/2000/svg" width="32.667" height="22.591" viewBox="0 0 32.667 22.591">
  <g id="Group_7434" data-name="Group 7434" transform="translate(-275.925 -233.707)">
    <path id="Path_8521" data-name="Path 8521" d="M313.4,256.783a5.4,5.4,0,1,0-5.954,0,8.643,8.643,0,0,0-5.659,8.1h1.439a7.2,7.2,0,0,1,14.394,0h1.439A8.643,8.643,0,0,0,313.4,256.783Zm-6.935-4.5a3.958,3.958,0,1,1,3.958,3.958A3.963,3.963,0,0,1,306.462,252.285Z" transform="translate(-18.162 -9.081)" fill="#000" stroke="#000" stroke-width="1"/>
    <path id="Path_8522" data-name="Path 8522" d="M348.833,244.1a5.392,5.392,0,1,0-7.62-7.237,6.857,6.857,0,0,1,1.272.674,3.983,3.983,0,0,1,.966-1.072,3.951,3.951,0,1,1,2.4,7.1c-.127,0-.253-.007-.377-.019a6.8,6.8,0,0,1-.242,1.5c.206-.018.409-.044.62-.044a7.241,7.241,0,0,1,7.2,7.2h1.439A8.643,8.643,0,0,0,348.833,244.1Z" transform="translate(-46.401)" fill="#000" stroke="#000" stroke-width="1"/>
    <path id="Path_8523" data-name="Path 8523" d="M285.061,245c.211,0,.414.026.62.044a6.8,6.8,0,0,1-.242-1.5c-.124.012-.25.019-.377.019a3.956,3.956,0,1,1,3.371-6.023,6.864,6.864,0,0,1,1.272-.674,5.393,5.393,0,1,0-7.62,7.237,8.643,8.643,0,0,0-5.659,8.1h1.439a7.241,7.241,0,0,1,7.2-7.2Z" fill="#000" stroke="#000" stroke-width="1"/>
  </g>
</svg>
