<svg xmlns="http://www.w3.org/2000/svg" width="26.827" height="26.711" viewBox="0 0 26.827 26.711">
  <g id="Group_5175" data-name="Group 5175" transform="translate(0.255 0.25)">
    <path id="Path_7787" data-name="Path 7787" d="M-380.15,359.112a5.608,5.608,0,0,0-2.316-.5,5.72,5.72,0,0,0-2.849.775A5.656,5.656,0,0,0-388,365.321a5.61,5.61,0,0,0,3.216,4.056,5.574,5.574,0,0,0,2.314.5,5.7,5.7,0,0,0,2.849-.776,5.65,5.65,0,0,0,2.682-5.935A5.614,5.614,0,0,0-380.15,359.112Zm-.3,8.544a4.052,4.052,0,0,1-2.017.549,3.92,3.92,0,0,1-1.624-.353,3.957,3.957,0,0,1-2.26-2.861,3.957,3.957,0,0,1,1.877-4.156,4.035,4.035,0,0,1,2.014-.549,3.926,3.926,0,0,1,1.626.353,3.952,3.952,0,0,1,2.261,2.861A3.959,3.959,0,0,1-380.454,367.655Z" transform="translate(395.624 -351.439)" fill="#000" stroke="#000" stroke-width="0.5"/>
    <path id="Path_7788" data-name="Path 7788" d="M-370.835,365.1a1.722,1.722,0,0,0-.967-.909l-1.261-.51a10.623,10.623,0,0,0-.114-2.183l1.1-.47a1.728,1.728,0,0,0,.931-.954,1.728,1.728,0,0,0-.017-1.332l-.95-2.222a1.743,1.743,0,0,0-1.6-1.056,1.7,1.7,0,0,0-.677.138l-1.258.5a12.442,12.442,0,0,0-1.585-1.524l.457-1.074a1.746,1.746,0,0,0-.922-2.284l-2.224-.947a1.71,1.71,0,0,0-.677-.138,1.745,1.745,0,0,0-1.606,1.052l-.562,1.236c-.368-.036-.74-.053-1.13-.053q-.528,0-1.07.042l-.411-1.088a1.757,1.757,0,0,0-1.632-1.123,1.7,1.7,0,0,0-.612.113l-2.263.853a1.744,1.744,0,0,0-1.015,2.239l.449,1.288a11.947,11.947,0,0,0-2.05,2.1l-1.172-.479a1.742,1.742,0,0,0-.659-.129,1.744,1.744,0,0,0-.675.136,1.727,1.727,0,0,0-.936.947l-.914,2.237a1.73,1.73,0,0,0,0,1.333,1.732,1.732,0,0,0,.942.937l1.4.607a11.408,11.408,0,0,0,.262,3.293l-1.031.55a1.735,1.735,0,0,0-.846,1.032,1.73,1.73,0,0,0,.132,1.326l1.138,2.133a1.743,1.743,0,0,0,1.54.92,1.733,1.733,0,0,0,.811-.2l1.215-.612a12.739,12.739,0,0,0,1.708,1.387l-.361,1.1a1.729,1.729,0,0,0,.1,1.329,1.729,1.729,0,0,0,1.012.869l2.3.751a1.737,1.737,0,0,0,.542.086,1.739,1.739,0,0,0,1.654-1.194l.454-1.282h.137a12.54,12.54,0,0,0,2.056-.18l.5,1.048a1.734,1.734,0,0,0,.992.891,1.744,1.744,0,0,0,.579.1,1.728,1.728,0,0,0,.753-.174l2.178-1.046a1.722,1.722,0,0,0,.89-.993,1.72,1.72,0,0,0-.07-1.326l-.561-1.243a12.739,12.739,0,0,0,1.456-1.646l1.1.411a1.739,1.739,0,0,0,.613.112,1.724,1.724,0,0,0,.719-.156,1.724,1.724,0,0,0,.909-.974l.852-2.264A1.723,1.723,0,0,0-370.835,365.1Zm-2.156,3.09a.3.3,0,0,1-.157.167.281.281,0,0,1-.12.026.312.312,0,0,1-.107-.019l-1.275-.479a1.239,1.239,0,0,0-.429-.078,1.246,1.246,0,0,0-1.025.546,9.355,9.355,0,0,1-1.435,1.655,1.219,1.219,0,0,0-.287,1.444l.651,1.358a.294.294,0,0,1,.014.227.3.3,0,0,1-.156.173l-2.179,1.046a.291.291,0,0,1-.128.03.3.3,0,0,1-.1-.018.3.3,0,0,1-.17-.152l-.586-1.22a1.234,1.234,0,0,0-1.113-.694,1.286,1.286,0,0,0-.26.027,9.289,9.289,0,0,1-1.923.2l-.3,0a1.228,1.228,0,0,0-1.171.847l-.466,1.427a.3.3,0,0,1-.283.207.312.312,0,0,1-.1-.015l-2.3-.752a.292.292,0,0,1-.174-.15.3.3,0,0,1-.018-.228l.421-1.286a1.231,1.231,0,0,0-.529-1.433,9.283,9.283,0,0,1-1.714-1.366,1.231,1.231,0,0,0-.882-.372,1.246,1.246,0,0,0-.578.145l-1.325.708a.3.3,0,0,1-.14.036.3.3,0,0,1-.266-.16l-1.139-2.134a.3.3,0,0,1-.022-.227.3.3,0,0,1,.146-.177l1.206-.643a1.239,1.239,0,0,0,.6-1.4,9.215,9.215,0,0,1-.27-3.127,1.229,1.229,0,0,0-.759-1.253l-1.541-.63a.287.287,0,0,1-.161-.16.3.3,0,0,1,0-.228l.914-2.238a.291.291,0,0,1,.162-.162.279.279,0,0,1,.117-.025.305.305,0,0,1,.113.022l1.354.554a1.229,1.229,0,0,0,.463.09,1.253,1.253,0,0,0,1.014-.53,9.24,9.24,0,0,1,1.954-2.032,1.221,1.221,0,0,0,.414-1.419l-.53-1.409a.3.3,0,0,1,.174-.387l2.26-.853a.291.291,0,0,1,.1-.019.3.3,0,0,1,.284.193l.478,1.264a1.236,1.236,0,0,0,1.152.794,1.233,1.233,0,0,0,.159-.01,9.229,9.229,0,0,1,1.128-.069,9.531,9.531,0,0,1,1.063.061,1.307,1.307,0,0,0,.152.008,1.208,1.208,0,0,0,1.128-.746l.585-1.378a.3.3,0,0,1,.28-.183.309.309,0,0,1,.114.023l2.223.947a.3.3,0,0,1,.159.393l-.53,1.247a1.232,1.232,0,0,0,.405,1.476,9.194,9.194,0,0,1,1.593,1.5,1.234,1.234,0,0,0,.951.453,1.208,1.208,0,0,0,.483-.1l1.376-.588a.3.3,0,0,1,.117-.024.3.3,0,0,1,.277.181l.95,2.222a.3.3,0,0,1,0,.228.3.3,0,0,1-.16.164l-1.251.535a1.235,1.235,0,0,0-.728,1.346,9.322,9.322,0,0,1,.111,2.182,1.227,1.227,0,0,0,.79,1.248l1.409.529a.3.3,0,0,1,.174.385Z" transform="translate(396.993 -350.134)" fill="#000" stroke="#000" stroke-width="0.5"/>
  </g>
</svg>
