<svg xmlns="http://www.w3.org/2000/svg" xmlns:xlink="http://www.w3.org/1999/xlink" width="36.82" height="36.82" viewBox="0 0 36.82 36.82">
  <defs>
    <linearGradient id="linear-gradient" x1="0.5" y1="0.958" x2="0.5" y2="-0.042" gradientUnits="objectBoundingBox">
      <stop offset="0" stop-color="#c99b14"/>
      <stop offset="0.214" stop-color="#b78817"/>
      <stop offset="0.222" stop-color="#b98b1b"/>
      <stop offset="0.34" stop-color="#d6b64e"/>
      <stop offset="0.442" stop-color="#ebd673"/>
      <stop offset="0.524" stop-color="#f8e98a"/>
      <stop offset="0.576" stop-color="#fdf193"/>
      <stop offset="0.578" stop-color="#f9ea8a"/>
      <stop offset="0.589" stop-color="#ecd56a"/>
      <stop offset="0.601" stop-color="#e1c34f"/>
      <stop offset="0.615" stop-color="#d8b439"/>
      <stop offset="0.63" stop-color="#d1a828"/>
      <stop offset="0.65" stop-color="#cca01c"/>
      <stop offset="0.678" stop-color="#c99c15"/>
      <stop offset="0.754" stop-color="#c99b14"/>
      <stop offset="0.757" stop-color="#c69814"/>
      <stop offset="0.791" stop-color="#af7d15"/>
      <stop offset="0.828" stop-color="#9d6915"/>
      <stop offset="0.869" stop-color="#905b16"/>
      <stop offset="0.919" stop-color="#895216"/>
      <stop offset="1" stop-color="#875017"/>
    </linearGradient>
    <linearGradient id="linear-gradient-2" x1="0.5" y1="0.958" x2="0.5" y2="-0.042" gradientUnits="objectBoundingBox">
      <stop offset="0" stop-color="#875017"/>
      <stop offset="0.081" stop-color="#895216"/>
      <stop offset="0.131" stop-color="#905b16"/>
      <stop offset="0.172" stop-color="#9d6915"/>
      <stop offset="0.209" stop-color="#af7d15"/>
      <stop offset="0.243" stop-color="#c69814"/>
      <stop offset="0.246" stop-color="#c99b14"/>
      <stop offset="0.322" stop-color="#c99c15"/>
      <stop offset="0.35" stop-color="#cca01c"/>
      <stop offset="0.37" stop-color="#d1a828"/>
      <stop offset="0.385" stop-color="#d8b439"/>
      <stop offset="0.399" stop-color="#e1c34f"/>
      <stop offset="0.411" stop-color="#ecd56a"/>
      <stop offset="0.422" stop-color="#f9ea8a"/>
      <stop offset="0.424" stop-color="#fdf193"/>
      <stop offset="0.476" stop-color="#f8e98a"/>
      <stop offset="0.558" stop-color="#ebd673"/>
      <stop offset="0.66" stop-color="#d6b64e"/>
      <stop offset="0.778" stop-color="#b98b1b"/>
      <stop offset="0.786" stop-color="#b78817"/>
      <stop offset="1" stop-color="#c99b14"/>
    </linearGradient>
    <linearGradient id="linear-gradient-3" x1="0.5" y1="0.976" x2="0.5" y2="0.028" gradientUnits="objectBoundingBox">
      <stop offset="0" stop-color="#c99b14"/>
      <stop offset="0.037" stop-color="#cfa523"/>
      <stop offset="0.11" stop-color="#dfc04b"/>
      <stop offset="0.21" stop-color="#faec8c"/>
      <stop offset="0.22" stop-color="#fdf193"/>
      <stop offset="0.251" stop-color="#f9eb8b"/>
      <stop offset="0.299" stop-color="#f1dd76"/>
      <stop offset="0.357" stop-color="#e3c654"/>
      <stop offset="0.423" stop-color="#d0a625"/>
      <stop offset="0.444" stop-color="#c99b14"/>
      <stop offset="0.61" stop-color="#ecd66b"/>
      <stop offset="0.693" stop-color="#fdf193"/>
      <stop offset="0.906" stop-color="#b78817"/>
      <stop offset="1" stop-color="#c99b14"/>
    </linearGradient>
    <linearGradient id="linear-gradient-4" x1="-1.093" y1="-1.82" x2="-1.093" y2="-2.82" gradientUnits="objectBoundingBox">
      <stop offset="0" stop-color="#875017"/>
      <stop offset="0.107" stop-color="#9d6917"/>
      <stop offset="0.248" stop-color="#b78817"/>
      <stop offset="0.668" stop-color="#fdf193"/>
      <stop offset="0.743" stop-color="#fbee8f"/>
      <stop offset="0.801" stop-color="#f7e886"/>
      <stop offset="0.853" stop-color="#f1dd75"/>
      <stop offset="0.901" stop-color="#e7cd5e"/>
      <stop offset="0.947" stop-color="#dbb941"/>
      <stop offset="0.99" stop-color="#cca11c"/>
      <stop offset="1" stop-color="#c99b14"/>
    </linearGradient>
    <linearGradient id="linear-gradient-5" x1="0.5" y1="0.958" x2="0.5" y2="-0.042" xlink:href="#linear-gradient-4"/>
  </defs>
  <g id="Group_7200" data-name="Group 7200" transform="translate(-0.001 0.001)">
    <circle id="Ellipse_2396" data-name="Ellipse 2396" cx="13.018" cy="13.018" r="13.018" transform="translate(0.001 18.409) rotate(-45)" fill="url(#linear-gradient)"/>
    <circle id="Ellipse_2397" data-name="Ellipse 2397" cx="12.541" cy="12.541" r="12.541" transform="translate(0.674 18.409) rotate(-45)" fill="url(#linear-gradient-2)"/>
    <g id="Group_6175" data-name="Group 6175" transform="translate(4.162 4.16)">
      <circle id="Ellipse_2398" data-name="Ellipse 2398" cx="10.075" cy="10.075" r="10.075" transform="translate(0 14.249) rotate(-45)" fill="url(#linear-gradient-3)"/>
      <circle id="Ellipse_2399" data-name="Ellipse 2399" cx="9.873" cy="9.873" r="9.873" transform="translate(0.287 14.249) rotate(-45)" fill="url(#linear-gradient-4)"/>
      <ellipse id="Ellipse_2400" data-name="Ellipse 2400" cx="8.788" cy="8.788" rx="8.788" ry="8.788" transform="translate(5.461 5.461)" fill="url(#linear-gradient-5)"/>
    </g>
    <g id="Group_6178" data-name="Group 6178" transform="translate(6.319 6.304)">
      <g id="Group_6176" data-name="Group 6176" transform="translate(0 0)" opacity="0.9" style="mix-blend-mode: multiply;isolation: isolate">
        <path id="Path_7981" data-name="Path 7981" d="M335.5,849.339l-.322-.1a.653.653,0,0,1-.392-.312.619.619,0,0,1-.062-.5.653.653,0,0,1,.32-.4.64.64,0,0,1,.51-.058l.319.093q.107.031.12.082a.241.241,0,0,1-.012.118l-.282.971a.506.506,0,0,1-.021.06.146.146,0,0,1-.03.041Q335.616,849.371,335.5,849.339Zm-.295-1.037a.318.318,0,0,0-.169.205.328.328,0,0,0,.03.265.336.336,0,0,0,.2.162l.168.049.192-.66-.169-.049A.34.34,0,0,0,335.209,848.3Z" transform="translate(-326.409 -825.499)" fill="#875017"/>
        <path id="Path_7982" data-name="Path 7982" d="M288.438,828.185l-.517-.215a.516.516,0,0,1-.057-.027.144.144,0,0,1-.038-.034q-.036-.043.009-.15t.119-.112a.31.31,0,0,1,.091.026l.665.277c.078.032.115.073.111.121a.286.286,0,0,1-.025.09l-.388.933a.177.177,0,0,1-.08.1.191.191,0,0,1-.134-.019l-.661-.275a.5.5,0,0,1-.057-.027.145.145,0,0,1-.038-.034q-.036-.042.009-.15t.119-.112a.3.3,0,0,1,.092.026l.515.214.071-.169-.332-.138a.562.562,0,0,1-.057-.026.147.147,0,0,1-.038-.035c-.024-.028-.021-.078.009-.15s.073-.115.121-.111a.308.308,0,0,1,.091.026l.329.137Z" transform="translate(-280.433 -805.767)" fill="#875017"/>
        <path id="Path_7983" data-name="Path 7983" d="M255.438,805.8l.067-1.125a.236.236,0,0,1,.018-.1q.032-.057.15-.052a.24.24,0,0,1,.1.02.1.1,0,0,1,.043.043.108.108,0,0,1,.012.046c0,.014,0,.034,0,.061l-.013.218.439.246.178-.125.05-.032a.13.13,0,0,1,.045-.013.094.094,0,0,1,.059.013.239.239,0,0,1,.07.074q.067.1.035.153a.239.239,0,0,1-.072.066l-.924.647a.167.167,0,0,1-.174.009A.154.154,0,0,1,255.438,805.8Zm.342-.309.226-.159-.211-.118Z" transform="translate(-249.329 -783.28)" fill="#875017"/>
        <path id="Path_7984" data-name="Path 7984" d="M223.438,782.407l-.4-.288a.208.208,0,0,1-.063-.062.069.069,0,0,1,0-.056.332.332,0,0,1,.09-.126.063.063,0,0,1,.048-.015.205.205,0,0,1,.087.04l.532.381q.1.074.081.143a.285.285,0,0,1-.045.082l-.588.822a.532.532,0,0,1-.039.049.144.144,0,0,1-.042.029q-.049.025-.144-.043t-.084-.143a.362.362,0,0,1,.048-.082Z" transform="translate(-217.651 -761.24)" fill="#875017"/>
        <path id="Path_7985" data-name="Path 7985" d="M139.657,714.913a.239.239,0,1,1,.335.042A.211.211,0,0,1,139.657,714.913Z" transform="translate(-136.675 -695.749)" fill="#875017"/>
        <path id="Path_7986" data-name="Path 7986" d="M60.648,597.924l-.116-.315a.653.653,0,0,1,.015-.5.619.619,0,0,1,.367-.351.652.652,0,0,1,.514.016.64.64,0,0,1,.352.374l.117.312q.039.1.006.145a.242.242,0,0,1-.1.061l-.946.355a.541.541,0,0,1-.061.02.151.151,0,0,1-.05,0Q60.689,598.033,60.648,597.924Zm.654-.857a.318.318,0,0,0-.266-.013.328.328,0,0,0-.195.183.336.336,0,0,0-.008.26l.061.164.643-.241-.062-.165A.34.34,0,0,0,61.3,597.067Z" transform="translate(-59.749 -581.191)" fill="#875017"/>
        <path id="Path_7987" data-name="Path 7987" d="M43.993,551.744l-.137-.543a.53.53,0,0,1-.013-.062.144.144,0,0,1,0-.051c.008-.036.05-.064.125-.082s.136-.011.161.029a.3.3,0,0,1,.034.089l.176.7q.031.123-.03.161a.277.277,0,0,1-.087.033l-.98.248a.175.175,0,0,1-.131,0,.19.19,0,0,1-.065-.119l-.175-.694a.528.528,0,0,1-.013-.061.146.146,0,0,1,0-.051q.013-.054.125-.082t.161.029a.3.3,0,0,1,.034.089l.137.541.178-.045-.088-.349a.529.529,0,0,1-.013-.062.145.145,0,0,1,0-.051q.013-.054.125-.082t.161.031a.3.3,0,0,1,.034.089l.087.345Z" transform="translate(-42.608 -536.734)" fill="#875017"/>
        <path id="Path_7988" data-name="Path 7988" d="M37.139,501.708l.941-.62a.236.236,0,0,1,.088-.043q.065-.009.131.089a.239.239,0,0,1,.043.092.1.1,0,0,1-.009.06.108.108,0,0,1-.03.037l-.05.035-.182.12.066.5.207.068.056.021a.13.13,0,0,1,.038.028.094.094,0,0,1,.025.055.239.239,0,0,1-.018.1q-.037.111-.1.12a.237.237,0,0,1-.1-.018L37.176,502a.159.159,0,0,1-.075-.051.161.161,0,0,1-.037-.082A.154.154,0,0,1,37.139,501.708Zm.452.089.263.086-.032-.24Z" transform="translate(-36.968 -488.159)" fill="#875017"/>
        <path id="Path_7989" data-name="Path 7989" d="M34.693,464.163l-.011-.494a.207.207,0,0,1,.012-.088.069.069,0,0,1,.042-.037.266.266,0,0,1,.077-.011.26.26,0,0,1,.077.007.063.063,0,0,1,.041.03.2.2,0,0,1,.02.094l.014.654q0,.127-.066.15a.282.282,0,0,1-.092.013l-1.01.021a.526.526,0,0,1-.063,0,.145.145,0,0,1-.049-.016q-.05-.024-.052-.141t.064-.152a.363.363,0,0,1,.094-.011Z" transform="translate(-33.633 -451.68)" fill="#875017"/>
        <path id="Path_7990" data-name="Path 7990" d="M68.74,354.9a.239.239,0,1,1,.167.294A.211.211,0,0,1,68.74,354.9Z" transform="translate(-67.76 -345.866)" fill="#875017"/>
        <path id="Path_7991" data-name="Path 7991" d="M93.2,227.05l.183-.282a.653.653,0,0,1,.41-.287.619.619,0,0,1,.5.084.653.653,0,0,1,.294.421.64.64,0,0,1-.089.505l-.18.28q-.06.093-.113.092a.241.241,0,0,1-.11-.045l-.85-.546a.525.525,0,0,1-.052-.037.147.147,0,0,1-.03-.04Q93.136,227.148,93.2,227.05Zm1.078.012a.319.319,0,0,0-.149-.221.328.328,0,0,0-.263-.047.336.336,0,0,0-.214.149l-.094.147.578.371.1-.148A.34.34,0,0,0,94.276,227.062Z" transform="translate(-91.515 -221.137)" fill="#875017"/>
        <path id="Path_7992" data-name="Path 7992" d="M122.222,183.964l.352-.435a.507.507,0,0,1,.042-.047.145.145,0,0,1,.044-.027q.051-.022.141.051t.073.146a.3.3,0,0,1-.051.08l-.453.559q-.08.1-.147.072a.285.285,0,0,1-.079-.05l-.785-.636a.176.176,0,0,1-.076-.106.19.19,0,0,1,.056-.123l.451-.556a.538.538,0,0,1,.042-.047.147.147,0,0,1,.044-.027q.051-.022.141.051t.073.146a.3.3,0,0,1-.051.08l-.351.434.143.116.227-.28a.529.529,0,0,1,.042-.047.147.147,0,0,1,.044-.027q.051-.022.141.051t.072.148a.3.3,0,0,1-.051.08l-.224.277Z" transform="translate(-118.868 -178.692)" fill="#875017"/>
        <path id="Path_7993" data-name="Path 7993" d="M163.706,157.108l1.06.381a.238.238,0,0,1,.087.045q.046.047.007.158a.239.239,0,0,1-.048.09.1.1,0,0,1-.053.029.107.107,0,0,1-.048,0l-.058-.019-.2-.074-.36.352.07.206c.008.026.014.045.017.057a.13.13,0,0,1,0,.047.094.094,0,0,1-.029.053.238.238,0,0,1-.091.046q-.111.038-.157-.009a.238.238,0,0,1-.043-.088l-.36-1.069a.159.159,0,0,1,0-.091.161.161,0,0,1,.044-.079A.154.154,0,0,1,163.706,157.108Zm.2.415.089.262.173-.169Z" transform="translate(-159.911 -153.683)" fill="#875017"/>
        <path id="Path_7994" data-name="Path 7994" d="M191.262,132.179l.389-.3a.207.207,0,0,1,.077-.043.069.069,0,0,1,.055.011.332.332,0,0,1,.1.122.063.063,0,0,1,0,.051.2.2,0,0,1-.063.073l-.515.4q-.1.078-.16.038a.288.288,0,0,1-.066-.066l-.623-.8a.52.52,0,0,1-.037-.051.145.145,0,0,1-.016-.049q-.01-.054.081-.126t.16-.04a.365.365,0,0,1,.065.069Z" transform="translate(-186.081 -128.682)" fill="#875017"/>
        <path id="Path_7995" data-name="Path 7995" d="M314.586,82.006a.239.239,0,1,1-.135.31A.211.211,0,0,1,314.586,82.006Z" transform="translate(-306.693 -80.637)" fill="#875017"/>
        <path id="Path_7996" data-name="Path 7996" d="M420.989,34.567l.336-.022a.652.652,0,0,1,.476.157.619.619,0,0,1,.233.452.653.653,0,0,1-.161.488.64.64,0,0,1-.458.231l-.332.024c-.074.005-.121-.007-.141-.036a.241.241,0,0,1-.03-.114l-.072-1.008a.532.532,0,0,1,0-.064.142.142,0,0,1,.014-.048Q420.873,34.576,420.989,34.567Zm.636.87a.319.319,0,0,0,.088-.251.329.329,0,0,0-.12-.238.336.336,0,0,0-.247-.082l-.174.012.049.685.176-.013A.34.34,0,0,0,421.625,35.438Z" transform="translate(-410.173 -34.505)" fill="#875017"/>
        <path id="Path_7997" data-name="Path 7997" d="M469.8,34.161l.559.021a.531.531,0,0,1,.063.005.146.146,0,0,1,.048.019q.048.027.044.144t-.073.146a.3.3,0,0,1-.095.007l-.719-.027c-.085,0-.134-.028-.146-.075a.29.29,0,0,1-.007-.093l.038-1.01a.176.176,0,0,1,.039-.125.19.19,0,0,1,.132-.029l.716.027a.529.529,0,0,1,.063.005.146.146,0,0,1,.048.019q.048.027.044.144c0,.085-.028.134-.073.146a.3.3,0,0,1-.095.007l-.558-.021-.007.183.36.014a.531.531,0,0,1,.063.005.146.146,0,0,1,.047.019q.048.027.044.144t-.075.146a.3.3,0,0,1-.095.007l-.356-.013Z" transform="translate(-457.464 -33.144)" fill="#875017"/>
        <path id="Path_7998" data-name="Path 7998" d="M510.24,38.482l.331,1.077a.238.238,0,0,1,.016.1q-.01.065-.122.1a.238.238,0,0,1-.1.016.1.1,0,0,1-.055-.025.108.108,0,0,1-.027-.039c0-.013-.011-.032-.02-.058l-.064-.208-.5-.077-.123.18q-.023.033-.036.048a.131.131,0,0,1-.037.028.093.093,0,0,1-.06.008.239.239,0,0,1-.091-.045q-.1-.066-.087-.131a.237.237,0,0,1,.045-.087l.639-.93a.159.159,0,0,1,.07-.057.161.161,0,0,1,.089-.012A.154.154,0,0,1,510.24,38.482Zm-.212.409-.156.228.239.037Z" transform="translate(-496.167 -38.221)" fill="#875017"/>
        <path id="Path_7999" data-name="Path 7999" d="M560.28,46.3l.477.129a.207.207,0,0,1,.081.036.067.067,0,0,1,.024.051.254.254,0,0,1-.011.077.272.272,0,0,1-.029.072.063.063,0,0,1-.04.03.2.2,0,0,1-.1-.007l-.632-.171q-.123-.033-.126-.106a.284.284,0,0,1,.014-.092l.264-.976a.492.492,0,0,1,.019-.06.142.142,0,0,1,.029-.042q.037-.041.15-.01t.128.1a.35.35,0,0,1-.016.094Z" transform="translate(-545.433 -44.89)" fill="#875017"/>
        <path id="Path_8000" data-name="Path 8000" d="M680.2,115.491a.239.239,0,1,1-.329.077A.211.211,0,0,1,680.2,115.491Z" transform="translate(-662.023 -113.176)" fill="#875017"/>
        <path id="Path_8001" data-name="Path 8001" d="M757.4,171.009l.219.255a.653.653,0,0,1,.16.475.619.619,0,0,1-.222.457.653.653,0,0,1-.487.164.64.64,0,0,1-.46-.228l-.218-.251q-.073-.084-.056-.134a.241.241,0,0,1,.074-.093l.763-.662a.533.533,0,0,1,.05-.04.147.147,0,0,1,.047-.018Q757.327,170.921,757.4,171.009Zm-.315,1.031a.319.319,0,0,0,.254-.081.328.328,0,0,0,.119-.239.336.336,0,0,0-.083-.247l-.114-.132-.519.45.116.133A.34.34,0,0,0,757.089,172.04Z" transform="translate(-736.433 -167.138)" fill="#875017"/>
        <path id="Path_8002" data-name="Path 8002" d="M786.173,210.483l.318.461a.523.523,0,0,1,.033.053.143.143,0,0,1,.013.049q.007.055-.089.121t-.161.029a.31.31,0,0,1-.063-.072l-.409-.592q-.072-.1-.028-.162a.285.285,0,0,1,.07-.062l.832-.575a.175.175,0,0,1,.123-.043.189.189,0,0,1,.1.089l.407.589a.559.559,0,0,1,.034.053.149.149,0,0,1,.013.049q.007.055-.089.121t-.161.029a.307.307,0,0,1-.063-.072l-.317-.459-.151.1.2.3a.5.5,0,0,1,.033.053.143.143,0,0,1,.013.049q.007.055-.089.121c-.07.048-.124.058-.162.028a.3.3,0,0,1-.063-.072l-.2-.293Z" transform="translate(-765.057 -204.827)" fill="#875017"/>
        <path id="Path_8003" data-name="Path 8003" d="M810.28,263.574l-.665.91a.237.237,0,0,1-.067.071q-.058.031-.154-.038a.239.239,0,0,1-.073-.071.1.1,0,0,1-.013-.059.109.109,0,0,1,.015-.045l.035-.051.129-.176-.237-.444-.218.009h-.06a.128.128,0,0,1-.045-.013.093.093,0,0,1-.043-.043.238.238,0,0,1-.018-.1q0-.117.053-.148a.236.236,0,0,1,.1-.016l1.128-.044a.158.158,0,0,1,.088.022.16.16,0,0,1,.063.064A.154.154,0,0,1,810.28,263.574Zm-.454.075-.276.011.114.213Z" transform="translate(-787.516 -256.976)" fill="#875017"/>
        <path id="Path_8004" data-name="Path 8004" d="M831.8,297.162l.182.46a.208.208,0,0,1,.02.086.069.069,0,0,1-.026.05.331.331,0,0,1-.144.057.063.063,0,0,1-.048-.014.207.207,0,0,1-.052-.081l-.241-.608q-.047-.118.009-.164a.287.287,0,0,1,.082-.044l.94-.372a.5.5,0,0,1,.059-.021.142.142,0,0,1,.051,0c.037,0,.069.042.1.114s.029.134-.007.165a.363.363,0,0,1-.085.043Z" transform="translate(-809.495 -289.253)" fill="#875017"/>
        <path id="Path_8005" data-name="Path 8005" d="M855.372,341.387a.239.239,0,1,1-.3-.157A.211.211,0,0,1,855.372,341.387Z" transform="translate(-832.28 -332.729)" fill="#875017"/>
        <path id="Path_8006" data-name="Path 8006" d="M864.821,450.277l0,.336a.652.652,0,0,1-.182.467.619.619,0,0,1-.464.207.653.653,0,0,1-.479-.188.64.64,0,0,1-.206-.47l-.005-.333q0-.111.043-.139a.242.242,0,0,1,.116-.024l1.01-.016a.542.542,0,0,1,.064,0,.146.146,0,0,1,.047.017C864.8,450.153,864.82,450.2,864.821,450.277Zm-.9.587a.319.319,0,0,0,.246.1.328.328,0,0,0,.245-.107.336.336,0,0,0,.1-.242l0-.174-.687.011,0,.176A.34.34,0,0,0,863.917,450.865Z" transform="translate(-840.634 -438.635)" fill="#875017"/>
        <path id="Path_8007" data-name="Path 8007" d="M860.275,497.148l-.059.557a.532.532,0,0,1-.009.062.146.146,0,0,1-.022.046q-.031.046-.146.034c-.084-.009-.131-.036-.141-.083a.3.3,0,0,1,0-.1l.076-.716q.013-.127.084-.141a.289.289,0,0,1,.093,0l1.005.107a.175.175,0,0,1,.122.048.19.19,0,0,1,.019.134l-.076.712a.539.539,0,0,1-.009.062.146.146,0,0,1-.022.046q-.031.046-.146.034c-.085-.009-.131-.037-.141-.083a.3.3,0,0,1,0-.1l.059-.555-.182-.019-.038.358a.511.511,0,0,1-.009.062.148.148,0,0,1-.022.046c-.02.031-.069.042-.146.034s-.131-.037-.141-.085a.3.3,0,0,1,0-.1l.038-.354Z" transform="translate(-837.137 -484.039)" fill="#875017"/>
        <path id="Path_8008" data-name="Path 8008" d="M850.931,537.439l-1.1.255a.237.237,0,0,1-.1.01q-.064-.014-.092-.129a.243.243,0,0,1-.009-.1.1.1,0,0,1,.029-.053.108.108,0,0,1,.041-.024l.06-.016.212-.049.111-.491-.171-.135-.045-.039a.126.126,0,0,1-.026-.039.092.092,0,0,1,0-.06.237.237,0,0,1,.052-.088c.049-.061.094-.087.137-.077a.236.236,0,0,1,.084.05l.883.7a.159.159,0,0,1,.052.074.162.162,0,0,1,.006.09A.154.154,0,0,1,850.931,537.439Zm-.393-.24-.217-.172-.053.236Z" transform="translate(-827.16 -522.54)" fill="#875017"/>
        <path id="Path_8009" data-name="Path 8009" d="M837.836,586.618l-.162.467a.2.2,0,0,1-.042.078.068.068,0,0,1-.052.02.331.331,0,0,1-.146-.051.062.062,0,0,1-.028-.042.2.2,0,0,1,.014-.1l.214-.618q.042-.12.114-.118a.29.29,0,0,1,.091.02l.955.331a.553.553,0,0,1,.059.023.144.144,0,0,1,.04.032q.038.04,0,.15c-.028.08-.065.12-.113.121a.367.367,0,0,1-.092-.022Z" transform="translate(-815.269 -571.026)" fill="#875017"/>
        <path id="Path_8010" data-name="Path 8010" d="M796.274,703.683a.239.239,0,1,1-.054-.334A.211.211,0,0,1,796.274,703.683Z" transform="translate(-774.836 -684.835)" fill="#875017"/>
        <path id="Path_8011" data-name="Path 8011" d="M701.67,775.5l-.269.2a.653.653,0,0,1-.484.127.619.619,0,0,1-.441-.253.652.652,0,0,1-.13-.5.641.641,0,0,1,.259-.443l.266-.2q.089-.067.138-.047a.241.241,0,0,1,.087.08l.608.807a.532.532,0,0,1,.036.052.144.144,0,0,1,.015.048Q701.763,775.433,701.67,775.5Zm-1.007-.385a.319.319,0,0,0,.063.259.329.329,0,0,0,.23.135.336.336,0,0,0,.252-.066l.139-.1-.414-.549-.141.106A.341.341,0,0,0,700.663,775.118Z" transform="translate(-681.977 -753.972)" fill="#875017"/>
        <path id="Path_8012" data-name="Path 8012" d="M657.58,801.749l-.481.286a.538.538,0,0,1-.055.03.144.144,0,0,1-.05.01q-.055,0-.115-.1t-.018-.162a.308.308,0,0,1,.076-.058l.619-.367c.073-.043.127-.049.164-.017a.293.293,0,0,1,.057.074l.516.869a.176.176,0,0,1,.035.126q-.012.046-.1.1l-.616.366a.553.553,0,0,1-.055.03.144.144,0,0,1-.05.01c-.037,0-.075-.03-.115-.1s-.049-.127-.018-.163a.3.3,0,0,1,.076-.057l.48-.285-.094-.158-.309.184a.624.624,0,0,1-.055.03.15.15,0,0,1-.05.01c-.037,0-.075-.03-.115-.1s-.049-.128-.017-.164a.3.3,0,0,1,.076-.058l.306-.182Z" transform="translate(-639.677 -780.196)" fill="#875017"/>
        <path id="Path_8013" data-name="Path 8013" d="M612.386,823.4l-.862-.726a.238.238,0,0,1-.066-.072c-.018-.04,0-.09.048-.151a.237.237,0,0,1,.076-.068.1.1,0,0,1,.06-.009.106.106,0,0,1,.044.018l.048.038.166.141.46-.205.006-.218c0-.027,0-.047,0-.059a.129.129,0,0,1,.016-.044.094.094,0,0,1,.046-.04.243.243,0,0,1,.1-.011q.117,0,.144.063a.237.237,0,0,1,.01.1l-.034,1.128a.166.166,0,0,1-.1.145A.154.154,0,0,1,612.386,823.4Zm-.043-.458.008-.276-.221.1Z" transform="translate(-595.538 -800.273)" fill="#875017"/>
        <path id="Path_8014" data-name="Path 8014" d="M576.02,841.791l-.471.15a.21.21,0,0,1-.087.013.068.068,0,0,1-.048-.03.333.333,0,0,1-.047-.147.063.063,0,0,1,.017-.048.2.2,0,0,1,.084-.046l.624-.2c.081-.026.135-.019.163.021a.281.281,0,0,1,.039.085l.306.963a.558.558,0,0,1,.016.061.149.149,0,0,1,0,.051q-.009.054-.12.09c-.081.026-.135.02-.164-.018a.366.366,0,0,1-.037-.087Z" transform="translate(-560.447 -819.209)" fill="#875017"/>
        <path id="Path_8015" data-name="Path 8015" d="M471.257,874.176a.239.239,0,1,1,.235-.243A.211.211,0,0,1,471.257,874.176Z" transform="translate(-458.968 -850.549)" fill="#875017"/>
      </g>
      <g id="Group_6177" data-name="Group 6177" transform="translate(0 0.14)" style="mix-blend-mode: soft-light;isolation: isolate">
        <path id="Path_8016" data-name="Path 8016" d="M335.5,854.428l-.322-.1a.652.652,0,0,1-.392-.312.619.619,0,0,1-.062-.5.653.653,0,0,1,.32-.4.64.64,0,0,1,.51-.058l.319.093q.107.031.12.082a.24.24,0,0,1-.012.118l-.282.97a.5.5,0,0,1-.021.06.14.14,0,0,1-.03.04Q335.616,854.461,335.5,854.428Zm-.295-1.037a.318.318,0,0,0-.169.205.328.328,0,0,0,.03.265.335.335,0,0,0,.2.162l.168.049.192-.66-.169-.049A.34.34,0,0,0,335.209,853.391Z" transform="translate(-326.409 -830.589)" fill="#fdf193"/>
        <path id="Path_8017" data-name="Path 8017" d="M288.438,833.274l-.517-.215a.59.59,0,0,1-.057-.027.146.146,0,0,1-.038-.034q-.036-.043.009-.15t.119-.112a.31.31,0,0,1,.091.026l.665.276c.078.033.115.073.111.121a.285.285,0,0,1-.025.09l-.388.933a.176.176,0,0,1-.08.1.189.189,0,0,1-.134-.019l-.661-.275a.543.543,0,0,1-.057-.026.148.148,0,0,1-.038-.035q-.036-.042.009-.15t.119-.112a.3.3,0,0,1,.092.026l.515.214.071-.169-.332-.138a.613.613,0,0,1-.057-.027.151.151,0,0,1-.038-.034c-.024-.029-.021-.078.009-.15s.073-.115.121-.111a.306.306,0,0,1,.091.026l.329.137Z" transform="translate(-280.433 -810.856)" fill="#fdf193"/>
        <path id="Path_8018" data-name="Path 8018" d="M255.438,810.885l.067-1.125a.237.237,0,0,1,.018-.1q.032-.057.15-.052a.235.235,0,0,1,.1.021.1.1,0,0,1,.043.043.107.107,0,0,1,.012.046c0,.014,0,.034,0,.061l-.013.217.439.246.178-.125.05-.032a.13.13,0,0,1,.045-.013.092.092,0,0,1,.059.013.238.238,0,0,1,.07.074q.067.1.035.153a.236.236,0,0,1-.072.066l-.924.647a.161.161,0,0,1-.086.029.163.163,0,0,1-.088-.02A.154.154,0,0,1,255.438,810.885Zm.342-.309.226-.159-.211-.118Z" transform="translate(-249.329 -788.369)" fill="#fdf193"/>
        <path id="Path_8019" data-name="Path 8019" d="M223.438,787.5l-.4-.288a.208.208,0,0,1-.063-.062.069.069,0,0,1,0-.056.331.331,0,0,1,.09-.126.063.063,0,0,1,.048-.014.2.2,0,0,1,.087.04l.532.381c.069.049.1.1.081.143a.285.285,0,0,1-.045.082l-.588.822a.513.513,0,0,1-.039.049.143.143,0,0,1-.042.029c-.033.017-.081,0-.144-.042s-.1-.1-.084-.143a.365.365,0,0,1,.048-.082Z" transform="translate(-217.651 -766.331)" fill="#fdf193"/>
        <path id="Path_8020" data-name="Path 8020" d="M139.657,720a.239.239,0,1,1,.335.042A.211.211,0,0,1,139.657,720Z" transform="translate(-136.675 -700.839)" fill="#fdf193"/>
        <path id="Path_8021" data-name="Path 8021" d="M60.648,603.014l-.116-.315a.653.653,0,0,1,.015-.5.619.619,0,0,1,.367-.351.653.653,0,0,1,.514.016.64.64,0,0,1,.352.374l.117.311q.039.1.006.145a.243.243,0,0,1-.1.061l-.946.355a.529.529,0,0,1-.061.02.145.145,0,0,1-.05,0Q60.689,603.123,60.648,603.014Zm.654-.857a.319.319,0,0,0-.266-.013.328.328,0,0,0-.195.183.336.336,0,0,0-.008.26l.061.163.643-.241-.062-.165A.34.34,0,0,0,61.3,602.157Z" transform="translate(-59.749 -586.281)" fill="#fdf193"/>
        <path id="Path_8022" data-name="Path 8022" d="M43.993,556.833l-.137-.543a.525.525,0,0,1-.013-.061.146.146,0,0,1,0-.051q.013-.054.125-.082c.082-.021.136-.011.161.029a.3.3,0,0,1,.034.089l.176.7q.031.123-.03.161a.286.286,0,0,1-.087.033l-.98.248a.177.177,0,0,1-.131,0,.19.19,0,0,1-.065-.119l-.175-.694a.528.528,0,0,1-.013-.061.147.147,0,0,1,0-.051q.013-.054.125-.082t.161.029a.305.305,0,0,1,.034.089l.137.541.178-.045-.088-.349a.545.545,0,0,1-.013-.061.148.148,0,0,1,0-.051q.013-.054.125-.082t.161.03a.3.3,0,0,1,.034.089l.087.345Z" transform="translate(-42.608 -541.824)" fill="#fdf193"/>
        <path id="Path_8023" data-name="Path 8023" d="M37.139,506.8l.941-.62a.238.238,0,0,1,.088-.043q.065-.009.131.089a.239.239,0,0,1,.043.092.1.1,0,0,1-.009.06.109.109,0,0,1-.03.037l-.05.035-.182.119.066.5.207.068.056.021a.129.129,0,0,1,.038.028.094.094,0,0,1,.025.055.239.239,0,0,1-.018.1q-.037.111-.1.12a.238.238,0,0,1-.1-.018l-1.072-.353a.158.158,0,0,1-.075-.052.161.161,0,0,1-.037-.082A.154.154,0,0,1,37.139,506.8Zm.452.089.263.086-.032-.24Z" transform="translate(-36.968 -493.249)" fill="#fdf193"/>
        <path id="Path_8024" data-name="Path 8024" d="M34.693,469.252l-.011-.494a.206.206,0,0,1,.012-.087.07.07,0,0,1,.042-.037.332.332,0,0,1,.154,0,.063.063,0,0,1,.041.03.2.2,0,0,1,.02.094l.014.654q0,.127-.066.15a.283.283,0,0,1-.092.013l-1.01.022a.539.539,0,0,1-.063,0,.147.147,0,0,1-.049-.016q-.05-.024-.052-.141t.064-.152a.368.368,0,0,1,.094-.011Z" transform="translate(-33.633 -456.769)" fill="#fdf193"/>
        <path id="Path_8025" data-name="Path 8025" d="M68.74,359.993a.239.239,0,1,1,.167.294A.211.211,0,0,1,68.74,359.993Z" transform="translate(-67.76 -350.956)" fill="#fdf193"/>
        <path id="Path_8026" data-name="Path 8026" d="M93.2,232.14l.183-.282a.653.653,0,0,1,.41-.287.619.619,0,0,1,.5.084.653.653,0,0,1,.294.421.64.64,0,0,1-.089.505l-.18.28q-.06.093-.113.092a.242.242,0,0,1-.11-.045l-.85-.546a.524.524,0,0,1-.052-.037.147.147,0,0,1-.03-.04Q93.136,232.238,93.2,232.14Zm1.078.012a.318.318,0,0,0-.149-.221.328.328,0,0,0-.263-.047.336.336,0,0,0-.214.149l-.094.147.578.371.1-.148A.34.34,0,0,0,94.276,232.152Z" transform="translate(-91.515 -226.227)" fill="#fdf193"/>
        <path id="Path_8027" data-name="Path 8027" d="M122.222,189.054l.352-.435a.5.5,0,0,1,.042-.047.145.145,0,0,1,.044-.027q.051-.022.141.051t.073.146a.3.3,0,0,1-.051.08l-.453.559q-.08.1-.147.072a.286.286,0,0,1-.079-.05l-.785-.636a.176.176,0,0,1-.076-.106.19.19,0,0,1,.056-.123l.451-.556a.53.53,0,0,1,.042-.047.146.146,0,0,1,.044-.027q.051-.022.141.051t.073.146a.306.306,0,0,1-.051.08l-.351.434.143.116.227-.28a.535.535,0,0,1,.042-.047.146.146,0,0,1,.044-.027q.051-.022.141.051t.072.148a.3.3,0,0,1-.051.08l-.224.277Z" transform="translate(-118.868 -183.782)" fill="#fdf193"/>
        <path id="Path_8028" data-name="Path 8028" d="M163.706,162.2l1.06.381a.239.239,0,0,1,.087.045q.046.047.007.158a.238.238,0,0,1-.048.09.1.1,0,0,1-.053.029.108.108,0,0,1-.048,0l-.058-.019-.2-.074-.36.352.07.206q.012.039.017.057a.13.13,0,0,1,0,.047.094.094,0,0,1-.029.053.238.238,0,0,1-.091.046q-.111.037-.157-.009a.238.238,0,0,1-.043-.088l-.36-1.069a.159.159,0,0,1,0-.091.161.161,0,0,1,.044-.079A.154.154,0,0,1,163.706,162.2Zm.2.415.089.262.173-.169Z" transform="translate(-159.911 -158.773)" fill="#fdf193"/>
        <path id="Path_8029" data-name="Path 8029" d="M191.262,137.269l.389-.3a.207.207,0,0,1,.077-.043.069.069,0,0,1,.055.011.332.332,0,0,1,.1.122.063.063,0,0,1,0,.051.2.2,0,0,1-.063.073l-.515.4q-.1.079-.16.038a.287.287,0,0,1-.066-.066l-.623-.8a.521.521,0,0,1-.037-.051.145.145,0,0,1-.016-.049q-.01-.054.081-.126t.16-.04a.365.365,0,0,1,.065.069Z" transform="translate(-186.081 -133.772)" fill="#fdf193"/>
        <path id="Path_8030" data-name="Path 8030" d="M314.586,87.1a.239.239,0,1,1-.135.31A.211.211,0,0,1,314.586,87.1Z" transform="translate(-306.693 -85.726)" fill="#fdf193"/>
        <path id="Path_8031" data-name="Path 8031" d="M420.989,39.657l.336-.022a.652.652,0,0,1,.476.157.619.619,0,0,1,.233.452.653.653,0,0,1-.161.488.64.64,0,0,1-.458.231l-.332.024c-.074.005-.121-.007-.141-.036a.241.241,0,0,1-.03-.114l-.072-1.008a.531.531,0,0,1,0-.064.142.142,0,0,1,.014-.048Q420.873,39.665,420.989,39.657Zm.636.87a.319.319,0,0,0,.088-.251.329.329,0,0,0-.12-.238.336.336,0,0,0-.247-.082l-.174.012.049.685.176-.013A.34.34,0,0,0,421.625,40.527Z" transform="translate(-410.173 -39.595)" fill="#fdf193"/>
        <path id="Path_8032" data-name="Path 8032" d="M469.8,39.25l.559.021a.536.536,0,0,1,.063.005.146.146,0,0,1,.048.019q.048.027.044.144t-.073.146a.306.306,0,0,1-.095.007l-.719-.027c-.085,0-.134-.028-.146-.075a.29.29,0,0,1-.007-.093l.038-1.01a.176.176,0,0,1,.039-.125.19.19,0,0,1,.132-.029l.716.027a.54.54,0,0,1,.063.005.147.147,0,0,1,.048.019q.048.027.044.144c0,.085-.028.134-.073.146a.3.3,0,0,1-.095.007l-.558-.021-.007.183.36.014a.534.534,0,0,1,.063.005.145.145,0,0,1,.047.019q.048.027.044.144t-.075.146a.3.3,0,0,1-.095.007l-.356-.013Z" transform="translate(-457.464 -38.234)" fill="#fdf193"/>
        <path id="Path_8033" data-name="Path 8033" d="M510.24,43.572l.331,1.077a.238.238,0,0,1,.016.1q-.01.065-.122.1a.238.238,0,0,1-.1.016.1.1,0,0,1-.055-.025.108.108,0,0,1-.027-.039c0-.013-.011-.032-.02-.058l-.064-.208-.5-.076-.123.18q-.023.033-.036.048a.131.131,0,0,1-.037.028.093.093,0,0,1-.06.008.239.239,0,0,1-.091-.045q-.1-.066-.087-.131a.238.238,0,0,1,.045-.087l.639-.93a.159.159,0,0,1,.07-.057.161.161,0,0,1,.089-.012A.154.154,0,0,1,510.24,43.572Zm-.212.409-.156.228.239.037Z" transform="translate(-496.167 -43.311)" fill="#fdf193"/>
        <path id="Path_8034" data-name="Path 8034" d="M560.28,51.394l.477.129a.207.207,0,0,1,.081.036.067.067,0,0,1,.024.051.254.254,0,0,1-.011.077.272.272,0,0,1-.029.072.063.063,0,0,1-.04.03.2.2,0,0,1-.1-.007l-.632-.171q-.123-.033-.126-.106a.284.284,0,0,1,.014-.092l.264-.976a.49.49,0,0,1,.019-.06.141.141,0,0,1,.029-.042q.037-.041.15-.01t.128.1a.35.35,0,0,1-.016.094Z" transform="translate(-545.433 -49.98)" fill="#fdf193"/>
        <path id="Path_8035" data-name="Path 8035" d="M680.2,120.58a.239.239,0,1,1-.329.077A.211.211,0,0,1,680.2,120.58Z" transform="translate(-662.023 -118.265)" fill="#fdf193"/>
        <path id="Path_8036" data-name="Path 8036" d="M757.4,176.1l.219.255a.653.653,0,0,1,.16.475.619.619,0,0,1-.222.457.653.653,0,0,1-.487.164.64.64,0,0,1-.46-.228l-.218-.251q-.073-.084-.056-.134a.241.241,0,0,1,.074-.093l.763-.662a.542.542,0,0,1,.05-.04.147.147,0,0,1,.047-.018Q757.327,176.01,757.4,176.1Zm-.315,1.031a.319.319,0,0,0,.254-.081.328.328,0,0,0,.119-.239.336.336,0,0,0-.083-.247l-.114-.132-.519.45.116.133A.34.34,0,0,0,757.089,177.129Z" transform="translate(-736.433 -172.227)" fill="#fdf193"/>
        <path id="Path_8037" data-name="Path 8037" d="M786.173,215.572l.318.461a.516.516,0,0,1,.033.053.143.143,0,0,1,.013.049q.007.055-.089.121t-.161.029a.309.309,0,0,1-.063-.072l-.409-.592q-.072-.1-.028-.162a.285.285,0,0,1,.07-.062l.832-.575a.176.176,0,0,1,.123-.043.189.189,0,0,1,.1.089l.407.589a.564.564,0,0,1,.034.053.149.149,0,0,1,.013.049q.007.055-.089.121t-.161.029a.307.307,0,0,1-.063-.072l-.317-.459-.151.1.2.3a.5.5,0,0,1,.033.053.144.144,0,0,1,.013.049q.007.055-.089.121c-.07.048-.124.058-.162.028a.3.3,0,0,1-.063-.072l-.2-.293Z" transform="translate(-765.057 -209.917)" fill="#fdf193"/>
        <path id="Path_8038" data-name="Path 8038" d="M810.28,268.664l-.665.91a.238.238,0,0,1-.067.071q-.058.031-.154-.038a.239.239,0,0,1-.073-.071.1.1,0,0,1-.013-.059.109.109,0,0,1,.015-.045l.035-.051.129-.176-.237-.444-.218.009h-.06a.13.13,0,0,1-.045-.013.094.094,0,0,1-.043-.043.238.238,0,0,1-.018-.1q0-.117.053-.148a.236.236,0,0,1,.1-.016l1.128-.044a.167.167,0,0,1,.151.086A.154.154,0,0,1,810.28,268.664Zm-.454.075-.276.011.114.213Z" transform="translate(-787.516 -262.065)" fill="#fdf193"/>
        <path id="Path_8039" data-name="Path 8039" d="M831.8,302.251l.182.46a.208.208,0,0,1,.02.086.069.069,0,0,1-.026.049.328.328,0,0,1-.144.057.063.063,0,0,1-.048-.014.206.206,0,0,1-.052-.081l-.241-.608q-.047-.118.009-.164a.284.284,0,0,1,.082-.044l.94-.373a.5.5,0,0,1,.059-.021.144.144,0,0,1,.051,0c.037,0,.069.042.1.114s.029.134-.007.165a.362.362,0,0,1-.085.043Z" transform="translate(-809.495 -294.342)" fill="#fdf193"/>
        <path id="Path_8040" data-name="Path 8040" d="M855.372,346.477a.239.239,0,1,1-.3-.157A.211.211,0,0,1,855.372,346.477Z" transform="translate(-832.28 -337.819)" fill="#fdf193"/>
        <path id="Path_8041" data-name="Path 8041" d="M864.821,455.367l0,.336a.652.652,0,0,1-.182.466.618.618,0,0,1-.464.207.652.652,0,0,1-.479-.188.64.64,0,0,1-.206-.47l-.005-.333q0-.111.043-.139a.242.242,0,0,1,.116-.024l1.01-.016a.542.542,0,0,1,.064,0,.145.145,0,0,1,.047.017C864.8,455.242,864.82,455.29,864.821,455.367Zm-.9.587a.319.319,0,0,0,.246.1.328.328,0,0,0,.245-.107.336.336,0,0,0,.1-.242l0-.174-.687.011,0,.176A.341.341,0,0,0,863.917,455.954Z" transform="translate(-840.634 -443.724)" fill="#fdf193"/>
        <path id="Path_8042" data-name="Path 8042" d="M860.275,502.238l-.059.557a.541.541,0,0,1-.009.062.148.148,0,0,1-.022.046c-.02.031-.069.042-.146.034s-.131-.037-.141-.083a.3.3,0,0,1,0-.1l.076-.716q.013-.127.084-.141a.285.285,0,0,1,.093,0l1.005.107a.176.176,0,0,1,.122.048.19.19,0,0,1,.019.134l-.076.712a.535.535,0,0,1-.009.062.146.146,0,0,1-.022.046q-.031.046-.146.034c-.085-.009-.131-.036-.141-.083a.3.3,0,0,1,0-.1l.059-.555-.182-.02-.038.358a.514.514,0,0,1-.009.062.15.15,0,0,1-.022.046q-.031.046-.146.034t-.141-.084a.3.3,0,0,1,0-.1l.038-.354Z" transform="translate(-837.137 -489.129)" fill="#fdf193"/>
        <path id="Path_8043" data-name="Path 8043" d="M850.931,542.529l-1.1.255a.241.241,0,0,1-.1.01q-.064-.014-.092-.129a.242.242,0,0,1-.009-.1.1.1,0,0,1,.029-.053.11.11,0,0,1,.041-.024l.06-.016.212-.049.111-.491-.171-.135-.045-.039a.129.129,0,0,1-.026-.039.093.093,0,0,1,0-.061.238.238,0,0,1,.052-.088c.049-.061.094-.087.137-.077a.238.238,0,0,1,.084.051l.883.7a.157.157,0,0,1,.052.074.162.162,0,0,1,.006.09A.154.154,0,0,1,850.931,542.529Zm-.393-.24-.217-.172-.053.236Z" transform="translate(-827.16 -527.629)" fill="#fdf193"/>
        <path id="Path_8044" data-name="Path 8044" d="M837.836,591.708l-.162.467a.2.2,0,0,1-.042.078.068.068,0,0,1-.052.02.331.331,0,0,1-.146-.051.062.062,0,0,1-.028-.042.2.2,0,0,1,.014-.1l.214-.618c.028-.08.066-.12.114-.118a.283.283,0,0,1,.091.02l.955.331a.523.523,0,0,1,.059.023.143.143,0,0,1,.04.032q.038.04,0,.15c-.028.08-.065.12-.113.121a.375.375,0,0,1-.092-.023Z" transform="translate(-815.269 -576.116)" fill="#fdf193"/>
        <path id="Path_8045" data-name="Path 8045" d="M796.274,708.773a.239.239,0,1,1-.054-.334A.211.211,0,0,1,796.274,708.773Z" transform="translate(-774.836 -689.924)" fill="#fdf193"/>
        <path id="Path_8046" data-name="Path 8046" d="M701.67,780.593l-.269.2a.653.653,0,0,1-.484.127.619.619,0,0,1-.441-.253.653.653,0,0,1-.13-.5.641.641,0,0,1,.259-.443l.266-.2q.089-.067.138-.047a.241.241,0,0,1,.087.08l.608.807a.564.564,0,0,1,.036.052.145.145,0,0,1,.015.048Q701.763,780.523,701.67,780.593Zm-1.007-.385a.319.319,0,0,0,.063.259.329.329,0,0,0,.23.135.335.335,0,0,0,.252-.066l.139-.1-.414-.549-.141.106A.341.341,0,0,0,700.663,780.208Z" transform="translate(-681.977 -759.063)" fill="#fdf193"/>
        <path id="Path_8047" data-name="Path 8047" d="M657.58,806.839l-.481.286a.578.578,0,0,1-.055.03.146.146,0,0,1-.05.01c-.037,0-.075-.03-.115-.1s-.049-.127-.018-.163a.3.3,0,0,1,.076-.058l.619-.367q.11-.065.164-.017a.289.289,0,0,1,.057.074l.516.869a.176.176,0,0,1,.035.126q-.012.047-.1.1l-.616.365a.506.506,0,0,1-.055.03.144.144,0,0,1-.05.01q-.055,0-.115-.1t-.018-.162a.3.3,0,0,1,.076-.058l.48-.285-.094-.158-.309.184a.628.628,0,0,1-.055.03.155.155,0,0,1-.05.01c-.037,0-.075-.03-.115-.1s-.049-.127-.017-.163a.3.3,0,0,1,.076-.058l.306-.182Z" transform="translate(-639.677 -785.286)" fill="#fdf193"/>
        <path id="Path_8048" data-name="Path 8048" d="M612.386,828.495l-.862-.726a.241.241,0,0,1-.066-.072c-.018-.04,0-.09.048-.151a.241.241,0,0,1,.076-.068.1.1,0,0,1,.06-.009.106.106,0,0,1,.044.018l.048.038.166.141.46-.205.006-.218c0-.027,0-.047,0-.06a.13.13,0,0,1,.016-.044.094.094,0,0,1,.046-.04.237.237,0,0,1,.1-.011q.117,0,.144.063a.237.237,0,0,1,.01.1l-.034,1.128a.167.167,0,0,1-.1.145A.154.154,0,0,1,612.386,828.495Zm-.043-.458.008-.276-.221.1Z" transform="translate(-595.538 -805.363)" fill="#fdf193"/>
        <path id="Path_8049" data-name="Path 8049" d="M576.02,846.881l-.471.15a.205.205,0,0,1-.087.013.068.068,0,0,1-.048-.03.259.259,0,0,1-.032-.071.264.264,0,0,1-.015-.076.063.063,0,0,1,.017-.048.2.2,0,0,1,.084-.046l.624-.2q.121-.038.163.021a.282.282,0,0,1,.039.085l.306.963a.551.551,0,0,1,.016.061.148.148,0,0,1,0,.051q-.009.055-.12.09t-.164-.018a.366.366,0,0,1-.037-.087Z" transform="translate(-560.447 -824.299)" fill="#fdf193"/>
        <path id="Path_8050" data-name="Path 8050" d="M471.257,879.264a.239.239,0,1,1,.235-.243A.211.211,0,0,1,471.257,879.264Z" transform="translate(-458.968 -855.638)" fill="#fdf193"/>
      </g>
    </g>
    <g id="Group_6185" data-name="Group 6185" transform="translate(13.586 11.472)">
      <g id="Group_6181" data-name="Group 6181" transform="translate(0.391 0)">
        <g id="Group_6180" data-name="Group 6180">
          <path id="Path_8051" data-name="Path 8051" d="M425.1,441.607h0a1.347,1.347,0,0,0,1.347-1.347v-1.45H425.1a1.347,1.347,0,0,0-1.347,1.347v.1A1.347,1.347,0,0,0,425.1,441.607Z" transform="translate(-420.663 -432.807)" fill="#ebd673"/>
          <g id="Group_6179" data-name="Group 6179">
            <path id="Path_8052" data-name="Path 8052" d="M318.252,326.568a2.071,2.071,0,0,1-2.072,2.071h0a2.072,2.072,0,0,1-2.072-2.071v-.158a2.072,2.072,0,0,1,2.072-2.071H317.5l0-.163v-2.227h-1.214a4.577,4.577,0,0,0-4.577,4.577v.3a4.456,4.456,0,0,0,4.577,4.348,4.1,4.1,0,0,0,4.288-4.059v-2.017l-2.32.01Z" transform="translate(-311.707 -319.162)" fill="#ebd673"/>
            <path id="Path_8053" data-name="Path 8053" d="M551.666,223.579v-2.765s-2.294-.342-2.294,1.718l-.015,3.3v.14h0l2.32-.005v-2.385Z" transform="translate(-542.812 -220.794)" fill="#ebd673"/>
          </g>
        </g>
      </g>
      <g id="Group_6184" data-name="Group 6184" transform="translate(0 0)">
        <g id="Group_6183" data-name="Group 6183">
          <path id="Path_8054" data-name="Path 8054" d="M410.894,441.607h0a1.347,1.347,0,0,0,1.347-1.347v-1.45h-1.347a1.347,1.347,0,0,0-1.347,1.347v.1A1.347,1.347,0,0,0,410.894,441.607Z" transform="translate(-406.461 -432.807)" fill="#ba8b1d"/>
          <g id="Group_6182" data-name="Group 6182">
            <path id="Path_8055" data-name="Path 8055" d="M304.049,326.568a2.071,2.071,0,0,1-2.072,2.071h0a2.071,2.071,0,0,1-2.071-2.071v-.158a2.071,2.071,0,0,1,2.071-2.071H303.3l0-.163v-2.227h-1.214a4.577,4.577,0,0,0-4.577,4.577v.3a4.456,4.456,0,0,0,4.577,4.348,4.1,4.1,0,0,0,4.288-4.059v-2.017l-2.32.01Z" transform="translate(-297.504 -319.162)" fill="#ba8b1d"/>
            <path id="Path_8056" data-name="Path 8056" d="M537.463,223.579v-2.765s-2.294-.342-2.294,1.718l-.015,3.3v.14h0l2.32-.005v-2.385Z" transform="translate(-528.609 -220.794)" fill="#ba8b1d"/>
          </g>
        </g>
      </g>
      <path id="Path_8057" data-name="Path 8057" d="M409.938,440.261v-.1a1.347,1.347,0,0,1,1.347-1.347h-.391a1.347,1.347,0,0,0-1.347,1.347v.1a1.347,1.347,0,0,0,1.347,1.347h0a1.358,1.358,0,0,0,.2-.014A1.347,1.347,0,0,1,409.938,440.261Z" transform="translate(-406.461 -432.807)" fill="#8f5919" opacity="0.81"/>
      <path id="Path_8058" data-name="Path 8058" d="M297.9,326.823v-.3a4.577,4.577,0,0,1,4.577-4.577h-.391a4.577,4.577,0,0,0-4.577,4.577v.3a4.456,4.456,0,0,0,4.577,4.348c.065,0,.13,0,.194,0A4.447,4.447,0,0,1,297.9,326.823Z" transform="translate(-297.504 -319.162)" fill="#8f5919" opacity="0.81"/>
      <path id="Path_8059" data-name="Path 8059" d="M469.307,437.663V436.2l1.929-.009v0l-2.32.01v1.463a2.071,2.071,0,0,1-1.876,2.062c.064.006.13.009.2.009A2.071,2.071,0,0,0,469.307,437.663Z" transform="translate(-462.371 -430.257)" fill="#8f5919" opacity="0.81"/>
      <path id="Path_8060" data-name="Path 8060" d="M535.56,222.534A1.646,1.646,0,0,1,537.3,220.8a1.769,1.769,0,0,0-2.134,1.734l-.015,3.3v.14h.391v-.139Z" transform="translate(-528.609 -220.794)" fill="#8f5919" opacity="0.81"/>
    </g>
  </g>
</svg>
