<svg xmlns="http://www.w3.org/2000/svg" xmlns:xlink="http://www.w3.org/1999/xlink" width="42.316" height="28.016" viewBox="0 0 42.316 28.016">
  <defs>
    <linearGradient id="linear-gradient" x1="0.5" y1="0.958" x2="0.5" y2="-0.042" gradientUnits="objectBoundingBox">
      <stop offset="0" stop-color="#c99b14"/>
      <stop offset="0.214" stop-color="#b78817"/>
      <stop offset="0.222" stop-color="#b98b1b"/>
      <stop offset="0.34" stop-color="#d6b64e"/>
      <stop offset="0.442" stop-color="#ebd673"/>
      <stop offset="0.524" stop-color="#f8e98a"/>
      <stop offset="0.576" stop-color="#fdf193"/>
      <stop offset="0.578" stop-color="#f9ea8a"/>
      <stop offset="0.589" stop-color="#ecd56a"/>
      <stop offset="0.601" stop-color="#e1c34f"/>
      <stop offset="0.615" stop-color="#d8b439"/>
      <stop offset="0.63" stop-color="#d1a828"/>
      <stop offset="0.65" stop-color="#cca01c"/>
      <stop offset="0.678" stop-color="#c99c15"/>
      <stop offset="0.754" stop-color="#c99b14"/>
      <stop offset="0.757" stop-color="#c69814"/>
      <stop offset="0.791" stop-color="#af7d15"/>
      <stop offset="0.828" stop-color="#9d6915"/>
      <stop offset="0.869" stop-color="#905b16"/>
      <stop offset="0.919" stop-color="#895216"/>
      <stop offset="1" stop-color="#875017"/>
    </linearGradient>
    <linearGradient id="linear-gradient-2" x1="0.5" y1="0.958" x2="0.5" y2="-0.042" gradientUnits="objectBoundingBox">
      <stop offset="0" stop-color="#875017"/>
      <stop offset="0.081" stop-color="#895216"/>
      <stop offset="0.131" stop-color="#905b16"/>
      <stop offset="0.172" stop-color="#9d6915"/>
      <stop offset="0.209" stop-color="#af7d15"/>
      <stop offset="0.243" stop-color="#c69814"/>
      <stop offset="0.246" stop-color="#c99b14"/>
      <stop offset="0.322" stop-color="#c99c15"/>
      <stop offset="0.35" stop-color="#cca01c"/>
      <stop offset="0.37" stop-color="#d1a828"/>
      <stop offset="0.385" stop-color="#d8b439"/>
      <stop offset="0.399" stop-color="#e1c34f"/>
      <stop offset="0.411" stop-color="#ecd56a"/>
      <stop offset="0.422" stop-color="#f9ea8a"/>
      <stop offset="0.424" stop-color="#fdf193"/>
      <stop offset="0.476" stop-color="#f8e98a"/>
      <stop offset="0.558" stop-color="#ebd673"/>
      <stop offset="0.66" stop-color="#d6b64e"/>
      <stop offset="0.778" stop-color="#b98b1b"/>
      <stop offset="0.786" stop-color="#b78817"/>
      <stop offset="1" stop-color="#c99b14"/>
    </linearGradient>
    <linearGradient id="linear-gradient-3" x1="0.5" y1="0.976" x2="0.5" y2="0.028" gradientUnits="objectBoundingBox">
      <stop offset="0" stop-color="#c99b14"/>
      <stop offset="0.037" stop-color="#cfa523"/>
      <stop offset="0.11" stop-color="#dfc04b"/>
      <stop offset="0.21" stop-color="#faec8c"/>
      <stop offset="0.22" stop-color="#fdf193"/>
      <stop offset="0.251" stop-color="#f9eb8b"/>
      <stop offset="0.299" stop-color="#f1dd76"/>
      <stop offset="0.357" stop-color="#e3c654"/>
      <stop offset="0.423" stop-color="#d0a625"/>
      <stop offset="0.444" stop-color="#c99b14"/>
      <stop offset="0.61" stop-color="#ecd66b"/>
      <stop offset="0.693" stop-color="#fdf193"/>
      <stop offset="0.906" stop-color="#b78817"/>
      <stop offset="1" stop-color="#c99b14"/>
    </linearGradient>
    <linearGradient id="linear-gradient-4" x1="-1.093" y1="-1.82" x2="-1.093" y2="-2.82" gradientUnits="objectBoundingBox">
      <stop offset="0" stop-color="#875017"/>
      <stop offset="0.107" stop-color="#9d6917"/>
      <stop offset="0.248" stop-color="#b78817"/>
      <stop offset="0.668" stop-color="#fdf193"/>
      <stop offset="0.743" stop-color="#fbee8f"/>
      <stop offset="0.801" stop-color="#f7e886"/>
      <stop offset="0.853" stop-color="#f1dd75"/>
      <stop offset="0.901" stop-color="#e7cd5e"/>
      <stop offset="0.947" stop-color="#dbb941"/>
      <stop offset="0.99" stop-color="#cca11c"/>
      <stop offset="1" stop-color="#c99b14"/>
    </linearGradient>
    <linearGradient id="linear-gradient-5" x1="0.5" y1="0.958" x2="0.5" y2="-0.042" xlink:href="#linear-gradient-4"/>
  </defs>
  <g id="Group_7199" data-name="Group 7199" transform="translate(0 0)">
    <g id="Group_7142" data-name="Group 7142" transform="translate(14.301 0)">
      <circle id="Ellipse_2396" data-name="Ellipse 2396" cx="9.905" cy="9.905" r="9.905" transform="translate(0 14.008) rotate(-45)" fill="url(#linear-gradient)"/>
      <circle id="Ellipse_2397" data-name="Ellipse 2397" cx="9.543" cy="9.543" r="9.543" transform="translate(0.513 14.008) rotate(-45)" fill="url(#linear-gradient-2)"/>
      <g id="Group_6175" data-name="Group 6175" transform="translate(3.166 3.166)">
        <circle id="Ellipse_2398" data-name="Ellipse 2398" cx="7.666" cy="7.666" r="7.666" transform="translate(0 10.842) rotate(-45)" fill="url(#linear-gradient-3)"/>
        <circle id="Ellipse_2399" data-name="Ellipse 2399" cx="7.512" cy="7.512" r="7.512" transform="translate(0.218 10.842) rotate(-45)" fill="url(#linear-gradient-4)"/>
        <ellipse id="Ellipse_2400" data-name="Ellipse 2400" cx="6.686" cy="6.686" rx="6.686" ry="6.686" transform="translate(4.155 4.155)" fill="url(#linear-gradient-5)"/>
      </g>
      <g id="Group_6178" data-name="Group 6178" transform="translate(4.808 4.797)">
        <g id="Group_6176" data-name="Group 6176" transform="translate(0 0)" opacity="0.9" style="mix-blend-mode: multiply;isolation: isolate">
          <path id="Path_7981" data-name="Path 7981" d="M335.312,849l-.245-.073a.5.5,0,0,1-.3-.237.471.471,0,0,1-.047-.384.5.5,0,0,1,.244-.306.488.488,0,0,1,.388-.044l.243.071q.081.024.091.063a.182.182,0,0,1-.009.09l-.215.738a.384.384,0,0,1-.016.046.11.11,0,0,1-.023.031C335.406,849.018,335.368,849.02,335.312,849Zm-.224-.789a.242.242,0,0,0-.129.156.25.25,0,0,0,.023.2.256.256,0,0,0,.155.124l.128.037.146-.5-.129-.037A.259.259,0,0,0,335.087,848.215Z" transform="translate(-328.391 -830.865)" fill="#875017"/>
          <path id="Path_7982" data-name="Path 7982" d="M288.195,828.057l-.393-.164-.043-.02a.11.11,0,0,1-.029-.026q-.027-.032.007-.114t.091-.085a.232.232,0,0,1,.07.02l.506.211q.089.037.084.092a.217.217,0,0,1-.019.068l-.3.71a.133.133,0,0,1-.061.079.144.144,0,0,1-.1-.015l-.5-.209-.043-.02a.111.111,0,0,1-.029-.026q-.027-.032.007-.114c.025-.06.055-.088.091-.085a.227.227,0,0,1,.07.02l.392.163.054-.129-.253-.105-.043-.02a.115.115,0,0,1-.029-.026q-.027-.032.007-.114t.092-.085a.228.228,0,0,1,.07.02l.25.1Z" transform="translate(-282.104 -810.999)" fill="#875017"/>
          <path id="Path_7983" data-name="Path 7983" d="M255.438,805.492l.051-.856a.18.18,0,0,1,.014-.073q.024-.044.114-.039a.185.185,0,0,1,.076.016.075.075,0,0,1,.033.032.083.083,0,0,1,.009.035c0,.011,0,.026,0,.047l-.01.166.334.187.136-.1.038-.024a.094.094,0,0,1,.034-.01.07.07,0,0,1,.045.01.18.18,0,0,1,.053.057q.051.073.027.116a.179.179,0,0,1-.055.05l-.7.492a.122.122,0,0,1-.065.022.123.123,0,0,1-.067-.015A.117.117,0,0,1,255.438,805.492Zm.26-.235.172-.121-.16-.09Z" transform="translate(-250.79 -788.359)" fill="#875017"/>
          <path id="Path_7984" data-name="Path 7984" d="M223.3,782.276l-.306-.219a.158.158,0,0,1-.048-.047.052.052,0,0,1,0-.042.252.252,0,0,1,.068-.1.048.048,0,0,1,.037-.011.156.156,0,0,1,.067.031l.4.29q.079.056.062.109a.218.218,0,0,1-.034.062l-.448.625a.426.426,0,0,1-.029.038.109.109,0,0,1-.032.022q-.037.019-.109-.032t-.064-.109a.278.278,0,0,1,.036-.062Z" transform="translate(-218.897 -766.171)" fill="#875017"/>
          <path id="Path_7985" data-name="Path 7985" d="M139.642,714.818a.182.182,0,1,1,.255.032A.161.161,0,0,1,139.642,714.818Z" transform="translate(-137.373 -700.236)" fill="#875017"/>
          <path id="Path_7986" data-name="Path 7986" d="M60.61,597.634l-.089-.24a.5.5,0,0,1,.011-.381.471.471,0,0,1,.279-.267.5.5,0,0,1,.391.012.487.487,0,0,1,.268.284l.089.237q.03.079,0,.11a.185.185,0,0,1-.077.047l-.72.27-.046.015a.116.116,0,0,1-.038,0Q60.641,597.717,60.61,597.634Zm.5-.652a.242.242,0,0,0-.2-.01.25.25,0,0,0-.148.139.255.255,0,0,0-.006.2l.047.124.489-.184-.047-.126A.258.258,0,0,0,61.108,596.982Z" transform="translate(-59.926 -584.902)" fill="#875017"/>
          <path id="Path_7987" data-name="Path 7987" d="M43.723,551.565l-.1-.413a.4.4,0,0,1-.01-.047.11.11,0,0,1,0-.039q.01-.041.1-.063t.122.022a.229.229,0,0,1,.026.068l.134.531q.024.094-.023.123a.215.215,0,0,1-.066.025l-.746.188a.134.134,0,0,1-.1,0,.144.144,0,0,1-.049-.09l-.134-.528a.4.4,0,0,1-.01-.047.111.111,0,0,1,0-.039q.01-.041.1-.063t.122.022a.231.231,0,0,1,.026.068l.1.412.135-.034-.067-.266a.4.4,0,0,1-.01-.047.111.111,0,0,1,0-.039q.01-.041.1-.063t.123.023a.233.233,0,0,1,.026.068l.066.263Z" transform="translate(-42.669 -540.144)" fill="#875017"/>
          <path id="Path_7988" data-name="Path 7988" d="M37.121,501.55l.716-.471a.181.181,0,0,1,.067-.033q.049-.007.1.068a.181.181,0,0,1,.033.07.074.074,0,0,1-.007.045.082.082,0,0,1-.023.028l-.038.027-.139.091.05.38.158.052.043.016a.1.1,0,0,1,.029.021.072.072,0,0,1,.019.042.182.182,0,0,1-.014.076q-.028.085-.077.091a.181.181,0,0,1-.073-.014l-.815-.269a.12.12,0,0,1-.057-.039.123.123,0,0,1-.028-.063A.117.117,0,0,1,37.121,501.55Zm.344.068.2.066-.024-.182Z" transform="translate(-36.991 -491.24)" fill="#875017"/>
          <path id="Path_7989" data-name="Path 7989" d="M34.44,464.012l-.008-.376a.157.157,0,0,1,.009-.067.053.053,0,0,1,.032-.028.253.253,0,0,1,.118,0,.047.047,0,0,1,.031.023.156.156,0,0,1,.015.072l.011.5q0,.1-.05.115a.215.215,0,0,1-.07.01l-.769.016H33.71a.112.112,0,0,1-.037-.012q-.038-.019-.04-.107t.049-.116a.278.278,0,0,1,.072-.008Z" transform="translate(-33.633 -454.514)" fill="#875017"/>
          <path id="Path_7990" data-name="Path 7990" d="M68.737,354.86a.182.182,0,1,1,.127.224A.161.161,0,0,1,68.737,354.86Z" transform="translate(-67.991 -347.984)" fill="#875017"/>
          <path id="Path_7991" data-name="Path 7991" d="M93.188,226.909l.139-.215a.5.5,0,0,1,.312-.219.472.472,0,0,1,.381.064.5.5,0,0,1,.224.321.487.487,0,0,1-.068.385l-.137.213q-.046.071-.086.07a.184.184,0,0,1-.083-.034l-.647-.416a.4.4,0,0,1-.04-.028.111.111,0,0,1-.023-.03Q93.14,226.984,93.188,226.909Zm.82.009a.242.242,0,0,0-.113-.168.25.25,0,0,0-.2-.036.256.256,0,0,0-.162.113l-.072.112.44.283.073-.113A.259.259,0,0,0,94.008,226.918Z" transform="translate(-91.907 -222.41)" fill="#875017"/>
          <path id="Path_7992" data-name="Path 7992" d="M122,183.689l.268-.331a.393.393,0,0,1,.032-.036.11.11,0,0,1,.033-.02q.039-.017.107.039t.056.111a.232.232,0,0,1-.039.061l-.345.426q-.061.075-.112.055a.216.216,0,0,1-.06-.038l-.6-.484a.134.134,0,0,1-.058-.081.144.144,0,0,1,.043-.093l.343-.423a.4.4,0,0,1,.032-.036.112.112,0,0,1,.033-.02q.039-.017.107.039t.056.111a.231.231,0,0,1-.039.061l-.267.33.109.088.172-.213a.4.4,0,0,1,.032-.036.111.111,0,0,1,.033-.02q.039-.017.107.039t.055.112a.232.232,0,0,1-.039.061l-.171.211Z" transform="translate(-119.446 -179.678)" fill="#875017"/>
          <path id="Path_7993" data-name="Path 7993" d="M163.654,157.105l.807.29a.181.181,0,0,1,.066.034q.035.036.006.12a.181.181,0,0,1-.036.069.074.074,0,0,1-.04.022.082.082,0,0,1-.036,0l-.044-.015-.156-.056-.274.268.053.157q.009.029.013.044a.1.1,0,0,1,0,.036.071.071,0,0,1-.022.04.181.181,0,0,1-.069.035q-.084.028-.119-.007a.181.181,0,0,1-.033-.067l-.274-.814a.121.121,0,0,1,0-.069.122.122,0,0,1,.033-.06A.117.117,0,0,1,163.654,157.105Zm.152.316.067.2.131-.129Z" transform="translate(-160.766 -154.499)" fill="#875017"/>
          <path id="Path_7994" data-name="Path 7994" d="M191.056,131.99l.3-.232a.157.157,0,0,1,.059-.033.052.052,0,0,1,.042.009.253.253,0,0,1,.072.093.048.048,0,0,1,0,.038.156.156,0,0,1-.048.055l-.392.307q-.076.06-.122.029a.219.219,0,0,1-.05-.05l-.474-.605a.391.391,0,0,1-.028-.039.109.109,0,0,1-.012-.037q-.008-.041.062-.1t.122-.031a.277.277,0,0,1,.05.052Z" transform="translate(-187.113 -129.329)" fill="#875017"/>
          <path id="Path_7995" data-name="Path 7995" d="M314.548,82a.182.182,0,1,1-.1.236A.161.161,0,0,1,314.548,82Z" transform="translate(-308.542 -80.958)" fill="#875017"/>
          <path id="Path_7996" data-name="Path 7996" d="M420.953,34.562l.255-.017a.5.5,0,0,1,.362.119.471.471,0,0,1,.177.344.5.5,0,0,1-.123.371.487.487,0,0,1-.349.176l-.252.018c-.056,0-.092-.005-.107-.027a.184.184,0,0,1-.023-.087l-.055-.767a.392.392,0,0,1,0-.048.108.108,0,0,1,.011-.037Q420.864,34.568,420.953,34.562Zm.484.662a.243.243,0,0,0,.067-.191.25.25,0,0,0-.091-.181.255.255,0,0,0-.188-.062l-.132.009.037.521.134-.01A.259.259,0,0,0,421.437,35.224Z" transform="translate(-412.723 -34.514)" fill="#875017"/>
          <path id="Path_7997" data-name="Path 7997" d="M469.717,33.918l.426.016.048,0a.111.111,0,0,1,.036.015q.037.021.033.109t-.055.111a.231.231,0,0,1-.072.006l-.547-.021q-.1,0-.111-.057a.22.22,0,0,1-.006-.071l.029-.768a.134.134,0,0,1,.03-.1.144.144,0,0,1,.1-.022l.545.02.048,0a.111.111,0,0,1,.036.015q.037.021.033.109t-.055.111a.231.231,0,0,1-.072.006l-.424-.016-.005.14.274.01.048,0a.111.111,0,0,1,.036.015c.024.014.035.05.033.109s-.021.1-.057.111a.232.232,0,0,1-.072.006l-.271-.01Z" transform="translate(-460.334 -33.144)" fill="#875017"/>
          <path id="Path_7998" data-name="Path 7998" d="M510.008,38.454l.252.82a.182.182,0,0,1,.013.073q-.008.049-.093.077a.181.181,0,0,1-.077.012.074.074,0,0,1-.042-.019.081.081,0,0,1-.021-.03c0-.01-.009-.025-.015-.044l-.048-.159-.379-.058-.094.137-.027.036a.1.1,0,0,1-.029.021.071.071,0,0,1-.046.006.181.181,0,0,1-.07-.034q-.074-.05-.066-.1a.179.179,0,0,1,.034-.066l.487-.707a.121.121,0,0,1,.054-.044.123.123,0,0,1,.068-.009A.117.117,0,0,1,510.008,38.454Zm-.161.311-.119.173.182.028Z" transform="translate(-499.299 -38.255)" fill="#875017"/>
          <path id="Path_7999" data-name="Path 7999" d="M560.2,46.046l.363.1a.158.158,0,0,1,.061.027.052.052,0,0,1,.018.039.2.2,0,0,1-.009.059.206.206,0,0,1-.022.055.048.048,0,0,1-.031.023.156.156,0,0,1-.073-.005l-.481-.13q-.093-.025-.1-.08a.218.218,0,0,1,.01-.07l.2-.742a.386.386,0,0,1,.014-.046.112.112,0,0,1,.022-.032c.019-.021.057-.023.114-.008s.095.043.1.079a.273.273,0,0,1-.012.071Z" transform="translate(-548.899 -44.97)" fill="#875017"/>
          <path id="Path_8000" data-name="Path 8000" d="M680.106,115.479a.182.182,0,1,1-.25.058A.161.161,0,0,1,680.106,115.479Z" transform="translate(-666.278 -113.718)" fill="#875017"/>
          <path id="Path_8001" data-name="Path 8001" d="M757.149,170.991l.167.194a.5.5,0,0,1,.122.361.471.471,0,0,1-.169.348.5.5,0,0,1-.371.125.487.487,0,0,1-.35-.173l-.166-.191c-.037-.042-.051-.076-.043-.1a.184.184,0,0,1,.056-.071l.581-.5a.4.4,0,0,1,.038-.03.11.11,0,0,1,.036-.014Q757.091,170.924,757.149,170.991Zm-.24.785a.242.242,0,0,0,.193-.061.25.25,0,0,0,.09-.182.256.256,0,0,0-.063-.188l-.087-.1-.395.343.088.1A.258.258,0,0,0,756.909,171.775Z" transform="translate(-741.193 -168.045)" fill="#875017"/>
          <path id="Path_8002" data-name="Path 8002" d="M786.077,210.293l.242.35a.405.405,0,0,1,.026.04.112.112,0,0,1,.01.038q.005.042-.068.092t-.122.022a.23.23,0,0,1-.047-.054l-.312-.451c-.037-.053-.044-.094-.021-.123a.215.215,0,0,1,.053-.047l.633-.437a.134.134,0,0,1,.094-.033.144.144,0,0,1,.078.067l.31.448a.423.423,0,0,1,.026.04.112.112,0,0,1,.01.038q.005.042-.068.092t-.122.022a.231.231,0,0,1-.048-.054l-.241-.349-.115.079.156.225a.363.363,0,0,1,.025.04.108.108,0,0,1,.01.038q.005.042-.068.092c-.053.037-.094.044-.123.021a.228.228,0,0,1-.048-.054l-.154-.223Z" transform="translate(-770.011 -205.99)" fill="#875017"/>
          <path id="Path_8003" data-name="Path 8003" d="M809.942,263.512l-.506.692a.18.18,0,0,1-.051.054q-.044.023-.117-.028a.183.183,0,0,1-.055-.054.075.075,0,0,1-.01-.045.084.084,0,0,1,.012-.034l.027-.038.1-.134-.18-.338-.166.007h-.046a.1.1,0,0,1-.034-.01.071.071,0,0,1-.032-.033.183.183,0,0,1-.014-.076q0-.089.041-.112a.179.179,0,0,1,.073-.012l.858-.034a.127.127,0,0,1,.115.066A.117.117,0,0,1,809.942,263.512Zm-.346.057-.21.008.086.162Z" transform="translate(-792.621 -258.491)" fill="#875017"/>
          <path id="Path_8004" data-name="Path 8004" d="M831.72,297l.139.35a.158.158,0,0,1,.015.066.052.052,0,0,1-.02.038.2.2,0,0,1-.052.028.2.2,0,0,1-.057.015.048.048,0,0,1-.037-.011.155.155,0,0,1-.039-.062l-.184-.463q-.036-.09.007-.125a.216.216,0,0,1,.063-.034l.715-.283.045-.016a.11.11,0,0,1,.039,0q.042,0,.074.087c.024.06.022.1-.005.126a.274.274,0,0,1-.064.033Z" transform="translate(-814.75 -290.987)" fill="#875017"/>
          <path id="Path_8005" data-name="Path 8005" d="M855.259,341.346a.182.182,0,1,1-.228-.119A.161.161,0,0,1,855.259,341.346Z" transform="translate(-837.689 -334.758)" fill="#875017"/>
          <path id="Path_8006" data-name="Path 8006" d="M864.5,450.239l0,.256a.5.5,0,0,1-.139.355.471.471,0,0,1-.353.158.5.5,0,0,1-.364-.143.487.487,0,0,1-.157-.358l0-.253c0-.056.01-.091.033-.106a.183.183,0,0,1,.088-.018l.769-.012a.385.385,0,0,1,.048,0,.111.111,0,0,1,.036.013C864.488,450.145,864.5,450.18,864.5,450.239Zm-.688.447a.242.242,0,0,0,.187.077.25.25,0,0,0,.186-.081.255.255,0,0,0,.072-.184l0-.133-.523.009,0,.134A.258.258,0,0,0,863.815,450.686Z" transform="translate(-846.099 -441.381)" fill="#875017"/>
          <path id="Path_8007" data-name="Path 8007" d="M860.184,497.067l-.045.424a.4.4,0,0,1-.007.047.112.112,0,0,1-.017.035q-.023.035-.111.026c-.064-.007-.1-.028-.107-.063a.228.228,0,0,1,0-.072l.058-.545c.007-.064.028-.1.064-.107a.22.22,0,0,1,.071,0l.765.082a.134.134,0,0,1,.093.036.145.145,0,0,1,.015.1l-.058.542a.4.4,0,0,1-.007.047.111.111,0,0,1-.017.035c-.016.023-.053.032-.111.026s-.1-.028-.107-.063a.23.23,0,0,1,0-.072l.045-.422-.139-.015-.029.272a.407.407,0,0,1-.007.047.111.111,0,0,1-.017.035c-.015.023-.053.032-.111.026s-.1-.028-.107-.064a.234.234,0,0,1,0-.072l.029-.27Z" transform="translate(-842.578 -487.092)" fill="#875017"/>
          <path id="Path_8008" data-name="Path 8008" d="M850.62,537.19l-.835.194a.179.179,0,0,1-.074.007q-.049-.011-.07-.1a.183.183,0,0,1-.007-.077.074.074,0,0,1,.022-.04.082.082,0,0,1,.031-.018l.045-.012.161-.037.084-.374-.13-.1-.034-.03a.1.1,0,0,1-.019-.03.07.07,0,0,1,0-.046.18.18,0,0,1,.039-.067q.055-.07.1-.059a.18.18,0,0,1,.064.038l.672.534a.121.121,0,0,1,.04.056.124.124,0,0,1,0,.068A.117.117,0,0,1,850.62,537.19Zm-.3-.182-.165-.131-.04.179Z" transform="translate(-832.533 -525.854)" fill="#875017"/>
          <path id="Path_8009" data-name="Path 8009" d="M837.733,586.532l-.123.355a.155.155,0,0,1-.032.059.051.051,0,0,1-.04.015.2.2,0,0,1-.058-.013.2.2,0,0,1-.053-.026.048.048,0,0,1-.021-.032.155.155,0,0,1,.01-.073l.163-.47q.032-.092.087-.09a.219.219,0,0,1,.069.015l.726.252.045.018a.112.112,0,0,1,.03.024c.019.02.019.058,0,.114s-.05.091-.086.092a.281.281,0,0,1-.07-.017Z" transform="translate(-820.562 -574.668)" fill="#875017"/>
          <path id="Path_8010" data-name="Path 8010" d="M796.167,703.589a.182.182,0,1,1-.041-.254A.161.161,0,0,1,796.167,703.589Z" transform="translate(-779.856 -689.248)" fill="#875017"/>
          <path id="Path_8011" data-name="Path 8011" d="M701.352,775.236l-.205.153a.5.5,0,0,1-.369.1.471.471,0,0,1-.335-.192.5.5,0,0,1-.1-.378.488.488,0,0,1,.2-.337l.2-.152q.067-.051.1-.036a.182.182,0,0,1,.067.061l.463.614a.392.392,0,0,1,.027.04.111.111,0,0,1,.011.037C701.42,775.169,701.4,775.2,701.352,775.236Zm-.766-.293a.243.243,0,0,0,.048.2.25.25,0,0,0,.175.1.256.256,0,0,0,.192-.05l.106-.08-.315-.418-.107.081A.259.259,0,0,0,700.586,774.943Z" transform="translate(-686.368 -758.854)" fill="#875017"/>
          <path id="Path_8012" data-name="Path 8012" d="M657.4,801.654l-.366.217a.405.405,0,0,1-.042.023.112.112,0,0,1-.038.007c-.028,0-.057-.023-.087-.074s-.038-.1-.014-.124a.234.234,0,0,1,.058-.044l.471-.28c.056-.033.1-.037.124-.013a.219.219,0,0,1,.043.056l.392.661a.134.134,0,0,1,.027.1q-.01.035-.073.073l-.469.278-.042.023a.11.11,0,0,1-.038.007c-.028,0-.057-.023-.087-.074s-.037-.1-.014-.124a.228.228,0,0,1,.058-.044l.365-.217-.071-.12-.235.14-.042.023a.117.117,0,0,1-.038.007c-.028,0-.057-.023-.087-.074s-.037-.1-.013-.124a.231.231,0,0,1,.058-.044l.233-.138Z" transform="translate(-643.781 -785.255)" fill="#875017"/>
          <path id="Path_8013" data-name="Path 8013" d="M612.163,823.068l-.656-.552a.182.182,0,0,1-.05-.055c-.014-.03,0-.069.037-.115a.183.183,0,0,1,.058-.052.074.074,0,0,1,.046-.007.08.08,0,0,1,.033.014l.036.029.127.107.35-.156,0-.166q0-.031,0-.045a.1.1,0,0,1,.012-.034.071.071,0,0,1,.035-.03.181.181,0,0,1,.077-.009q.089,0,.109.048a.18.18,0,0,1,.007.074l-.026.858a.127.127,0,0,1-.074.11A.117.117,0,0,1,612.163,823.068Zm-.033-.349.006-.21-.168.075Z" transform="translate(-599.343 -805.468)" fill="#875017"/>
          <path id="Path_8014" data-name="Path 8014" d="M575.864,841.714l-.359.114a.159.159,0,0,1-.066.01.052.052,0,0,1-.036-.023.2.2,0,0,1-.024-.054.2.2,0,0,1-.011-.058.048.048,0,0,1,.013-.036.155.155,0,0,1,.064-.035l.474-.151q.092-.029.124.016a.214.214,0,0,1,.029.065l.233.733a.4.4,0,0,1,.013.046.111.111,0,0,1,0,.039q-.007.041-.091.068t-.125-.014a.284.284,0,0,1-.029-.066Z" transform="translate(-564.015 -824.532)" fill="#875017"/>
          <path id="Path_8015" data-name="Path 8015" d="M471.2,874.061a.182.182,0,1,1,.179-.185A.161.161,0,0,1,471.2,874.061Z" transform="translate(-461.848 -856.084)" fill="#875017"/>
        </g>
        <g id="Group_6177" data-name="Group 6177" transform="translate(0 0.107)" style="mix-blend-mode: soft-light;isolation: isolate">
          <path id="Path_8016" data-name="Path 8016" d="M335.312,854.094l-.245-.073a.5.5,0,0,1-.3-.237.471.471,0,0,1-.047-.384.5.5,0,0,1,.244-.306.487.487,0,0,1,.388-.044l.243.071c.054.016.084.037.091.063a.183.183,0,0,1-.009.09l-.215.738a.365.365,0,0,1-.016.046.106.106,0,0,1-.023.031Q335.4,854.118,335.312,854.094Zm-.224-.789a.242.242,0,0,0-.129.156.25.25,0,0,0,.023.2.255.255,0,0,0,.155.124l.128.037.146-.5-.129-.037A.259.259,0,0,0,335.087,853.3Z" transform="translate(-328.391 -835.954)" fill="#fdf193"/>
          <path id="Path_8017" data-name="Path 8017" d="M288.195,833.146l-.393-.163-.043-.02a.112.112,0,0,1-.029-.026q-.027-.032.007-.114t.091-.085a.236.236,0,0,1,.07.02l.506.21q.089.037.084.092a.219.219,0,0,1-.019.068l-.3.71a.134.134,0,0,1-.061.079.145.145,0,0,1-.1-.015l-.5-.209a.393.393,0,0,1-.043-.02.111.111,0,0,1-.029-.026c-.018-.021-.016-.059.007-.114s.055-.088.091-.085a.23.23,0,0,1,.07.02l.392.163.054-.129-.253-.105a.41.41,0,0,1-.043-.02.112.112,0,0,1-.029-.026c-.018-.022-.016-.06.007-.114s.056-.088.092-.084a.229.229,0,0,1,.07.02l.25.1Z" transform="translate(-282.104 -816.088)" fill="#fdf193"/>
          <path id="Path_8018" data-name="Path 8018" d="M255.438,810.581l.051-.856a.18.18,0,0,1,.014-.073q.024-.043.114-.039a.179.179,0,0,1,.076.016.073.073,0,0,1,.033.032.082.082,0,0,1,.009.035q0,.016,0,.047l-.01.165.334.187.136-.1.038-.025a.1.1,0,0,1,.034-.01.07.07,0,0,1,.045.01.182.182,0,0,1,.053.057c.034.049.043.087.027.116a.181.181,0,0,1-.055.05l-.7.492a.127.127,0,0,1-.132.007A.117.117,0,0,1,255.438,810.581Zm.26-.235.172-.121-.16-.09Z" transform="translate(-250.79 -793.448)" fill="#fdf193"/>
          <path id="Path_8019" data-name="Path 8019" d="M223.3,787.366l-.306-.219a.157.157,0,0,1-.048-.047.052.052,0,0,1,0-.042.2.2,0,0,1,.029-.052.2.2,0,0,1,.04-.044.048.048,0,0,1,.037-.011.155.155,0,0,1,.067.031l.4.29c.052.038.073.074.062.109a.216.216,0,0,1-.034.062l-.448.625a.405.405,0,0,1-.029.038.109.109,0,0,1-.032.022c-.025.013-.061,0-.109-.032s-.074-.074-.064-.109a.278.278,0,0,1,.036-.062Z" transform="translate(-218.897 -771.261)" fill="#fdf193"/>
          <path id="Path_8020" data-name="Path 8020" d="M139.642,719.908a.182.182,0,1,1,.255.032A.161.161,0,0,1,139.642,719.908Z" transform="translate(-137.373 -705.326)" fill="#fdf193"/>
          <path id="Path_8021" data-name="Path 8021" d="M60.61,602.724l-.089-.24a.5.5,0,0,1,.011-.381.471.471,0,0,1,.279-.267.5.5,0,0,1,.391.012.487.487,0,0,1,.268.284l.089.237q.03.079,0,.111a.186.186,0,0,1-.077.047l-.72.27a.4.4,0,0,1-.046.015.113.113,0,0,1-.038,0Q60.641,602.807,60.61,602.724Zm.5-.652a.243.243,0,0,0-.2-.01.25.25,0,0,0-.148.139.255.255,0,0,0-.006.2l.047.124.489-.184-.047-.126A.259.259,0,0,0,61.108,602.072Z" transform="translate(-59.926 -589.992)" fill="#fdf193"/>
          <path id="Path_8022" data-name="Path 8022" d="M43.723,556.655l-.1-.413a.4.4,0,0,1-.01-.047.111.111,0,0,1,0-.039q.01-.041.1-.063t.122.022a.23.23,0,0,1,.026.068l.134.531q.024.094-.023.123a.218.218,0,0,1-.066.025l-.746.188a.135.135,0,0,1-.1,0,.145.145,0,0,1-.049-.09l-.134-.528a.4.4,0,0,1-.01-.047.112.112,0,0,1,0-.039c.006-.027.038-.048.1-.063s.1-.009.122.022a.231.231,0,0,1,.026.068l.1.412.135-.034-.067-.266a.406.406,0,0,1-.01-.047.112.112,0,0,1,0-.039q.01-.041.1-.063t.123.023a.23.23,0,0,1,.026.068l.066.263Z" transform="translate(-42.669 -545.234)" fill="#fdf193"/>
          <path id="Path_8023" data-name="Path 8023" d="M37.121,506.64l.716-.471a.181.181,0,0,1,.067-.033q.049-.007.1.068a.181.181,0,0,1,.033.07.074.074,0,0,1-.007.046.083.083,0,0,1-.023.028l-.038.027-.139.091.05.38.158.052.043.016a.1.1,0,0,1,.029.021.072.072,0,0,1,.019.042.182.182,0,0,1-.014.076q-.028.084-.077.091a.181.181,0,0,1-.073-.014l-.815-.269a.12.12,0,0,1-.057-.039.122.122,0,0,1-.028-.062A.117.117,0,0,1,37.121,506.64Zm.344.067.2.066-.024-.182Z" transform="translate(-36.991 -496.33)" fill="#fdf193"/>
          <path id="Path_8024" data-name="Path 8024" d="M34.44,469.1l-.008-.376a.157.157,0,0,1,.009-.067.053.053,0,0,1,.032-.028.2.2,0,0,1,.059-.008.2.2,0,0,1,.059.006.047.047,0,0,1,.031.023.156.156,0,0,1,.015.072l.011.5q0,.1-.05.115a.216.216,0,0,1-.07.01l-.769.016H33.71a.113.113,0,0,1-.037-.012q-.038-.018-.04-.107c0-.065.015-.1.049-.116a.277.277,0,0,1,.072-.008Z" transform="translate(-33.633 -459.603)" fill="#fdf193"/>
          <path id="Path_8025" data-name="Path 8025" d="M68.737,359.95a.182.182,0,1,1,.127.224A.161.161,0,0,1,68.737,359.95Z" transform="translate(-67.991 -353.074)" fill="#fdf193"/>
          <path id="Path_8026" data-name="Path 8026" d="M93.188,232l.139-.215a.5.5,0,0,1,.312-.219.471.471,0,0,1,.381.064.5.5,0,0,1,.224.321.487.487,0,0,1-.068.385l-.137.213q-.046.071-.086.07a.185.185,0,0,1-.083-.034l-.647-.416a.4.4,0,0,1-.04-.028.112.112,0,0,1-.023-.03Q93.14,232.074,93.188,232Zm.82.009a.242.242,0,0,0-.113-.168.25.25,0,0,0-.2-.036.256.256,0,0,0-.162.113l-.072.112.44.283.073-.113A.259.259,0,0,0,94.008,232.008Z" transform="translate(-91.907 -227.5)" fill="#fdf193"/>
          <path id="Path_8027" data-name="Path 8027" d="M122,188.779l.268-.331a.388.388,0,0,1,.032-.036.11.11,0,0,1,.033-.02q.039-.017.107.039t.056.111a.232.232,0,0,1-.039.061l-.345.426q-.061.075-.112.055a.217.217,0,0,1-.06-.038l-.6-.484a.134.134,0,0,1-.058-.081.145.145,0,0,1,.043-.093l.343-.423a.409.409,0,0,1,.032-.036.111.111,0,0,1,.033-.02q.039-.017.107.039t.056.111a.232.232,0,0,1-.039.061l-.267.33.109.088.172-.213a.4.4,0,0,1,.032-.036.111.111,0,0,1,.033-.02q.039-.017.107.039t.055.112a.232.232,0,0,1-.039.061l-.171.211Z" transform="translate(-119.446 -184.768)" fill="#fdf193"/>
          <path id="Path_8028" data-name="Path 8028" d="M163.654,162.2l.807.29a.182.182,0,0,1,.066.034q.035.036.006.12a.181.181,0,0,1-.036.069.073.073,0,0,1-.04.022.082.082,0,0,1-.036,0l-.044-.015-.156-.056-.274.268.053.157c.006.02.011.034.013.044a.1.1,0,0,1,0,.036.071.071,0,0,1-.022.04.182.182,0,0,1-.069.035q-.084.028-.119-.007a.181.181,0,0,1-.033-.067l-.274-.814a.121.121,0,0,1,0-.069.123.123,0,0,1,.033-.06A.117.117,0,0,1,163.654,162.2Zm.152.316.067.2.131-.129Z" transform="translate(-160.766 -159.589)" fill="#fdf193"/>
          <path id="Path_8029" data-name="Path 8029" d="M191.056,137.08l.3-.232a.157.157,0,0,1,.059-.033.052.052,0,0,1,.042.009.253.253,0,0,1,.072.093.048.048,0,0,1,0,.038.156.156,0,0,1-.048.055l-.392.307q-.076.06-.122.029a.217.217,0,0,1-.05-.05l-.474-.605a.394.394,0,0,1-.028-.039.11.11,0,0,1-.012-.037q-.008-.041.062-.1t.122-.031a.277.277,0,0,1,.05.052Z" transform="translate(-187.113 -134.419)" fill="#fdf193"/>
          <path id="Path_8030" data-name="Path 8030" d="M314.548,87.09a.182.182,0,1,1-.1.236A.161.161,0,0,1,314.548,87.09Z" transform="translate(-308.542 -86.048)" fill="#fdf193"/>
          <path id="Path_8031" data-name="Path 8031" d="M420.953,39.651l.255-.017a.5.5,0,0,1,.362.119.471.471,0,0,1,.177.344.5.5,0,0,1-.123.371.487.487,0,0,1-.349.176l-.252.018c-.056,0-.092-.005-.107-.027a.184.184,0,0,1-.023-.087l-.055-.767a.392.392,0,0,1,0-.048.108.108,0,0,1,.011-.037Q420.864,39.658,420.953,39.651Zm.484.662a.243.243,0,0,0,.067-.191.25.25,0,0,0-.091-.181.256.256,0,0,0-.188-.062l-.132.009.037.521.134-.01A.259.259,0,0,0,421.437,40.314Z" transform="translate(-412.723 -39.604)" fill="#fdf193"/>
          <path id="Path_8032" data-name="Path 8032" d="M469.717,39.007l.426.016.048,0a.111.111,0,0,1,.036.015q.037.021.033.109t-.055.111a.233.233,0,0,1-.072.006l-.547-.021q-.1,0-.111-.057a.219.219,0,0,1-.006-.071l.029-.768a.134.134,0,0,1,.03-.1.145.145,0,0,1,.1-.022l.545.021.048,0a.111.111,0,0,1,.036.015q.037.021.033.109t-.055.111a.232.232,0,0,1-.072.006l-.424-.016-.005.14.274.01.048,0a.111.111,0,0,1,.036.015c.024.014.035.05.033.109s-.021.1-.057.111a.231.231,0,0,1-.072.006l-.271-.01Z" transform="translate(-460.334 -38.234)" fill="#fdf193"/>
          <path id="Path_8033" data-name="Path 8033" d="M510.008,43.544l.252.82a.182.182,0,0,1,.013.073q-.008.049-.093.077a.181.181,0,0,1-.077.012.074.074,0,0,1-.042-.019.081.081,0,0,1-.021-.03c0-.01-.009-.025-.015-.044l-.048-.159-.379-.058-.094.137-.027.036a.1.1,0,0,1-.029.021.071.071,0,0,1-.046.006.181.181,0,0,1-.07-.034q-.074-.05-.066-.1a.179.179,0,0,1,.034-.066l.487-.707a.121.121,0,0,1,.054-.044.123.123,0,0,1,.068-.009A.117.117,0,0,1,510.008,43.544Zm-.161.311-.119.173.182.028Z" transform="translate(-499.299 -43.345)" fill="#fdf193"/>
          <path id="Path_8034" data-name="Path 8034" d="M560.2,51.136l.363.1a.158.158,0,0,1,.061.027.052.052,0,0,1,.018.039.2.2,0,0,1-.009.059.206.206,0,0,1-.022.055.048.048,0,0,1-.031.023.156.156,0,0,1-.073-.005l-.481-.13q-.093-.025-.1-.08a.218.218,0,0,1,.01-.07l.2-.742a.386.386,0,0,1,.014-.046.112.112,0,0,1,.022-.032c.019-.021.057-.023.114-.008s.095.043.1.079a.272.272,0,0,1-.012.071Z" transform="translate(-548.899 -50.06)" fill="#fdf193"/>
          <path id="Path_8035" data-name="Path 8035" d="M680.106,120.569a.182.182,0,1,1-.25.058A.161.161,0,0,1,680.106,120.569Z" transform="translate(-666.278 -118.807)" fill="#fdf193"/>
          <path id="Path_8036" data-name="Path 8036" d="M757.149,176.08l.167.194a.5.5,0,0,1,.122.361.471.471,0,0,1-.169.348.5.5,0,0,1-.371.125.487.487,0,0,1-.35-.173l-.166-.191c-.037-.042-.051-.076-.043-.1a.184.184,0,0,1,.056-.071l.581-.5a.4.4,0,0,1,.038-.03.11.11,0,0,1,.036-.014Q757.091,176.013,757.149,176.08Zm-.24.785a.243.243,0,0,0,.193-.061.25.25,0,0,0,.09-.182.256.256,0,0,0-.063-.188l-.087-.1-.395.343.088.1A.258.258,0,0,0,756.909,176.865Z" transform="translate(-741.193 -173.134)" fill="#fdf193"/>
          <path id="Path_8037" data-name="Path 8037" d="M786.077,215.382l.242.35a.4.4,0,0,1,.026.04.112.112,0,0,1,.01.038q.005.042-.068.092t-.122.022a.23.23,0,0,1-.047-.054l-.312-.451c-.037-.053-.044-.094-.021-.123a.215.215,0,0,1,.053-.047l.633-.437a.134.134,0,0,1,.094-.033.144.144,0,0,1,.078.067l.31.448a.429.429,0,0,1,.026.04.112.112,0,0,1,.01.038q.005.042-.068.092t-.122.022a.231.231,0,0,1-.048-.054l-.241-.349-.115.079.156.225a.365.365,0,0,1,.025.04.109.109,0,0,1,.01.038q.005.042-.068.092c-.053.037-.094.044-.123.021a.229.229,0,0,1-.048-.054l-.154-.223Z" transform="translate(-770.011 -211.079)" fill="#fdf193"/>
          <path id="Path_8038" data-name="Path 8038" d="M809.942,268.6l-.506.692a.182.182,0,0,1-.051.054q-.044.023-.117-.029a.182.182,0,0,1-.055-.054.075.075,0,0,1-.01-.045.085.085,0,0,1,.012-.034l.027-.038.1-.134-.18-.338-.166.007h-.046a.1.1,0,0,1-.034-.01.072.072,0,0,1-.032-.033.183.183,0,0,1-.014-.076q0-.089.041-.112a.179.179,0,0,1,.073-.012l.858-.034a.127.127,0,0,1,.115.066A.117.117,0,0,1,809.942,268.6Zm-.346.057-.21.009.086.162Z" transform="translate(-792.621 -263.581)" fill="#fdf193"/>
          <path id="Path_8039" data-name="Path 8039" d="M831.72,302.095l.139.35a.158.158,0,0,1,.015.066.052.052,0,0,1-.02.038.251.251,0,0,1-.109.043.048.048,0,0,1-.037-.011.155.155,0,0,1-.039-.062l-.184-.463q-.036-.09.007-.125a.218.218,0,0,1,.063-.034l.715-.283.045-.016a.11.11,0,0,1,.039,0q.042,0,.074.087c.024.06.022.1-.005.126a.274.274,0,0,1-.064.033Z" transform="translate(-814.75 -296.077)" fill="#fdf193"/>
          <path id="Path_8040" data-name="Path 8040" d="M855.259,346.435a.182.182,0,1,1-.228-.119A.161.161,0,0,1,855.259,346.435Z" transform="translate(-837.689 -339.847)" fill="#fdf193"/>
          <path id="Path_8041" data-name="Path 8041" d="M864.5,455.329l0,.256a.5.5,0,0,1-.139.355.471.471,0,0,1-.353.158.5.5,0,0,1-.364-.143.488.488,0,0,1-.157-.358l0-.253c0-.056.01-.091.033-.106a.185.185,0,0,1,.088-.018l.769-.012h.048a.111.111,0,0,1,.036.013C864.488,455.234,864.5,455.27,864.5,455.329Zm-.688.447a.242.242,0,0,0,.187.077.25.25,0,0,0,.186-.081.255.255,0,0,0,.072-.184l0-.133-.523.008,0,.134A.258.258,0,0,0,863.815,455.776Z" transform="translate(-846.099 -446.47)" fill="#fdf193"/>
          <path id="Path_8042" data-name="Path 8042" d="M860.184,502.157l-.045.424a.405.405,0,0,1-.007.047.115.115,0,0,1-.017.035c-.016.023-.053.032-.111.026s-.1-.028-.107-.063a.228.228,0,0,1,0-.072l.058-.545q.01-.1.064-.107a.218.218,0,0,1,.071,0l.765.082a.134.134,0,0,1,.093.036.145.145,0,0,1,.015.1l-.058.542a.405.405,0,0,1-.007.047.112.112,0,0,1-.017.035c-.016.023-.053.032-.111.026s-.1-.028-.107-.063a.23.23,0,0,1,0-.072l.045-.422-.139-.015-.029.272a.407.407,0,0,1-.007.047.109.109,0,0,1-.017.035c-.015.023-.053.032-.111.026s-.1-.028-.107-.064a.235.235,0,0,1,0-.072l.029-.27Z" transform="translate(-842.578 -492.182)" fill="#fdf193"/>
          <path id="Path_8043" data-name="Path 8043" d="M850.62,542.28l-.835.194a.183.183,0,0,1-.074.007q-.049-.011-.07-.1a.183.183,0,0,1-.007-.077.075.075,0,0,1,.022-.041.083.083,0,0,1,.031-.018l.045-.012.161-.037.084-.374-.13-.1-.034-.03a.1.1,0,0,1-.019-.03.071.071,0,0,1,0-.046.181.181,0,0,1,.039-.067q.055-.07.1-.059a.182.182,0,0,1,.064.039l.672.534a.12.12,0,0,1,.04.056.124.124,0,0,1,0,.068A.117.117,0,0,1,850.62,542.28Zm-.3-.182-.165-.131-.04.179Z" transform="translate(-832.533 -530.943)" fill="#fdf193"/>
          <path id="Path_8044" data-name="Path 8044" d="M837.733,591.622l-.123.355a.155.155,0,0,1-.032.059.051.051,0,0,1-.04.015.2.2,0,0,1-.058-.013.207.207,0,0,1-.053-.026.048.048,0,0,1-.021-.032.154.154,0,0,1,.01-.072l.163-.47q.032-.092.087-.09a.215.215,0,0,1,.069.015l.726.252.045.018a.11.11,0,0,1,.03.025q.029.03,0,.114c-.021.061-.05.091-.086.092a.282.282,0,0,1-.07-.017Z" transform="translate(-820.562 -579.758)" fill="#fdf193"/>
          <path id="Path_8045" data-name="Path 8045" d="M796.167,708.679a.182.182,0,1,1-.041-.254A.161.161,0,0,1,796.167,708.679Z" transform="translate(-779.856 -694.337)" fill="#fdf193"/>
          <path id="Path_8046" data-name="Path 8046" d="M701.352,780.326l-.205.153a.5.5,0,0,1-.369.1.471.471,0,0,1-.335-.192.5.5,0,0,1-.1-.378.488.488,0,0,1,.2-.337l.2-.152c.045-.034.08-.046.1-.036a.183.183,0,0,1,.067.061l.463.614a.407.407,0,0,1,.027.04.111.111,0,0,1,.011.037C701.42,780.259,701.4,780.291,701.352,780.326Zm-.766-.293a.243.243,0,0,0,.048.2.25.25,0,0,0,.175.1.255.255,0,0,0,.192-.05l.106-.08-.315-.417-.107.081A.259.259,0,0,0,700.586,780.033Z" transform="translate(-686.368 -763.944)" fill="#fdf193"/>
          <path id="Path_8047" data-name="Path 8047" d="M657.4,806.744l-.366.217a.393.393,0,0,1-.042.023.109.109,0,0,1-.038.007q-.042,0-.087-.074c-.033-.056-.038-.1-.014-.124a.229.229,0,0,1,.058-.044l.471-.279q.083-.049.124-.013a.218.218,0,0,1,.043.056l.392.661a.135.135,0,0,1,.027.1c-.006.024-.031.048-.073.073l-.469.278a.424.424,0,0,1-.042.022.11.11,0,0,1-.038.008c-.028,0-.057-.023-.087-.074s-.037-.1-.014-.124a.229.229,0,0,1,.058-.044l.365-.217-.071-.12-.235.14-.042.023a.114.114,0,0,1-.038.007c-.028,0-.057-.023-.087-.074s-.037-.1-.013-.124a.228.228,0,0,1,.058-.044l.233-.138Z" transform="translate(-643.781 -790.345)" fill="#fdf193"/>
          <path id="Path_8048" data-name="Path 8048" d="M612.163,828.158l-.656-.552a.182.182,0,0,1-.05-.055c-.014-.03,0-.068.037-.115a.186.186,0,0,1,.058-.052.075.075,0,0,1,.046-.007.08.08,0,0,1,.033.014l.036.029.127.107.35-.156,0-.166c0-.021,0-.036,0-.045a.1.1,0,0,1,.012-.034.072.072,0,0,1,.035-.03.181.181,0,0,1,.077-.009q.089,0,.109.048a.179.179,0,0,1,.007.074l-.026.858a.127.127,0,0,1-.074.11A.117.117,0,0,1,612.163,828.158Zm-.033-.349.006-.21-.168.075Z" transform="translate(-599.343 -810.558)" fill="#fdf193"/>
          <path id="Path_8049" data-name="Path 8049" d="M575.864,846.8l-.359.114a.158.158,0,0,1-.066.01.052.052,0,0,1-.036-.023.253.253,0,0,1-.036-.112.048.048,0,0,1,.013-.036.154.154,0,0,1,.064-.035l.474-.151q.092-.029.124.016a.214.214,0,0,1,.029.065l.233.733a.4.4,0,0,1,.013.046.111.111,0,0,1,0,.039q-.007.042-.091.068t-.125-.014a.282.282,0,0,1-.029-.066Z" transform="translate(-564.015 -829.622)" fill="#fdf193"/>
          <path id="Path_8050" data-name="Path 8050" d="M471.2,879.15a.182.182,0,1,1,.179-.185A.161.161,0,0,1,471.2,879.15Z" transform="translate(-461.848 -861.173)" fill="#fdf193"/>
        </g>
      </g>
      <g id="Group_6185" data-name="Group 6185" transform="translate(10.337 8.729)">
        <g id="Group_6181" data-name="Group 6181" transform="translate(0.298 0)">
          <g id="Group_6180" data-name="Group 6180">
            <path id="Path_8051" data-name="Path 8051" d="M424.774,440.939h0a1.025,1.025,0,0,0,1.025-1.025v-1.1h-1.025a1.025,1.025,0,0,0-1.025,1.025v.078A1.025,1.025,0,0,0,424.774,440.939Z" transform="translate(-421.401 -434.242)" fill="#ebd673"/>
            <g id="Group_6179" data-name="Group 6179">
              <path id="Path_8052" data-name="Path 8052" d="M316.687,325.463a1.576,1.576,0,0,1-1.576,1.576h0a1.576,1.576,0,0,1-1.576-1.576v-.12a1.576,1.576,0,0,1,1.576-1.576h1v-1.819h-.923a3.482,3.482,0,0,0-3.482,3.482v.227a3.391,3.391,0,0,0,3.482,3.308,3.119,3.119,0,0,0,3.263-3.089v-1.535l-1.765.008Z" transform="translate(-311.707 -319.828)" fill="#ebd673"/>
              <path id="Path_8053" data-name="Path 8053" d="M551.114,222.913v-2.1s-1.746-.26-1.746,1.308l-.012,2.509v.106h0l1.765,0v-1.815Z" transform="translate(-544.377 -220.794)" fill="#ebd673"/>
            </g>
          </g>
        </g>
        <g id="Group_6184" data-name="Group 6184" transform="translate(0 0)">
          <g id="Group_6183" data-name="Group 6183">
            <path id="Path_8054" data-name="Path 8054" d="M410.572,440.939h0a1.025,1.025,0,0,0,1.025-1.025v-1.1h-1.025a1.025,1.025,0,0,0-1.025,1.025v.078A1.025,1.025,0,0,0,410.572,440.939Z" transform="translate(-407.199 -434.242)" fill="#ba8b1d"/>
            <g id="Group_6182" data-name="Group 6182">
              <path id="Path_8055" data-name="Path 8055" d="M302.484,325.463a1.576,1.576,0,0,1-1.576,1.576h0a1.576,1.576,0,0,1-1.576-1.576v-.12a1.576,1.576,0,0,1,1.576-1.576h1v-1.819h-.923a3.482,3.482,0,0,0-3.483,3.482v.227a3.391,3.391,0,0,0,3.483,3.308,3.119,3.119,0,0,0,3.263-3.089v-1.535l-1.765.008Z" transform="translate(-297.504 -319.828)" fill="#ba8b1d"/>
              <path id="Path_8056" data-name="Path 8056" d="M536.911,222.913v-2.1s-1.746-.26-1.746,1.308l-.012,2.509v.106h0l1.765,0v-1.815Z" transform="translate(-530.174 -220.794)" fill="#ba8b1d"/>
            </g>
          </g>
        </g>
        <path id="Path_8057" data-name="Path 8057" d="M409.845,439.914v-.078a1.025,1.025,0,0,1,1.025-1.025h-.3a1.025,1.025,0,0,0-1.025,1.025v.078a1.025,1.025,0,0,0,1.025,1.025h0a1.034,1.034,0,0,0,.149-.011A1.025,1.025,0,0,1,409.845,439.914Z" transform="translate(-407.199 -434.242)" fill="#8f5919" opacity="0.81"/>
        <path id="Path_8058" data-name="Path 8058" d="M297.8,325.657v-.227a3.482,3.482,0,0,1,3.482-3.482h-.3a3.482,3.482,0,0,0-3.483,3.482v.227a3.391,3.391,0,0,0,3.483,3.308c.05,0,.1,0,.148,0A3.383,3.383,0,0,1,297.8,325.657Z" transform="translate(-297.504 -319.828)" fill="#8f5919" opacity="0.81"/>
        <path id="Path_8059" data-name="Path 8059" d="M468.765,437.31V436.2l1.468-.007h0l-1.765.008v1.114a1.576,1.576,0,0,1-1.427,1.569c.049,0,.1.007.149.007A1.576,1.576,0,0,0,468.765,437.31Z" transform="translate(-463.487 -431.675)" fill="#8f5919" opacity="0.81"/>
        <path id="Path_8060" data-name="Path 8060" d="M535.463,222.118a1.252,1.252,0,0,1,1.326-1.319,1.346,1.346,0,0,0-1.624,1.319l-.012,2.509v.106h.3v-.106Z" transform="translate(-530.174 -220.794)" fill="#8f5919" opacity="0.81"/>
      </g>
    </g>
    <g id="Group_7152" data-name="Group 7152" transform="translate(0 0)">
      <circle id="Ellipse_2396-2" data-name="Ellipse 2396" cx="9.905" cy="9.905" r="9.905" transform="translate(0 14.008) rotate(-45)" fill="url(#linear-gradient)"/>
      <circle id="Ellipse_2397-2" data-name="Ellipse 2397" cx="9.543" cy="9.543" r="9.543" transform="translate(0.513 14.008) rotate(-45)" fill="url(#linear-gradient-2)"/>
      <g id="Group_6175-2" data-name="Group 6175" transform="translate(3.166 3.166)">
        <circle id="Ellipse_2398-2" data-name="Ellipse 2398" cx="7.666" cy="7.666" r="7.666" transform="translate(0 10.842) rotate(-45)" fill="url(#linear-gradient-3)"/>
        <circle id="Ellipse_2399-2" data-name="Ellipse 2399" cx="7.512" cy="7.512" r="7.512" transform="translate(0.218 10.842) rotate(-45)" fill="url(#linear-gradient-4)"/>
        <ellipse id="Ellipse_2400-2" data-name="Ellipse 2400" cx="6.686" cy="6.686" rx="6.686" ry="6.686" transform="translate(4.155 4.155)" fill="url(#linear-gradient-5)"/>
      </g>
      <g id="Group_6178-2" data-name="Group 6178" transform="translate(4.808 4.797)">
        <g id="Group_6176-2" data-name="Group 6176" transform="translate(0 0)" opacity="0.9" style="mix-blend-mode: multiply;isolation: isolate">
          <path id="Path_7981-2" data-name="Path 7981" d="M335.312,849l-.245-.073a.5.5,0,0,1-.3-.237.471.471,0,0,1-.047-.384.5.5,0,0,1,.244-.306.488.488,0,0,1,.388-.044l.243.071q.081.024.091.063a.182.182,0,0,1-.009.09l-.215.738a.384.384,0,0,1-.016.046.11.11,0,0,1-.023.031C335.406,849.018,335.368,849.02,335.312,849Zm-.224-.789a.242.242,0,0,0-.129.156.25.25,0,0,0,.023.2.256.256,0,0,0,.155.124l.128.037.146-.5-.129-.037A.259.259,0,0,0,335.087,848.215Z" transform="translate(-328.391 -830.865)" fill="#875017"/>
          <path id="Path_7982-2" data-name="Path 7982" d="M288.195,828.057l-.393-.164-.043-.02a.11.11,0,0,1-.029-.026q-.027-.032.007-.114t.091-.085a.232.232,0,0,1,.07.02l.506.211q.089.037.084.092a.217.217,0,0,1-.019.068l-.3.71a.133.133,0,0,1-.061.079.144.144,0,0,1-.1-.015l-.5-.209-.043-.02a.111.111,0,0,1-.029-.026q-.027-.032.007-.114c.025-.06.055-.088.091-.085a.227.227,0,0,1,.07.02l.392.163.054-.129-.253-.105-.043-.02a.115.115,0,0,1-.029-.026q-.027-.032.007-.114t.092-.085a.228.228,0,0,1,.07.02l.25.1Z" transform="translate(-282.104 -810.999)" fill="#875017"/>
          <path id="Path_7983-2" data-name="Path 7983" d="M255.438,805.492l.051-.856a.18.18,0,0,1,.014-.073q.024-.044.114-.039a.185.185,0,0,1,.076.016.075.075,0,0,1,.033.032.083.083,0,0,1,.009.035c0,.011,0,.026,0,.047l-.01.166.334.187.136-.1.038-.024a.094.094,0,0,1,.034-.01.07.07,0,0,1,.045.01.18.18,0,0,1,.053.057q.051.073.027.116a.179.179,0,0,1-.055.05l-.7.492a.122.122,0,0,1-.065.022.123.123,0,0,1-.067-.015A.117.117,0,0,1,255.438,805.492Zm.26-.235.172-.121-.16-.09Z" transform="translate(-250.79 -788.359)" fill="#875017"/>
          <path id="Path_7984-2" data-name="Path 7984" d="M223.3,782.276l-.306-.219a.158.158,0,0,1-.048-.047.052.052,0,0,1,0-.042.252.252,0,0,1,.068-.1.048.048,0,0,1,.037-.011.156.156,0,0,1,.067.031l.4.29q.079.056.062.109a.218.218,0,0,1-.034.062l-.448.625a.426.426,0,0,1-.029.038.109.109,0,0,1-.032.022q-.037.019-.109-.032t-.064-.109a.278.278,0,0,1,.036-.062Z" transform="translate(-218.897 -766.171)" fill="#875017"/>
          <path id="Path_7985-2" data-name="Path 7985" d="M139.642,714.818a.182.182,0,1,1,.255.032A.161.161,0,0,1,139.642,714.818Z" transform="translate(-137.373 -700.236)" fill="#875017"/>
          <path id="Path_7986-2" data-name="Path 7986" d="M60.61,597.634l-.089-.24a.5.5,0,0,1,.011-.381.471.471,0,0,1,.279-.267.5.5,0,0,1,.391.012.487.487,0,0,1,.268.284l.089.237q.03.079,0,.11a.185.185,0,0,1-.077.047l-.72.27-.046.015a.116.116,0,0,1-.038,0Q60.641,597.717,60.61,597.634Zm.5-.652a.242.242,0,0,0-.2-.01.25.25,0,0,0-.148.139.255.255,0,0,0-.006.2l.047.124.489-.184-.047-.126A.258.258,0,0,0,61.108,596.982Z" transform="translate(-59.926 -584.902)" fill="#875017"/>
          <path id="Path_7987-2" data-name="Path 7987" d="M43.723,551.565l-.1-.413a.4.4,0,0,1-.01-.047.11.11,0,0,1,0-.039q.01-.041.1-.063t.122.022a.229.229,0,0,1,.026.068l.134.531q.024.094-.023.123a.215.215,0,0,1-.066.025l-.746.188a.134.134,0,0,1-.1,0,.144.144,0,0,1-.049-.09l-.134-.528a.4.4,0,0,1-.01-.047.111.111,0,0,1,0-.039q.01-.041.1-.063t.122.022a.231.231,0,0,1,.026.068l.1.412.135-.034-.067-.266a.4.4,0,0,1-.01-.047.111.111,0,0,1,0-.039q.01-.041.1-.063t.123.023a.233.233,0,0,1,.026.068l.066.263Z" transform="translate(-42.669 -540.144)" fill="#875017"/>
          <path id="Path_7988-2" data-name="Path 7988" d="M37.121,501.55l.716-.471a.181.181,0,0,1,.067-.033q.049-.007.1.068a.181.181,0,0,1,.033.07.074.074,0,0,1-.007.045.082.082,0,0,1-.023.028l-.038.027-.139.091.05.38.158.052.043.016a.1.1,0,0,1,.029.021.072.072,0,0,1,.019.042.182.182,0,0,1-.014.076q-.028.085-.077.091a.181.181,0,0,1-.073-.014l-.815-.269a.12.12,0,0,1-.057-.039.123.123,0,0,1-.028-.063A.117.117,0,0,1,37.121,501.55Zm.344.068.2.066-.024-.182Z" transform="translate(-36.991 -491.24)" fill="#875017"/>
          <path id="Path_7989-2" data-name="Path 7989" d="M34.44,464.012l-.008-.376a.157.157,0,0,1,.009-.067.053.053,0,0,1,.032-.028.253.253,0,0,1,.118,0,.047.047,0,0,1,.031.023.156.156,0,0,1,.015.072l.011.5q0,.1-.05.115a.215.215,0,0,1-.07.01l-.769.016H33.71a.112.112,0,0,1-.037-.012q-.038-.019-.04-.107t.049-.116a.278.278,0,0,1,.072-.008Z" transform="translate(-33.633 -454.514)" fill="#875017"/>
          <path id="Path_7990-2" data-name="Path 7990" d="M68.737,354.86a.182.182,0,1,1,.127.224A.161.161,0,0,1,68.737,354.86Z" transform="translate(-67.991 -347.984)" fill="#875017"/>
          <path id="Path_7991-2" data-name="Path 7991" d="M93.188,226.909l.139-.215a.5.5,0,0,1,.312-.219.472.472,0,0,1,.381.064.5.5,0,0,1,.224.321.487.487,0,0,1-.068.385l-.137.213q-.046.071-.086.07a.184.184,0,0,1-.083-.034l-.647-.416a.4.4,0,0,1-.04-.028.111.111,0,0,1-.023-.03Q93.14,226.984,93.188,226.909Zm.82.009a.242.242,0,0,0-.113-.168.25.25,0,0,0-.2-.036.256.256,0,0,0-.162.113l-.072.112.44.283.073-.113A.259.259,0,0,0,94.008,226.918Z" transform="translate(-91.907 -222.41)" fill="#875017"/>
          <path id="Path_7992-2" data-name="Path 7992" d="M122,183.689l.268-.331a.393.393,0,0,1,.032-.036.11.11,0,0,1,.033-.02q.039-.017.107.039t.056.111a.232.232,0,0,1-.039.061l-.345.426q-.061.075-.112.055a.216.216,0,0,1-.06-.038l-.6-.484a.134.134,0,0,1-.058-.081.144.144,0,0,1,.043-.093l.343-.423a.4.4,0,0,1,.032-.036.112.112,0,0,1,.033-.02q.039-.017.107.039t.056.111a.231.231,0,0,1-.039.061l-.267.33.109.088.172-.213a.4.4,0,0,1,.032-.036.111.111,0,0,1,.033-.02q.039-.017.107.039t.055.112a.232.232,0,0,1-.039.061l-.171.211Z" transform="translate(-119.446 -179.678)" fill="#875017"/>
          <path id="Path_7993-2" data-name="Path 7993" d="M163.654,157.105l.807.29a.181.181,0,0,1,.066.034q.035.036.006.12a.181.181,0,0,1-.036.069.074.074,0,0,1-.04.022.082.082,0,0,1-.036,0l-.044-.015-.156-.056-.274.268.053.157q.009.029.013.044a.1.1,0,0,1,0,.036.071.071,0,0,1-.022.04.181.181,0,0,1-.069.035q-.084.028-.119-.007a.181.181,0,0,1-.033-.067l-.274-.814a.121.121,0,0,1,0-.069.122.122,0,0,1,.033-.06A.117.117,0,0,1,163.654,157.105Zm.152.316.067.2.131-.129Z" transform="translate(-160.766 -154.499)" fill="#875017"/>
          <path id="Path_7994-2" data-name="Path 7994" d="M191.056,131.99l.3-.232a.157.157,0,0,1,.059-.033.052.052,0,0,1,.042.009.253.253,0,0,1,.072.093.048.048,0,0,1,0,.038.156.156,0,0,1-.048.055l-.392.307q-.076.06-.122.029a.219.219,0,0,1-.05-.05l-.474-.605a.391.391,0,0,1-.028-.039.109.109,0,0,1-.012-.037q-.008-.041.062-.1t.122-.031a.277.277,0,0,1,.05.052Z" transform="translate(-187.113 -129.329)" fill="#875017"/>
          <path id="Path_7995-2" data-name="Path 7995" d="M314.548,82a.182.182,0,1,1-.1.236A.161.161,0,0,1,314.548,82Z" transform="translate(-308.542 -80.958)" fill="#875017"/>
          <path id="Path_7996-2" data-name="Path 7996" d="M420.953,34.562l.255-.017a.5.5,0,0,1,.362.119.471.471,0,0,1,.177.344.5.5,0,0,1-.123.371.487.487,0,0,1-.349.176l-.252.018c-.056,0-.092-.005-.107-.027a.184.184,0,0,1-.023-.087l-.055-.767a.392.392,0,0,1,0-.048.108.108,0,0,1,.011-.037Q420.864,34.568,420.953,34.562Zm.484.662a.243.243,0,0,0,.067-.191.25.25,0,0,0-.091-.181.255.255,0,0,0-.188-.062l-.132.009.037.521.134-.01A.259.259,0,0,0,421.437,35.224Z" transform="translate(-412.723 -34.514)" fill="#875017"/>
          <path id="Path_7997-2" data-name="Path 7997" d="M469.717,33.918l.426.016.048,0a.111.111,0,0,1,.036.015q.037.021.033.109t-.055.111a.231.231,0,0,1-.072.006l-.547-.021q-.1,0-.111-.057a.22.22,0,0,1-.006-.071l.029-.768a.134.134,0,0,1,.03-.1.144.144,0,0,1,.1-.022l.545.02.048,0a.111.111,0,0,1,.036.015q.037.021.033.109t-.055.111a.231.231,0,0,1-.072.006l-.424-.016-.005.14.274.01.048,0a.111.111,0,0,1,.036.015c.024.014.035.05.033.109s-.021.1-.057.111a.232.232,0,0,1-.072.006l-.271-.01Z" transform="translate(-460.334 -33.144)" fill="#875017"/>
          <path id="Path_7998-2" data-name="Path 7998" d="M510.008,38.454l.252.82a.182.182,0,0,1,.013.073q-.008.049-.093.077a.181.181,0,0,1-.077.012.074.074,0,0,1-.042-.019.081.081,0,0,1-.021-.03c0-.01-.009-.025-.015-.044l-.048-.159-.379-.058-.094.137-.027.036a.1.1,0,0,1-.029.021.071.071,0,0,1-.046.006.181.181,0,0,1-.07-.034q-.074-.05-.066-.1a.179.179,0,0,1,.034-.066l.487-.707a.121.121,0,0,1,.054-.044.123.123,0,0,1,.068-.009A.117.117,0,0,1,510.008,38.454Zm-.161.311-.119.173.182.028Z" transform="translate(-499.299 -38.255)" fill="#875017"/>
          <path id="Path_7999-2" data-name="Path 7999" d="M560.2,46.046l.363.1a.158.158,0,0,1,.061.027.052.052,0,0,1,.018.039.2.2,0,0,1-.009.059.206.206,0,0,1-.022.055.048.048,0,0,1-.031.023.156.156,0,0,1-.073-.005l-.481-.13q-.093-.025-.1-.08a.218.218,0,0,1,.01-.07l.2-.742a.386.386,0,0,1,.014-.046.112.112,0,0,1,.022-.032c.019-.021.057-.023.114-.008s.095.043.1.079a.273.273,0,0,1-.012.071Z" transform="translate(-548.899 -44.97)" fill="#875017"/>
          <path id="Path_8000-2" data-name="Path 8000" d="M680.106,115.479a.182.182,0,1,1-.25.058A.161.161,0,0,1,680.106,115.479Z" transform="translate(-666.278 -113.718)" fill="#875017"/>
          <path id="Path_8001-2" data-name="Path 8001" d="M757.149,170.991l.167.194a.5.5,0,0,1,.122.361.471.471,0,0,1-.169.348.5.5,0,0,1-.371.125.487.487,0,0,1-.35-.173l-.166-.191c-.037-.042-.051-.076-.043-.1a.184.184,0,0,1,.056-.071l.581-.5a.4.4,0,0,1,.038-.03.11.11,0,0,1,.036-.014Q757.091,170.924,757.149,170.991Zm-.24.785a.242.242,0,0,0,.193-.061.25.25,0,0,0,.09-.182.256.256,0,0,0-.063-.188l-.087-.1-.395.343.088.1A.258.258,0,0,0,756.909,171.775Z" transform="translate(-741.193 -168.045)" fill="#875017"/>
          <path id="Path_8002-2" data-name="Path 8002" d="M786.077,210.293l.242.35a.405.405,0,0,1,.026.04.112.112,0,0,1,.01.038q.005.042-.068.092t-.122.022a.23.23,0,0,1-.047-.054l-.312-.451c-.037-.053-.044-.094-.021-.123a.215.215,0,0,1,.053-.047l.633-.437a.134.134,0,0,1,.094-.033.144.144,0,0,1,.078.067l.31.448a.423.423,0,0,1,.026.04.112.112,0,0,1,.01.038q.005.042-.068.092t-.122.022a.231.231,0,0,1-.048-.054l-.241-.349-.115.079.156.225a.363.363,0,0,1,.025.04.108.108,0,0,1,.01.038q.005.042-.068.092c-.053.037-.094.044-.123.021a.228.228,0,0,1-.048-.054l-.154-.223Z" transform="translate(-770.011 -205.99)" fill="#875017"/>
          <path id="Path_8003-2" data-name="Path 8003" d="M809.942,263.512l-.506.692a.18.18,0,0,1-.051.054q-.044.023-.117-.028a.183.183,0,0,1-.055-.054.075.075,0,0,1-.01-.045.084.084,0,0,1,.012-.034l.027-.038.1-.134-.18-.338-.166.007h-.046a.1.1,0,0,1-.034-.01.071.071,0,0,1-.032-.033.183.183,0,0,1-.014-.076q0-.089.041-.112a.179.179,0,0,1,.073-.012l.858-.034a.127.127,0,0,1,.115.066A.117.117,0,0,1,809.942,263.512Zm-.346.057-.21.008.086.162Z" transform="translate(-792.621 -258.491)" fill="#875017"/>
          <path id="Path_8004-2" data-name="Path 8004" d="M831.72,297l.139.35a.158.158,0,0,1,.015.066.052.052,0,0,1-.02.038.2.2,0,0,1-.052.028.2.2,0,0,1-.057.015.048.048,0,0,1-.037-.011.155.155,0,0,1-.039-.062l-.184-.463q-.036-.09.007-.125a.216.216,0,0,1,.063-.034l.715-.283.045-.016a.11.11,0,0,1,.039,0q.042,0,.074.087c.024.06.022.1-.005.126a.274.274,0,0,1-.064.033Z" transform="translate(-814.75 -290.987)" fill="#875017"/>
          <path id="Path_8005-2" data-name="Path 8005" d="M855.259,341.346a.182.182,0,1,1-.228-.119A.161.161,0,0,1,855.259,341.346Z" transform="translate(-837.689 -334.758)" fill="#875017"/>
          <path id="Path_8006-2" data-name="Path 8006" d="M864.5,450.239l0,.256a.5.5,0,0,1-.139.355.471.471,0,0,1-.353.158.5.5,0,0,1-.364-.143.487.487,0,0,1-.157-.358l0-.253c0-.056.01-.091.033-.106a.183.183,0,0,1,.088-.018l.769-.012a.385.385,0,0,1,.048,0,.111.111,0,0,1,.036.013C864.488,450.145,864.5,450.18,864.5,450.239Zm-.688.447a.242.242,0,0,0,.187.077.25.25,0,0,0,.186-.081.255.255,0,0,0,.072-.184l0-.133-.523.009,0,.134A.258.258,0,0,0,863.815,450.686Z" transform="translate(-846.099 -441.381)" fill="#875017"/>
          <path id="Path_8007-2" data-name="Path 8007" d="M860.184,497.067l-.045.424a.4.4,0,0,1-.007.047.112.112,0,0,1-.017.035q-.023.035-.111.026c-.064-.007-.1-.028-.107-.063a.228.228,0,0,1,0-.072l.058-.545c.007-.064.028-.1.064-.107a.22.22,0,0,1,.071,0l.765.082a.134.134,0,0,1,.093.036.145.145,0,0,1,.015.1l-.058.542a.4.4,0,0,1-.007.047.111.111,0,0,1-.017.035c-.016.023-.053.032-.111.026s-.1-.028-.107-.063a.23.23,0,0,1,0-.072l.045-.422-.139-.015-.029.272a.407.407,0,0,1-.007.047.111.111,0,0,1-.017.035c-.015.023-.053.032-.111.026s-.1-.028-.107-.064a.234.234,0,0,1,0-.072l.029-.27Z" transform="translate(-842.578 -487.092)" fill="#875017"/>
          <path id="Path_8008-2" data-name="Path 8008" d="M850.62,537.19l-.835.194a.179.179,0,0,1-.074.007q-.049-.011-.07-.1a.183.183,0,0,1-.007-.077.074.074,0,0,1,.022-.04.082.082,0,0,1,.031-.018l.045-.012.161-.037.084-.374-.13-.1-.034-.03a.1.1,0,0,1-.019-.03.07.07,0,0,1,0-.046.18.18,0,0,1,.039-.067q.055-.07.1-.059a.18.18,0,0,1,.064.038l.672.534a.121.121,0,0,1,.04.056.124.124,0,0,1,0,.068A.117.117,0,0,1,850.62,537.19Zm-.3-.182-.165-.131-.04.179Z" transform="translate(-832.533 -525.854)" fill="#875017"/>
          <path id="Path_8009-2" data-name="Path 8009" d="M837.733,586.532l-.123.355a.155.155,0,0,1-.032.059.051.051,0,0,1-.04.015.2.2,0,0,1-.058-.013.2.2,0,0,1-.053-.026.048.048,0,0,1-.021-.032.155.155,0,0,1,.01-.073l.163-.47q.032-.092.087-.09a.219.219,0,0,1,.069.015l.726.252.045.018a.112.112,0,0,1,.03.024c.019.02.019.058,0,.114s-.05.091-.086.092a.281.281,0,0,1-.07-.017Z" transform="translate(-820.562 -574.668)" fill="#875017"/>
          <path id="Path_8010-2" data-name="Path 8010" d="M796.167,703.589a.182.182,0,1,1-.041-.254A.161.161,0,0,1,796.167,703.589Z" transform="translate(-779.856 -689.248)" fill="#875017"/>
          <path id="Path_8011-2" data-name="Path 8011" d="M701.352,775.236l-.205.153a.5.5,0,0,1-.369.1.471.471,0,0,1-.335-.192.5.5,0,0,1-.1-.378.488.488,0,0,1,.2-.337l.2-.152q.067-.051.1-.036a.182.182,0,0,1,.067.061l.463.614a.392.392,0,0,1,.027.04.111.111,0,0,1,.011.037C701.42,775.169,701.4,775.2,701.352,775.236Zm-.766-.293a.243.243,0,0,0,.048.2.25.25,0,0,0,.175.1.256.256,0,0,0,.192-.05l.106-.08-.315-.418-.107.081A.259.259,0,0,0,700.586,774.943Z" transform="translate(-686.368 -758.854)" fill="#875017"/>
          <path id="Path_8012-2" data-name="Path 8012" d="M657.4,801.654l-.366.217a.405.405,0,0,1-.042.023.112.112,0,0,1-.038.007c-.028,0-.057-.023-.087-.074s-.038-.1-.014-.124a.234.234,0,0,1,.058-.044l.471-.28c.056-.033.1-.037.124-.013a.219.219,0,0,1,.043.056l.392.661a.134.134,0,0,1,.027.1q-.01.035-.073.073l-.469.278-.042.023a.11.11,0,0,1-.038.007c-.028,0-.057-.023-.087-.074s-.037-.1-.014-.124a.228.228,0,0,1,.058-.044l.365-.217-.071-.12-.235.14-.042.023a.117.117,0,0,1-.038.007c-.028,0-.057-.023-.087-.074s-.037-.1-.013-.124a.231.231,0,0,1,.058-.044l.233-.138Z" transform="translate(-643.781 -785.255)" fill="#875017"/>
          <path id="Path_8013-2" data-name="Path 8013" d="M612.163,823.068l-.656-.552a.182.182,0,0,1-.05-.055c-.014-.03,0-.069.037-.115a.183.183,0,0,1,.058-.052.074.074,0,0,1,.046-.007.08.08,0,0,1,.033.014l.036.029.127.107.35-.156,0-.166q0-.031,0-.045a.1.1,0,0,1,.012-.034.071.071,0,0,1,.035-.03.181.181,0,0,1,.077-.009q.089,0,.109.048a.18.18,0,0,1,.007.074l-.026.858a.127.127,0,0,1-.074.11A.117.117,0,0,1,612.163,823.068Zm-.033-.349.006-.21-.168.075Z" transform="translate(-599.343 -805.468)" fill="#875017"/>
          <path id="Path_8014-2" data-name="Path 8014" d="M575.864,841.714l-.359.114a.159.159,0,0,1-.066.01.052.052,0,0,1-.036-.023.2.2,0,0,1-.024-.054.2.2,0,0,1-.011-.058.048.048,0,0,1,.013-.036.155.155,0,0,1,.064-.035l.474-.151q.092-.029.124.016a.214.214,0,0,1,.029.065l.233.733a.4.4,0,0,1,.013.046.111.111,0,0,1,0,.039q-.007.041-.091.068t-.125-.014a.284.284,0,0,1-.029-.066Z" transform="translate(-564.015 -824.532)" fill="#875017"/>
          <path id="Path_8015-2" data-name="Path 8015" d="M471.2,874.061a.182.182,0,1,1,.179-.185A.161.161,0,0,1,471.2,874.061Z" transform="translate(-461.848 -856.084)" fill="#875017"/>
        </g>
        <g id="Group_6177-2" data-name="Group 6177" transform="translate(0 0.107)" style="mix-blend-mode: soft-light;isolation: isolate">
          <path id="Path_8016-2" data-name="Path 8016" d="M335.312,854.094l-.245-.073a.5.5,0,0,1-.3-.237.471.471,0,0,1-.047-.384.5.5,0,0,1,.244-.306.487.487,0,0,1,.388-.044l.243.071c.054.016.084.037.091.063a.183.183,0,0,1-.009.09l-.215.738a.365.365,0,0,1-.016.046.106.106,0,0,1-.023.031Q335.4,854.118,335.312,854.094Zm-.224-.789a.242.242,0,0,0-.129.156.25.25,0,0,0,.023.2.255.255,0,0,0,.155.124l.128.037.146-.5-.129-.037A.259.259,0,0,0,335.087,853.3Z" transform="translate(-328.391 -835.954)" fill="#fdf193"/>
          <path id="Path_8017-2" data-name="Path 8017" d="M288.195,833.146l-.393-.163-.043-.02a.112.112,0,0,1-.029-.026q-.027-.032.007-.114t.091-.085a.236.236,0,0,1,.07.02l.506.21q.089.037.084.092a.219.219,0,0,1-.019.068l-.3.71a.134.134,0,0,1-.061.079.145.145,0,0,1-.1-.015l-.5-.209a.393.393,0,0,1-.043-.02.111.111,0,0,1-.029-.026c-.018-.021-.016-.059.007-.114s.055-.088.091-.085a.23.23,0,0,1,.07.02l.392.163.054-.129-.253-.105a.41.41,0,0,1-.043-.02.112.112,0,0,1-.029-.026c-.018-.022-.016-.06.007-.114s.056-.088.092-.084a.229.229,0,0,1,.07.02l.25.1Z" transform="translate(-282.104 -816.088)" fill="#fdf193"/>
          <path id="Path_8018-2" data-name="Path 8018" d="M255.438,810.581l.051-.856a.18.18,0,0,1,.014-.073q.024-.043.114-.039a.179.179,0,0,1,.076.016.073.073,0,0,1,.033.032.082.082,0,0,1,.009.035q0,.016,0,.047l-.01.165.334.187.136-.1.038-.025a.1.1,0,0,1,.034-.01.07.07,0,0,1,.045.01.182.182,0,0,1,.053.057c.034.049.043.087.027.116a.181.181,0,0,1-.055.05l-.7.492a.127.127,0,0,1-.132.007A.117.117,0,0,1,255.438,810.581Zm.26-.235.172-.121-.16-.09Z" transform="translate(-250.79 -793.448)" fill="#fdf193"/>
          <path id="Path_8019-2" data-name="Path 8019" d="M223.3,787.366l-.306-.219a.157.157,0,0,1-.048-.047.052.052,0,0,1,0-.042.2.2,0,0,1,.029-.052.2.2,0,0,1,.04-.044.048.048,0,0,1,.037-.011.155.155,0,0,1,.067.031l.4.29c.052.038.073.074.062.109a.216.216,0,0,1-.034.062l-.448.625a.405.405,0,0,1-.029.038.109.109,0,0,1-.032.022c-.025.013-.061,0-.109-.032s-.074-.074-.064-.109a.278.278,0,0,1,.036-.062Z" transform="translate(-218.897 -771.261)" fill="#fdf193"/>
          <path id="Path_8020-2" data-name="Path 8020" d="M139.642,719.908a.182.182,0,1,1,.255.032A.161.161,0,0,1,139.642,719.908Z" transform="translate(-137.373 -705.326)" fill="#fdf193"/>
          <path id="Path_8021-2" data-name="Path 8021" d="M60.61,602.724l-.089-.24a.5.5,0,0,1,.011-.381.471.471,0,0,1,.279-.267.5.5,0,0,1,.391.012.487.487,0,0,1,.268.284l.089.237q.03.079,0,.111a.186.186,0,0,1-.077.047l-.72.27a.4.4,0,0,1-.046.015.113.113,0,0,1-.038,0Q60.641,602.807,60.61,602.724Zm.5-.652a.243.243,0,0,0-.2-.01.25.25,0,0,0-.148.139.255.255,0,0,0-.006.2l.047.124.489-.184-.047-.126A.259.259,0,0,0,61.108,602.072Z" transform="translate(-59.926 -589.992)" fill="#fdf193"/>
          <path id="Path_8022-2" data-name="Path 8022" d="M43.723,556.655l-.1-.413a.4.4,0,0,1-.01-.047.111.111,0,0,1,0-.039q.01-.041.1-.063t.122.022a.23.23,0,0,1,.026.068l.134.531q.024.094-.023.123a.218.218,0,0,1-.066.025l-.746.188a.135.135,0,0,1-.1,0,.145.145,0,0,1-.049-.09l-.134-.528a.4.4,0,0,1-.01-.047.112.112,0,0,1,0-.039c.006-.027.038-.048.1-.063s.1-.009.122.022a.231.231,0,0,1,.026.068l.1.412.135-.034-.067-.266a.406.406,0,0,1-.01-.047.112.112,0,0,1,0-.039q.01-.041.1-.063t.123.023a.23.23,0,0,1,.026.068l.066.263Z" transform="translate(-42.669 -545.234)" fill="#fdf193"/>
          <path id="Path_8023-2" data-name="Path 8023" d="M37.121,506.64l.716-.471a.181.181,0,0,1,.067-.033q.049-.007.1.068a.181.181,0,0,1,.033.07.074.074,0,0,1-.007.046.083.083,0,0,1-.023.028l-.038.027-.139.091.05.38.158.052.043.016a.1.1,0,0,1,.029.021.072.072,0,0,1,.019.042.182.182,0,0,1-.014.076q-.028.084-.077.091a.181.181,0,0,1-.073-.014l-.815-.269a.12.12,0,0,1-.057-.039.122.122,0,0,1-.028-.062A.117.117,0,0,1,37.121,506.64Zm.344.067.2.066-.024-.182Z" transform="translate(-36.991 -496.33)" fill="#fdf193"/>
          <path id="Path_8024-2" data-name="Path 8024" d="M34.44,469.1l-.008-.376a.157.157,0,0,1,.009-.067.053.053,0,0,1,.032-.028.2.2,0,0,1,.059-.008.2.2,0,0,1,.059.006.047.047,0,0,1,.031.023.156.156,0,0,1,.015.072l.011.5q0,.1-.05.115a.216.216,0,0,1-.07.01l-.769.016H33.71a.113.113,0,0,1-.037-.012q-.038-.018-.04-.107c0-.065.015-.1.049-.116a.277.277,0,0,1,.072-.008Z" transform="translate(-33.633 -459.603)" fill="#fdf193"/>
          <path id="Path_8025-2" data-name="Path 8025" d="M68.737,359.95a.182.182,0,1,1,.127.224A.161.161,0,0,1,68.737,359.95Z" transform="translate(-67.991 -353.074)" fill="#fdf193"/>
          <path id="Path_8026-2" data-name="Path 8026" d="M93.188,232l.139-.215a.5.5,0,0,1,.312-.219.471.471,0,0,1,.381.064.5.5,0,0,1,.224.321.487.487,0,0,1-.068.385l-.137.213q-.046.071-.086.07a.185.185,0,0,1-.083-.034l-.647-.416a.4.4,0,0,1-.04-.028.112.112,0,0,1-.023-.03Q93.14,232.074,93.188,232Zm.82.009a.242.242,0,0,0-.113-.168.25.25,0,0,0-.2-.036.256.256,0,0,0-.162.113l-.072.112.44.283.073-.113A.259.259,0,0,0,94.008,232.008Z" transform="translate(-91.907 -227.5)" fill="#fdf193"/>
          <path id="Path_8027-2" data-name="Path 8027" d="M122,188.779l.268-.331a.388.388,0,0,1,.032-.036.11.11,0,0,1,.033-.02q.039-.017.107.039t.056.111a.232.232,0,0,1-.039.061l-.345.426q-.061.075-.112.055a.217.217,0,0,1-.06-.038l-.6-.484a.134.134,0,0,1-.058-.081.145.145,0,0,1,.043-.093l.343-.423a.409.409,0,0,1,.032-.036.111.111,0,0,1,.033-.02q.039-.017.107.039t.056.111a.232.232,0,0,1-.039.061l-.267.33.109.088.172-.213a.4.4,0,0,1,.032-.036.111.111,0,0,1,.033-.02q.039-.017.107.039t.055.112a.232.232,0,0,1-.039.061l-.171.211Z" transform="translate(-119.446 -184.768)" fill="#fdf193"/>
          <path id="Path_8028-2" data-name="Path 8028" d="M163.654,162.2l.807.29a.182.182,0,0,1,.066.034q.035.036.006.12a.181.181,0,0,1-.036.069.073.073,0,0,1-.04.022.082.082,0,0,1-.036,0l-.044-.015-.156-.056-.274.268.053.157c.006.02.011.034.013.044a.1.1,0,0,1,0,.036.071.071,0,0,1-.022.04.182.182,0,0,1-.069.035q-.084.028-.119-.007a.181.181,0,0,1-.033-.067l-.274-.814a.121.121,0,0,1,0-.069.123.123,0,0,1,.033-.06A.117.117,0,0,1,163.654,162.2Zm.152.316.067.2.131-.129Z" transform="translate(-160.766 -159.589)" fill="#fdf193"/>
          <path id="Path_8029-2" data-name="Path 8029" d="M191.056,137.08l.3-.232a.157.157,0,0,1,.059-.033.052.052,0,0,1,.042.009.253.253,0,0,1,.072.093.048.048,0,0,1,0,.038.156.156,0,0,1-.048.055l-.392.307q-.076.06-.122.029a.217.217,0,0,1-.05-.05l-.474-.605a.394.394,0,0,1-.028-.039.11.11,0,0,1-.012-.037q-.008-.041.062-.1t.122-.031a.277.277,0,0,1,.05.052Z" transform="translate(-187.113 -134.419)" fill="#fdf193"/>
          <path id="Path_8030-2" data-name="Path 8030" d="M314.548,87.09a.182.182,0,1,1-.1.236A.161.161,0,0,1,314.548,87.09Z" transform="translate(-308.542 -86.048)" fill="#fdf193"/>
          <path id="Path_8031-2" data-name="Path 8031" d="M420.953,39.651l.255-.017a.5.5,0,0,1,.362.119.471.471,0,0,1,.177.344.5.5,0,0,1-.123.371.487.487,0,0,1-.349.176l-.252.018c-.056,0-.092-.005-.107-.027a.184.184,0,0,1-.023-.087l-.055-.767a.392.392,0,0,1,0-.048.108.108,0,0,1,.011-.037Q420.864,39.658,420.953,39.651Zm.484.662a.243.243,0,0,0,.067-.191.25.25,0,0,0-.091-.181.256.256,0,0,0-.188-.062l-.132.009.037.521.134-.01A.259.259,0,0,0,421.437,40.314Z" transform="translate(-412.723 -39.604)" fill="#fdf193"/>
          <path id="Path_8032-2" data-name="Path 8032" d="M469.717,39.007l.426.016.048,0a.111.111,0,0,1,.036.015q.037.021.033.109t-.055.111a.233.233,0,0,1-.072.006l-.547-.021q-.1,0-.111-.057a.219.219,0,0,1-.006-.071l.029-.768a.134.134,0,0,1,.03-.1.145.145,0,0,1,.1-.022l.545.021.048,0a.111.111,0,0,1,.036.015q.037.021.033.109t-.055.111a.232.232,0,0,1-.072.006l-.424-.016-.005.14.274.01.048,0a.111.111,0,0,1,.036.015c.024.014.035.05.033.109s-.021.1-.057.111a.231.231,0,0,1-.072.006l-.271-.01Z" transform="translate(-460.334 -38.234)" fill="#fdf193"/>
          <path id="Path_8033-2" data-name="Path 8033" d="M510.008,43.544l.252.82a.182.182,0,0,1,.013.073q-.008.049-.093.077a.181.181,0,0,1-.077.012.074.074,0,0,1-.042-.019.081.081,0,0,1-.021-.03c0-.01-.009-.025-.015-.044l-.048-.159-.379-.058-.094.137-.027.036a.1.1,0,0,1-.029.021.071.071,0,0,1-.046.006.181.181,0,0,1-.07-.034q-.074-.05-.066-.1a.179.179,0,0,1,.034-.066l.487-.707a.121.121,0,0,1,.054-.044.123.123,0,0,1,.068-.009A.117.117,0,0,1,510.008,43.544Zm-.161.311-.119.173.182.028Z" transform="translate(-499.299 -43.345)" fill="#fdf193"/>
          <path id="Path_8034-2" data-name="Path 8034" d="M560.2,51.136l.363.1a.158.158,0,0,1,.061.027.052.052,0,0,1,.018.039.2.2,0,0,1-.009.059.206.206,0,0,1-.022.055.048.048,0,0,1-.031.023.156.156,0,0,1-.073-.005l-.481-.13q-.093-.025-.1-.08a.218.218,0,0,1,.01-.07l.2-.742a.386.386,0,0,1,.014-.046.112.112,0,0,1,.022-.032c.019-.021.057-.023.114-.008s.095.043.1.079a.272.272,0,0,1-.012.071Z" transform="translate(-548.899 -50.06)" fill="#fdf193"/>
          <path id="Path_8035-2" data-name="Path 8035" d="M680.106,120.569a.182.182,0,1,1-.25.058A.161.161,0,0,1,680.106,120.569Z" transform="translate(-666.278 -118.807)" fill="#fdf193"/>
          <path id="Path_8036-2" data-name="Path 8036" d="M757.149,176.08l.167.194a.5.5,0,0,1,.122.361.471.471,0,0,1-.169.348.5.5,0,0,1-.371.125.487.487,0,0,1-.35-.173l-.166-.191c-.037-.042-.051-.076-.043-.1a.184.184,0,0,1,.056-.071l.581-.5a.4.4,0,0,1,.038-.03.11.11,0,0,1,.036-.014Q757.091,176.013,757.149,176.08Zm-.24.785a.243.243,0,0,0,.193-.061.25.25,0,0,0,.09-.182.256.256,0,0,0-.063-.188l-.087-.1-.395.343.088.1A.258.258,0,0,0,756.909,176.865Z" transform="translate(-741.193 -173.134)" fill="#fdf193"/>
          <path id="Path_8037-2" data-name="Path 8037" d="M786.077,215.382l.242.35a.4.4,0,0,1,.026.04.112.112,0,0,1,.01.038q.005.042-.068.092t-.122.022a.23.23,0,0,1-.047-.054l-.312-.451c-.037-.053-.044-.094-.021-.123a.215.215,0,0,1,.053-.047l.633-.437a.134.134,0,0,1,.094-.033.144.144,0,0,1,.078.067l.31.448a.429.429,0,0,1,.026.04.112.112,0,0,1,.01.038q.005.042-.068.092t-.122.022a.231.231,0,0,1-.048-.054l-.241-.349-.115.079.156.225a.365.365,0,0,1,.025.04.109.109,0,0,1,.01.038q.005.042-.068.092c-.053.037-.094.044-.123.021a.229.229,0,0,1-.048-.054l-.154-.223Z" transform="translate(-770.011 -211.079)" fill="#fdf193"/>
          <path id="Path_8038-2" data-name="Path 8038" d="M809.942,268.6l-.506.692a.182.182,0,0,1-.051.054q-.044.023-.117-.029a.182.182,0,0,1-.055-.054.075.075,0,0,1-.01-.045.085.085,0,0,1,.012-.034l.027-.038.1-.134-.18-.338-.166.007h-.046a.1.1,0,0,1-.034-.01.072.072,0,0,1-.032-.033.183.183,0,0,1-.014-.076q0-.089.041-.112a.179.179,0,0,1,.073-.012l.858-.034a.127.127,0,0,1,.115.066A.117.117,0,0,1,809.942,268.6Zm-.346.057-.21.009.086.162Z" transform="translate(-792.621 -263.581)" fill="#fdf193"/>
          <path id="Path_8039-2" data-name="Path 8039" d="M831.72,302.095l.139.35a.158.158,0,0,1,.015.066.052.052,0,0,1-.02.038.251.251,0,0,1-.109.043.048.048,0,0,1-.037-.011.155.155,0,0,1-.039-.062l-.184-.463q-.036-.09.007-.125a.218.218,0,0,1,.063-.034l.715-.283.045-.016a.11.11,0,0,1,.039,0q.042,0,.074.087c.024.06.022.1-.005.126a.274.274,0,0,1-.064.033Z" transform="translate(-814.75 -296.077)" fill="#fdf193"/>
          <path id="Path_8040-2" data-name="Path 8040" d="M855.259,346.435a.182.182,0,1,1-.228-.119A.161.161,0,0,1,855.259,346.435Z" transform="translate(-837.689 -339.847)" fill="#fdf193"/>
          <path id="Path_8041-2" data-name="Path 8041" d="M864.5,455.329l0,.256a.5.5,0,0,1-.139.355.471.471,0,0,1-.353.158.5.5,0,0,1-.364-.143.488.488,0,0,1-.157-.358l0-.253c0-.056.01-.091.033-.106a.185.185,0,0,1,.088-.018l.769-.012h.048a.111.111,0,0,1,.036.013C864.488,455.234,864.5,455.27,864.5,455.329Zm-.688.447a.242.242,0,0,0,.187.077.25.25,0,0,0,.186-.081.255.255,0,0,0,.072-.184l0-.133-.523.008,0,.134A.258.258,0,0,0,863.815,455.776Z" transform="translate(-846.099 -446.47)" fill="#fdf193"/>
          <path id="Path_8042-2" data-name="Path 8042" d="M860.184,502.157l-.045.424a.405.405,0,0,1-.007.047.115.115,0,0,1-.017.035c-.016.023-.053.032-.111.026s-.1-.028-.107-.063a.228.228,0,0,1,0-.072l.058-.545q.01-.1.064-.107a.218.218,0,0,1,.071,0l.765.082a.134.134,0,0,1,.093.036.145.145,0,0,1,.015.1l-.058.542a.405.405,0,0,1-.007.047.112.112,0,0,1-.017.035c-.016.023-.053.032-.111.026s-.1-.028-.107-.063a.23.23,0,0,1,0-.072l.045-.422-.139-.015-.029.272a.407.407,0,0,1-.007.047.109.109,0,0,1-.017.035c-.015.023-.053.032-.111.026s-.1-.028-.107-.064a.235.235,0,0,1,0-.072l.029-.27Z" transform="translate(-842.578 -492.182)" fill="#fdf193"/>
          <path id="Path_8043-2" data-name="Path 8043" d="M850.62,542.28l-.835.194a.183.183,0,0,1-.074.007q-.049-.011-.07-.1a.183.183,0,0,1-.007-.077.075.075,0,0,1,.022-.041.083.083,0,0,1,.031-.018l.045-.012.161-.037.084-.374-.13-.1-.034-.03a.1.1,0,0,1-.019-.03.071.071,0,0,1,0-.046.181.181,0,0,1,.039-.067q.055-.07.1-.059a.182.182,0,0,1,.064.039l.672.534a.12.12,0,0,1,.04.056.124.124,0,0,1,0,.068A.117.117,0,0,1,850.62,542.28Zm-.3-.182-.165-.131-.04.179Z" transform="translate(-832.533 -530.943)" fill="#fdf193"/>
          <path id="Path_8044-2" data-name="Path 8044" d="M837.733,591.622l-.123.355a.155.155,0,0,1-.032.059.051.051,0,0,1-.04.015.2.2,0,0,1-.058-.013.207.207,0,0,1-.053-.026.048.048,0,0,1-.021-.032.154.154,0,0,1,.01-.072l.163-.47q.032-.092.087-.09a.215.215,0,0,1,.069.015l.726.252.045.018a.11.11,0,0,1,.03.025q.029.03,0,.114c-.021.061-.05.091-.086.092a.282.282,0,0,1-.07-.017Z" transform="translate(-820.562 -579.758)" fill="#fdf193"/>
          <path id="Path_8045-2" data-name="Path 8045" d="M796.167,708.679a.182.182,0,1,1-.041-.254A.161.161,0,0,1,796.167,708.679Z" transform="translate(-779.856 -694.337)" fill="#fdf193"/>
          <path id="Path_8046-2" data-name="Path 8046" d="M701.352,780.326l-.205.153a.5.5,0,0,1-.369.1.471.471,0,0,1-.335-.192.5.5,0,0,1-.1-.378.488.488,0,0,1,.2-.337l.2-.152c.045-.034.08-.046.1-.036a.183.183,0,0,1,.067.061l.463.614a.407.407,0,0,1,.027.04.111.111,0,0,1,.011.037C701.42,780.259,701.4,780.291,701.352,780.326Zm-.766-.293a.243.243,0,0,0,.048.2.25.25,0,0,0,.175.1.255.255,0,0,0,.192-.05l.106-.08-.315-.417-.107.081A.259.259,0,0,0,700.586,780.033Z" transform="translate(-686.368 -763.944)" fill="#fdf193"/>
          <path id="Path_8047-2" data-name="Path 8047" d="M657.4,806.744l-.366.217a.393.393,0,0,1-.042.023.109.109,0,0,1-.038.007q-.042,0-.087-.074c-.033-.056-.038-.1-.014-.124a.229.229,0,0,1,.058-.044l.471-.279q.083-.049.124-.013a.218.218,0,0,1,.043.056l.392.661a.135.135,0,0,1,.027.1c-.006.024-.031.048-.073.073l-.469.278a.424.424,0,0,1-.042.022.11.11,0,0,1-.038.008c-.028,0-.057-.023-.087-.074s-.037-.1-.014-.124a.229.229,0,0,1,.058-.044l.365-.217-.071-.12-.235.14-.042.023a.114.114,0,0,1-.038.007c-.028,0-.057-.023-.087-.074s-.037-.1-.013-.124a.228.228,0,0,1,.058-.044l.233-.138Z" transform="translate(-643.781 -790.345)" fill="#fdf193"/>
          <path id="Path_8048-2" data-name="Path 8048" d="M612.163,828.158l-.656-.552a.182.182,0,0,1-.05-.055c-.014-.03,0-.068.037-.115a.186.186,0,0,1,.058-.052.075.075,0,0,1,.046-.007.08.08,0,0,1,.033.014l.036.029.127.107.35-.156,0-.166c0-.021,0-.036,0-.045a.1.1,0,0,1,.012-.034.072.072,0,0,1,.035-.03.181.181,0,0,1,.077-.009q.089,0,.109.048a.179.179,0,0,1,.007.074l-.026.858a.127.127,0,0,1-.074.11A.117.117,0,0,1,612.163,828.158Zm-.033-.349.006-.21-.168.075Z" transform="translate(-599.343 -810.558)" fill="#fdf193"/>
          <path id="Path_8049-2" data-name="Path 8049" d="M575.864,846.8l-.359.114a.158.158,0,0,1-.066.01.052.052,0,0,1-.036-.023.253.253,0,0,1-.036-.112.048.048,0,0,1,.013-.036.154.154,0,0,1,.064-.035l.474-.151q.092-.029.124.016a.214.214,0,0,1,.029.065l.233.733a.4.4,0,0,1,.013.046.111.111,0,0,1,0,.039q-.007.042-.091.068t-.125-.014a.282.282,0,0,1-.029-.066Z" transform="translate(-564.015 -829.622)" fill="#fdf193"/>
          <path id="Path_8050-2" data-name="Path 8050" d="M471.2,879.15a.182.182,0,1,1,.179-.185A.161.161,0,0,1,471.2,879.15Z" transform="translate(-461.848 -861.173)" fill="#fdf193"/>
        </g>
      </g>
      <g id="Group_6185-2" data-name="Group 6185" transform="translate(10.337 8.729)">
        <g id="Group_6181-2" data-name="Group 6181" transform="translate(0.298 0)">
          <g id="Group_6180-2" data-name="Group 6180">
            <path id="Path_8051-2" data-name="Path 8051" d="M424.774,440.939h0a1.025,1.025,0,0,0,1.025-1.025v-1.1h-1.025a1.025,1.025,0,0,0-1.025,1.025v.078A1.025,1.025,0,0,0,424.774,440.939Z" transform="translate(-421.401 -434.242)" fill="#ebd673"/>
            <g id="Group_6179-2" data-name="Group 6179">
              <path id="Path_8052-2" data-name="Path 8052" d="M316.687,325.463a1.576,1.576,0,0,1-1.576,1.576h0a1.576,1.576,0,0,1-1.576-1.576v-.12a1.576,1.576,0,0,1,1.576-1.576h1v-1.819h-.923a3.482,3.482,0,0,0-3.482,3.482v.227a3.391,3.391,0,0,0,3.482,3.308,3.119,3.119,0,0,0,3.263-3.089v-1.535l-1.765.008Z" transform="translate(-311.707 -319.828)" fill="#ebd673"/>
              <path id="Path_8053-2" data-name="Path 8053" d="M551.114,222.913v-2.1s-1.746-.26-1.746,1.308l-.012,2.509v.106h0l1.765,0v-1.815Z" transform="translate(-544.377 -220.794)" fill="#ebd673"/>
            </g>
          </g>
        </g>
        <g id="Group_6184-2" data-name="Group 6184" transform="translate(0 0)">
          <g id="Group_6183-2" data-name="Group 6183">
            <path id="Path_8054-2" data-name="Path 8054" d="M410.572,440.939h0a1.025,1.025,0,0,0,1.025-1.025v-1.1h-1.025a1.025,1.025,0,0,0-1.025,1.025v.078A1.025,1.025,0,0,0,410.572,440.939Z" transform="translate(-407.199 -434.242)" fill="#ba8b1d"/>
            <g id="Group_6182-2" data-name="Group 6182">
              <path id="Path_8055-2" data-name="Path 8055" d="M302.484,325.463a1.576,1.576,0,0,1-1.576,1.576h0a1.576,1.576,0,0,1-1.576-1.576v-.12a1.576,1.576,0,0,1,1.576-1.576h1v-1.819h-.923a3.482,3.482,0,0,0-3.483,3.482v.227a3.391,3.391,0,0,0,3.483,3.308,3.119,3.119,0,0,0,3.263-3.089v-1.535l-1.765.008Z" transform="translate(-297.504 -319.828)" fill="#ba8b1d"/>
              <path id="Path_8056-2" data-name="Path 8056" d="M536.911,222.913v-2.1s-1.746-.26-1.746,1.308l-.012,2.509v.106h0l1.765,0v-1.815Z" transform="translate(-530.174 -220.794)" fill="#ba8b1d"/>
            </g>
          </g>
        </g>
        <path id="Path_8057-2" data-name="Path 8057" d="M409.845,439.914v-.078a1.025,1.025,0,0,1,1.025-1.025h-.3a1.025,1.025,0,0,0-1.025,1.025v.078a1.025,1.025,0,0,0,1.025,1.025h0a1.034,1.034,0,0,0,.149-.011A1.025,1.025,0,0,1,409.845,439.914Z" transform="translate(-407.199 -434.242)" fill="#8f5919" opacity="0.81"/>
        <path id="Path_8058-2" data-name="Path 8058" d="M297.8,325.657v-.227a3.482,3.482,0,0,1,3.482-3.482h-.3a3.482,3.482,0,0,0-3.483,3.482v.227a3.391,3.391,0,0,0,3.483,3.308c.05,0,.1,0,.148,0A3.383,3.383,0,0,1,297.8,325.657Z" transform="translate(-297.504 -319.828)" fill="#8f5919" opacity="0.81"/>
        <path id="Path_8059-2" data-name="Path 8059" d="M468.765,437.31V436.2l1.468-.007h0l-1.765.008v1.114a1.576,1.576,0,0,1-1.427,1.569c.049,0,.1.007.149.007A1.576,1.576,0,0,0,468.765,437.31Z" transform="translate(-463.487 -431.675)" fill="#8f5919" opacity="0.81"/>
        <path id="Path_8060-2" data-name="Path 8060" d="M535.463,222.118a1.252,1.252,0,0,1,1.326-1.319,1.346,1.346,0,0,0-1.624,1.319l-.012,2.509v.106h.3v-.106Z" transform="translate(-530.174 -220.794)" fill="#8f5919" opacity="0.81"/>
      </g>
    </g>
  </g>
</svg>
