<svg xmlns="http://www.w3.org/2000/svg" width="15.525" height="14.175" viewBox="0 0 15.525 14.175">
  <path id="ic_add_a_photo_24px" d="M2.025,3.025V1h1.35V3.025H5.4v1.35H3.375V6.4H2.025V4.375H0V3.025ZM4.05,7.075V5.05H6.075V3.025H10.8l1.235,1.35h2.14a1.354,1.354,0,0,1,1.35,1.35v8.1a1.354,1.354,0,0,1-1.35,1.35H3.375a1.354,1.354,0,0,1-1.35-1.35V7.075ZM8.775,13.15A3.375,3.375,0,1,0,5.4,9.775,3.376,3.376,0,0,0,8.775,13.15ZM6.615,9.775a2.16,2.16,0,1,0,2.16-2.16,2.158,2.158,0,0,0-2.16,2.16Z" transform="translate(0 -1)"/>
</svg>
