<svg xmlns="http://www.w3.org/2000/svg" width="25.177" height="23.338" viewBox="0 0 25.177 23.338">
  <g id="Group_7512" data-name="Group 7512" transform="translate(-177.016 -552.972)">
    <path id="Subtraction_680" data-name="Subtraction 680" d="M220.364,597.111a6.26,6.26,0,1,1,6.26-6.26A6.269,6.269,0,0,1,220.364,597.111Zm-1.783-3.859h0a2.68,2.68,0,0,0,.66.382l.147,1.036a.191.191,0,0,0,.19.166h1.568a.19.19,0,0,0,.19-.166l.153-1.036a2.956,2.956,0,0,0,.66-.382l.975.395a.213.213,0,0,0,.071.014.191.191,0,0,0,.166-.1l.785-1.355a.2.2,0,0,0-.049-.252l-.826-.646a2.6,2.6,0,0,0,.028-.382,2.19,2.19,0,0,0-.028-.382l.826-.646a.2.2,0,0,0,.049-.252l-.785-1.355a.192.192,0,0,0-.168-.1.2.2,0,0,0-.069.012l-.975.39a2.776,2.776,0,0,0-.66-.382l-.153-1.04a.191.191,0,0,0-.19-.161h-1.568a.2.2,0,0,0-.19.161l-.147,1.04a2.815,2.815,0,0,0-.66.382l-.975-.39a.2.2,0,0,0-.071-.012.2.2,0,0,0-.171.1l-.779,1.355a.2.2,0,0,0,.043.252l.828.646a3.061,3.061,0,0,0,0,.764l-.828.646a.2.2,0,0,0-.043.252l.779,1.355a.2.2,0,0,0,.175.1.23.23,0,0,0,.067-.011l.975-.395Zm1.783-.955a1.371,1.371,0,1,1,1.368-1.373,1.373,1.373,0,0,1-1.368,1.373Z" transform="translate(-24.43 -20.802)" fill="#c1c1c1"/>
    <path id="Path_8527" data-name="Path 8527" d="M187.782,561.917c-.194-.083-.39-.162-.588-.235a6.372,6.372,0,1,0-7.035,0,10.2,10.2,0,0,0-6.681,9.555h1.7a8.5,8.5,0,0,1,8.5-8.5,8.406,8.406,0,0,1,2.975.538A6.87,6.87,0,0,1,187.782,561.917ZM179,556.374l0,0a4.672,4.672,0,1,1,4.672,4.673A4.672,4.672,0,0,1,179,556.377Z" transform="translate(3.538 2.971)" fill="#c1c1c1"/>
  </g>
</svg>
