<svg xmlns="http://www.w3.org/2000/svg" width="26.493" height="24.63" viewBox="0 0 26.493 24.63">
  <g id="Group_5168" data-name="Group 5168" transform="translate(-1324.479 -429.016)">
    <path id="Path_92" data-name="Path 92" d="M1599.35,454.381h-1.66V451.06h-3.321V449.4h3.321v-3.321h1.66V449.4h3.321v1.66h-3.321Z" transform="translate(-251.7 -15.913)" fill="#000"/>
    <path id="Path_8061" data-name="Path 8061" d="M1348.575,437.743v1.517h-3.384v-3.387h-3.386v-3.385h3.389v-.161a12.312,12.312,0,1,0,3.38,5.417Zm-7.043,4.641a4.8,4.8,0,0,1-5.024,4.756,5.221,5.221,0,0,1-5.362-5.094V441.7a5.362,5.362,0,0,1,5.362-5.362h1.422v2.609l0,.191h-1.544a2.427,2.427,0,0,0-2.427,2.427v.185a2.427,2.427,0,0,0,4.854,0v-1.715l2.718-.012Zm-3.615-2.279v1.7a1.578,1.578,0,0,1-1.579,1.578h0a1.578,1.578,0,0,1-1.578-1.578v-.12a1.578,1.578,0,0,1,1.578-1.578Zm3.615-.976-2.718.006h0v-.163l.017-3.863c0-2.413,2.688-2.013,2.688-2.013v3.239h.012Z" transform="translate(0 0)" fill="#000"/>
  </g>
</svg>
