<svg xmlns="http://www.w3.org/2000/svg" width="26" height="26" viewBox="0 0 26 26">
  <g id="Group_7348" data-name="Group 7348" transform="translate(-97 -669)">
    <circle id="Ellipse_1052" data-name="Ellipse 1052" cx="13" cy="13" r="13" transform="translate(97 669)" fill="#000"/>
    <g id="_" data-name=" " transform="translate(-3091.02 -1145.779)" style="isolation: isolate">
      <g id="Group_5176" data-name="Group 5176" transform="translate(3196.094 1819.664)" style="isolation: isolate">
        <path id="Path_8065" data-name="Path 8065" d="M3200.438,1821.277v-1.613h1.652v1.639c.224.009.453.023.681.042s.453.048.667.088a5.019,5.019,0,0,1,.611.149,2.886,2.886,0,0,1,.516.215,4.7,4.7,0,0,1,.674.487,3.452,3.452,0,0,1,.57.637,3.164,3.164,0,0,1,.392.787,2.88,2.88,0,0,1,.147.936,3.026,3.026,0,0,1-.1.81,2.891,2.891,0,0,1-.292.7,3.043,3.043,0,0,1-1.015,1.044,3.819,3.819,0,0,1,.8.51,3.361,3.361,0,0,1,.624.679,3.2,3.2,0,0,1,.4.816,2.974,2.974,0,0,1,.142.921,3.621,3.621,0,0,1-.13.958,3.562,3.562,0,0,1-.386.907,3.955,3.955,0,0,1-.638.8,4,4,0,0,1-.877.643,4.6,4.6,0,0,1-1.109.426,5.507,5.507,0,0,1-1.333.153h-.343v1.879h-1.652v-1.879h-4.344v-12.738Zm0,5.195v-2.978h-1.521v2.978Zm0,5.326v-3.29h-1.521v3.29Zm3.114-6.841a1.488,1.488,0,0,0-.113-.615,1.134,1.134,0,0,0-.309-.412,1.4,1.4,0,0,0-.463-.251,3.125,3.125,0,0,0-.577-.127v2.869a1.821,1.821,0,0,0,1.12-.511A1.387,1.387,0,0,0,3203.552,1824.956Zm.534,5.119a1.3,1.3,0,0,0-.17-.674,1.48,1.48,0,0,0-.448-.471,2.175,2.175,0,0,0-.64-.29,3.9,3.9,0,0,0-.738-.133v3.29h.1a2.351,2.351,0,0,0,.815-.13,1.666,1.666,0,0,0,.592-.36,1.546,1.546,0,0,0,.361-.546A1.88,1.88,0,0,0,3204.086,1830.075Z" transform="translate(-3196.094 -1819.664)" fill="#fff"/>
      </g>
    </g>
  </g>
</svg>
