<svg xmlns="http://www.w3.org/2000/svg" xmlns:xlink="http://www.w3.org/1999/xlink" width="75.845" height="54.519" viewBox="0 0 75.845 54.519">
  <defs>
    <linearGradient id="linear-gradient" y1="0.5" x2="1" y2="0.5" gradientUnits="objectBoundingBox">
      <stop offset="0" stop-color="#875017"/>
      <stop offset="0.047" stop-color="#915e22"/>
      <stop offset="0.137" stop-color="#ad843f"/>
      <stop offset="0.26" stop-color="#d9c06d"/>
      <stop offset="0.35" stop-color="#fdf193"/>
      <stop offset="0.403" stop-color="#ebd774"/>
      <stop offset="0.486" stop-color="#d5b54c"/>
      <stop offset="0.561" stop-color="#c49c2f"/>
      <stop offset="0.626" stop-color="#ba8d1d"/>
      <stop offset="0.673" stop-color="#b78817"/>
      <stop offset="0.972" stop-color="#9d6917"/>
    </linearGradient>
  </defs>
  <g id="Group_7542" data-name="Group 7542" transform="translate(725.224 -409.691)">
    <path id="Path_8546" data-name="Path 8546" d="M-596.167,482.483a1.212,1.212,0,0,0-.017-.168c0-.02-.005-.04-.01-.059a1.23,1.23,0,0,0-.063-.2c0-.013-.013-.024-.018-.037a1.292,1.292,0,0,0-.082-.151c-.013-.02-.027-.039-.041-.058a1.182,1.182,0,0,0-.092-.111c-.017-.019-.034-.037-.052-.054s-.018-.02-.028-.029l-3.747-3.335a1.213,1.213,0,0,0-1.714.1,1.214,1.214,0,0,0,.1,1.714l1.364,1.214h-19.291a1.214,1.214,0,0,0-1.215,1.214,1.215,1.215,0,0,0,1.215,1.214h19.226L-602,484.948a1.213,1.213,0,0,0-.1,1.714,1.212,1.212,0,0,0,.908.407,1.21,1.21,0,0,0,.806-.308l3.544-3.154c.024-.012.046-.029.07-.043s.064-.037.095-.058.062-.05.092-.077.055-.046.079-.072a1.178,1.178,0,0,0,.077-.093c.022-.029.046-.056.065-.087s.038-.069.056-.1.037-.067.051-.1c0-.007.007-.013.009-.02a1.187,1.187,0,0,0,.053-.183c0-.007,0-.016,0-.023a1.249,1.249,0,0,0,.02-.2c0-.009,0-.017,0-.026S-596.167,482.5-596.167,482.483Z" transform="translate(-53.215 -34.887)" fill="#c8c8c8"/>
    <path id="Path_8547" data-name="Path 8547" d="M-649.792,443.209a13.876,13.876,0,0,1-.09,1.576l-2.73-2.43a2.6,2.6,0,0,0-1.729-.658,2.6,2.6,0,0,0-1.943.871,2.6,2.6,0,0,0-.551,2.464h-4.458c.012-.286.023-.572.023-.86a20.193,20.193,0,0,0-.8-5.374h11.475c.015,0,.028,0,.043,0A14.916,14.916,0,0,1-649.792,443.209Zm-23.679-21.651q.32.259.632.527h11.684a6.65,6.65,0,0,0,1.293-3.556c0-2.971-3.27-1.362-7.3-1.362-3.171,0-5.869-1.088-6.879-.037a2.8,2.8,0,0,1,.459,1.537,2.792,2.792,0,0,1-.515,1.619A8.211,8.211,0,0,0-673.471,421.558Zm3.677,3.517q.844.942,1.612,1.929a38.061,38.061,0,0,1,4.11,6.592h11.143a23.982,23.982,0,0,0-8.351-8.521Zm-4.653-4.386c-.022.022-.044.042-.067.063l.1.076C-674.423,420.781-674.435,420.735-674.447,420.689Zm2.371,2.074q.858.788,1.658,1.635h10.33a.821.821,0,0,0,.818-.818.82.82,0,0,0-.818-.818Zm8.007,27.471c-2.894,8.1-11.433,13.976-21.52,13.976-12.468,0-22.575-8.971-22.575-20.037,0-7.722,6.594-18.9,14.927-23.562h15.295a30.715,30.715,0,0,1,10.352,10.266,2.6,2.6,0,0,0-1.674-.615,2.6,2.6,0,0,0-1.729.659l-3.448,3.069c-.05.03-.1.061-.141.091a2.634,2.634,0,0,0-.214.173c-.053.046-.105.093-.156.147a2.659,2.659,0,0,0-.175.207,2.286,2.286,0,0,0-.136.186c-.04.063-.076.129-.123.221-.023.044-.046.089-.068.138s-.038.083-.053.122a2.555,2.555,0,0,0-.111.377c-.006.03-.013.066-.018.1a2.713,2.713,0,0,0-.033.309c0,.045-.006.09-.006.136s0,.09.007.137a2.616,2.616,0,0,0,.032.291c0,.033.018.1.025.136a2.5,2.5,0,0,0,.126.408c.015.039.039.09.06.133a2.513,2.513,0,0,0,.165.3c.029.044.06.088.082.118a2.59,2.59,0,0,0,.211.255c.022.024.045.048.071.074s.066.066.093.09l3.747,3.336a2.6,2.6,0,0,0,1.728.657,2.6,2.6,0,0,0,1.943-.871,2.582,2.582,0,0,0,.654-1.88,2.6,2.6,0,0,0-.1-.583h2.946a19.019,19.019,0,0,1,.871,5.374c0,.289-.011.575-.024.86h-10.035a2.6,2.6,0,0,0-2.6,2.6,2.6,2.6,0,0,0,2.6,2.6Zm-13.381-8.991-4.62.021,0,2.915a4.122,4.122,0,0,1-4.118,4.126h0a4.126,4.126,0,0,1-4.122-4.126v-.315a4.122,4.122,0,0,1,4.122-4.122h2.624V434.98h-2.417a9.115,9.115,0,0,0-9.123,9.107v.6a8.875,8.875,0,0,0,9.085,8.66h.03c4.717,0,8.54-3.368,8.54-8.085Zm-8.825.145a2.683,2.683,0,0,0-2.682,2.682v.2a2.682,2.682,0,0,0,2.682,2.68,2.682,2.682,0,0,0,2.682-2.682v-2.885Zm8.83-6.413h-.022v-5.507s-4.568-.68-4.568,3.423l-.031,6.566v.278l4.621-.011Zm-.334-18.25A8.636,8.636,0,0,0-676.1,412.1c0-3.861-4.248-1.77-9.489-1.77s-9.49-2.289-9.49,1.77a8.686,8.686,0,0,0,1.74,4.621Zm-32.13,27.448c0-5.273,2.631-11.1,5.724-15.552a13.984,13.984,0,0,1-3.862.44c-.324-.01-.648-.032-.97-.067a2.813,2.813,0,0,1-2.482-3.1,2.77,2.77,0,0,1,.218-.818H-712.5c-6.413,3.592-11.488,12.192-11.488,18.134,0,8.517,7.778,15.422,17.373,15.422a19.6,19.6,0,0,0,2.639-.178,21.469,21.469,0,0,1-4.169-6.114A19.8,19.8,0,0,1-709.908,444.172Zm55.5,9.4a2.6,2.6,0,0,1-1.943-.872,2.581,2.581,0,0,1-.653-1.879,2.606,2.606,0,0,1,.1-.584h-5.325a20.117,20.117,0,0,1-.809,2.106,21.476,21.476,0,0,1-4.341,6.289l.211,0a18.371,18.371,0,0,0,12.88-5.072C-654.326,453.56-654.364,453.569-654.4,453.569Zm-69.449-23.333q-.339-.011-.641-.044a.818.818,0,0,1-.724-.9.819.819,0,0,1,.9-.724c.181.021.353.033.513.038a9.435,9.435,0,0,0,5-1.451,9.288,9.288,0,0,1-3.9-.022.816.816,0,0,1-.6-.983.817.817,0,0,1,.983-.606,7.5,7.5,0,0,0,2.957.054,2.129,2.129,0,0,1-1.1-1.753,2.238,2.238,0,0,1,1.414-2.2,2.863,2.863,0,0,1,.615-.177,2.807,2.807,0,0,1-.2-.544,2.162,2.162,0,0,1,.979-2.417,2.188,2.188,0,0,1,1.479-.286,2.38,2.38,0,0,1,1.119.513c.781.63,1.41,1.9,1.407,4.028H-709a2.844,2.844,0,0,0,.2.63,2.81,2.81,0,0,0-2.058,1.005h-2.831a.8.8,0,0,1-.307-.062,8.464,8.464,0,0,1-3.242,3.752A11.417,11.417,0,0,1-723.854,430.236Zm6.813-9.683a2.235,2.235,0,0,0,.84,1.14,8.02,8.02,0,0,1,.891.354,2.854,2.854,0,0,0-.772-2.038.818.818,0,0,0-.094-.067.611.611,0,0,0-.64-.032A.568.568,0,0,0-717.042,420.553Zm-1.331,3.7a1.829,1.829,0,0,0,.949-.05,4.9,4.9,0,0,0,1.2-.559,8.05,8.05,0,0,1-.722-.478,3.767,3.767,0,0,0-.481-.105,1.852,1.852,0,0,0-.983.091.634.634,0,0,0-.427.6A.566.566,0,0,0-718.372,424.252Zm9.327-2.167a2.812,2.812,0,0,1,.071-.488,2.816,2.816,0,0,1,3.381-2.08q.154.037.311.066a4.774,4.774,0,0,1-.051-.477,4.535,4.535,0,0,1,.343-2.015c-.522.045-1.065.076-1.623.076-4.034,0-7.3-1.762-7.3,1.362a6.688,6.688,0,0,0,1.339,3.556Zm6.889-.8a2.766,2.766,0,0,1-1.435-2.277,2.909,2.909,0,0,1,1.837-2.854,3.729,3.729,0,0,1,.8-.23,3.642,3.642,0,0,1-.256-.707,2.812,2.812,0,0,1,1.272-3.141,2.844,2.844,0,0,1,1.923-.371,3.085,3.085,0,0,1,1.453.666c1.014.819,1.834,2.466,1.831,5.234h18.339a1.065,1.065,0,0,1,1.062,1.062,1.065,1.065,0,0,1-1.062,1.062h-18.393a1.052,1.052,0,0,1-.4-.08,10.989,10.989,0,0,1-4.213,4.875,14.831,14.831,0,0,1-8.594,2.791q-.44-.013-.833-.058a1.063,1.063,0,0,1-.94-1.173,1.063,1.063,0,0,1,1.174-.94c.236.027.458.043.666.05a12.261,12.261,0,0,0,6.5-1.886,12.073,12.073,0,0,1-5.061-.028,1.061,1.061,0,0,1-.786-1.277,1.06,1.06,0,0,1,1.277-.786A9.756,9.756,0,0,0-702.156,421.285Zm3.018-6.55a2.885,2.885,0,0,0,1.09,1.481,10.526,10.526,0,0,1,1.159.46,3.709,3.709,0,0,0-1-2.649,1.191,1.191,0,0,0-.122-.087.794.794,0,0,0-.833-.042A.736.736,0,0,0-699.139,414.735Zm-2.33,4.156a.735.735,0,0,0,.6.649,2.377,2.377,0,0,0,1.233-.065,6.4,6.4,0,0,0,1.564-.726,10.5,10.5,0,0,1-.938-.622,4.93,4.93,0,0,0-.626-.136,2.4,2.4,0,0,0-1.278.119A.824.824,0,0,0-701.469,418.891Z" transform="translate(0 0)" fill="url(#linear-gradient)"/>
    <path id="Path_8548" data-name="Path 8548" d="M-621.07,459.173a1.135,1.135,0,0,0,.017.168c0,.02.005.04.01.06a1.228,1.228,0,0,0,.063.2c.005.013.013.025.019.038a1.254,1.254,0,0,0,.082.151c.013.02.027.039.041.058a1.253,1.253,0,0,0,.092.112c.017.019.034.037.052.054s.018.02.028.029l3.747,3.335a1.21,1.21,0,0,0,.806.308,1.213,1.213,0,0,0,.908-.407,1.214,1.214,0,0,0-.1-1.714l-1.363-1.214h19.291a1.214,1.214,0,0,0,1.214-1.214,1.214,1.214,0,0,0-1.214-1.214H-616.6l1.364-1.214a1.215,1.215,0,0,0,.1-1.715,1.215,1.215,0,0,0-1.715-.1l-3.543,3.154c-.025.012-.047.029-.071.044s-.064.036-.093.058a1.182,1.182,0,0,0-.093.077c-.027.023-.054.046-.079.071s-.052.062-.077.094-.046.056-.066.087-.038.068-.056.1-.037.068-.051.1c0,.007-.007.013-.009.019a1.261,1.261,0,0,0-.054.183c0,.008,0,.016,0,.023a1.215,1.215,0,0,0-.02.2c0,.009,0,.017,0,.026S-621.071,459.161-621.07,459.173Z" transform="translate(-53.215 -22.94)" fill="#c8c8c8"/>
  </g>
</svg>
