<svg xmlns="http://www.w3.org/2000/svg" width="26.84" height="30.317" viewBox="0 0 26.84 30.317">
  <g id="Group_6467" data-name="Group 6467" transform="translate(0.75 0.1)">
    <path id="Path_160" data-name="Path 160" d="M161.565,165.819h-8.116v13.672h8.116a1.074,1.074,0,0,0,1.074-1.074V166.893A1.074,1.074,0,0,0,161.565,165.819Z" transform="translate(-138.766 -150.024)" fill="#a2d2ac" stroke="#a2d2ac" stroke-width="1.5"/>
    <path id="Path_161" data-name="Path 161" d="M110.083,166.893v11.525a1.074,1.074,0,0,0,1.074,1.074h8.116V165.819h-8.116A1.074,1.074,0,0,0,110.083,166.893Z" transform="translate(-108.616 -150.024)" fill="#a2d2ac" stroke="#a2d2ac" stroke-width="1.5"/>
    <path id="Path_162" data-name="Path 162" d="M105.268,144.578v3.364a1.074,1.074,0,0,0,1.074,1.074h9.583l0-5.512h-9.587A1.074,1.074,0,0,0,105.268,144.578Z" transform="translate(-105.268 -133.192)" fill="none" stroke="#a2d2ac" stroke-width="1.5"/>
    <path id="Path_163" data-name="Path 163" d="M162.981,143.5h-9.606l.023,5.512h9.583a1.074,1.074,0,0,0,1.074-1.074v-3.364A1.074,1.074,0,0,0,162.981,143.5Z" transform="translate(-138.714 -133.192)" fill="none" stroke="#a2d2ac" stroke-width="1.5"/>
    <path id="Path_164" data-name="Path 164" d="M116.252,121.365a1.565,1.565,0,0,0,.893.182h14.5a1.849,1.849,0,0,0,1.011-.2,3.649,3.649,0,0,0,1.563-3.272,5.252,5.252,0,0,0-.978-3.086,3.881,3.881,0,0,0-3.184-1.587q-.159,0-.324.011c-3.385.234-4.759,3.447-5.3,5.518-.537-2.071-1.912-5.284-5.3-5.518q-.165-.011-.324-.011a3.88,3.88,0,0,0-3.183,1.587,5.25,5.25,0,0,0-.978,3.086A3.634,3.634,0,0,0,116.252,121.365Zm13.619-6.022c.065,0,.128-.007.19-.007a1.94,1.94,0,0,1,1.634.809,3.282,3.282,0,0,1,.594,1.93c0,.591-.205,1.708-.982,1.708h-5.082C126.575,118.232,127.521,115.506,129.871,115.344Zm-12.684.8a1.94,1.94,0,0,1,1.634-.809q.094,0,.191.007c2.35.162,3.3,2.888,3.645,4.44h-5.082c-.777,0-.982-1.117-.982-1.708A3.283,3.283,0,0,1,117.187,116.146Z" transform="translate(-111.798 -113.404)" fill="#a2d2ac" stroke="#a2d2ac" stroke-width="0.2"/>
  </g>
</svg>
