<svg xmlns="http://www.w3.org/2000/svg" width="43.589" height="27.738" viewBox="0 0 43.589 27.738">
  <path id="ic_group_24px" d="M30.719,16.888a5.944,5.944,0,1,0-5.944-5.944A5.919,5.919,0,0,0,30.719,16.888Zm-15.85,0a5.944,5.944,0,1,0-5.944-5.944A5.919,5.919,0,0,0,14.869,16.888Zm0,3.963C10.253,20.85,1,23.169,1,27.785v4.953H28.738V27.785C28.738,23.169,19.486,20.85,14.869,20.85Zm15.85,0c-.575,0-1.228.04-1.922.1,2.3,1.664,3.9,3.9,3.9,6.835v4.953H44.589V27.785C44.589,23.169,35.336,20.85,30.719,20.85Z" transform="translate(-1 -5)" fill="#9bcfff"/>
</svg>
