<svg xmlns="http://www.w3.org/2000/svg" xmlns:xlink="http://www.w3.org/1999/xlink" width="43.92" height="43.92" viewBox="0 0 43.92 43.92">
  <defs>
    <linearGradient id="linear-gradient" x1="0.5" y1="0.958" x2="0.5" y2="-0.042" gradientUnits="objectBoundingBox">
      <stop offset="0" stop-color="#c99b14"/>
      <stop offset="0.214" stop-color="#b78817"/>
      <stop offset="0.222" stop-color="#b98b1b"/>
      <stop offset="0.34" stop-color="#d6b64e"/>
      <stop offset="0.442" stop-color="#ebd673"/>
      <stop offset="0.524" stop-color="#f8e98a"/>
      <stop offset="0.576" stop-color="#fdf193"/>
      <stop offset="0.578" stop-color="#f9ea8a"/>
      <stop offset="0.589" stop-color="#ecd56a"/>
      <stop offset="0.601" stop-color="#e1c34f"/>
      <stop offset="0.615" stop-color="#d8b439"/>
      <stop offset="0.63" stop-color="#d1a828"/>
      <stop offset="0.65" stop-color="#cca01c"/>
      <stop offset="0.678" stop-color="#c99c15"/>
      <stop offset="0.754" stop-color="#c99b14"/>
      <stop offset="0.757" stop-color="#c69814"/>
      <stop offset="0.791" stop-color="#af7d15"/>
      <stop offset="0.828" stop-color="#9d6915"/>
      <stop offset="0.869" stop-color="#905b16"/>
      <stop offset="0.919" stop-color="#895216"/>
      <stop offset="1" stop-color="#875017"/>
    </linearGradient>
    <linearGradient id="linear-gradient-2" x1="0.5" y1="0.958" x2="0.5" y2="-0.042" gradientUnits="objectBoundingBox">
      <stop offset="0" stop-color="#875017"/>
      <stop offset="0.081" stop-color="#895216"/>
      <stop offset="0.131" stop-color="#905b16"/>
      <stop offset="0.172" stop-color="#9d6915"/>
      <stop offset="0.209" stop-color="#af7d15"/>
      <stop offset="0.243" stop-color="#c69814"/>
      <stop offset="0.246" stop-color="#c99b14"/>
      <stop offset="0.322" stop-color="#c99c15"/>
      <stop offset="0.35" stop-color="#cca01c"/>
      <stop offset="0.37" stop-color="#d1a828"/>
      <stop offset="0.385" stop-color="#d8b439"/>
      <stop offset="0.399" stop-color="#e1c34f"/>
      <stop offset="0.411" stop-color="#ecd56a"/>
      <stop offset="0.422" stop-color="#f9ea8a"/>
      <stop offset="0.424" stop-color="#fdf193"/>
      <stop offset="0.476" stop-color="#f8e98a"/>
      <stop offset="0.558" stop-color="#ebd673"/>
      <stop offset="0.66" stop-color="#d6b64e"/>
      <stop offset="0.778" stop-color="#b98b1b"/>
      <stop offset="0.786" stop-color="#b78817"/>
      <stop offset="1" stop-color="#c99b14"/>
    </linearGradient>
    <linearGradient id="linear-gradient-3" x1="0.5" y1="0.976" x2="0.5" y2="0.028" gradientUnits="objectBoundingBox">
      <stop offset="0" stop-color="#c99b14"/>
      <stop offset="0.037" stop-color="#cfa523"/>
      <stop offset="0.11" stop-color="#dfc04b"/>
      <stop offset="0.21" stop-color="#faec8c"/>
      <stop offset="0.22" stop-color="#fdf193"/>
      <stop offset="0.251" stop-color="#f9eb8b"/>
      <stop offset="0.299" stop-color="#f1dd76"/>
      <stop offset="0.357" stop-color="#e3c654"/>
      <stop offset="0.423" stop-color="#d0a625"/>
      <stop offset="0.444" stop-color="#c99b14"/>
      <stop offset="0.61" stop-color="#ecd66b"/>
      <stop offset="0.693" stop-color="#fdf193"/>
      <stop offset="0.906" stop-color="#b78817"/>
      <stop offset="1" stop-color="#c99b14"/>
    </linearGradient>
    <linearGradient id="linear-gradient-4" x1="-1.093" y1="-1.82" x2="-1.093" y2="-2.82" gradientUnits="objectBoundingBox">
      <stop offset="0" stop-color="#875017"/>
      <stop offset="0.107" stop-color="#9d6917"/>
      <stop offset="0.248" stop-color="#b78817"/>
      <stop offset="0.668" stop-color="#fdf193"/>
      <stop offset="0.743" stop-color="#fbee8f"/>
      <stop offset="0.801" stop-color="#f7e886"/>
      <stop offset="0.853" stop-color="#f1dd75"/>
      <stop offset="0.901" stop-color="#e7cd5e"/>
      <stop offset="0.947" stop-color="#dbb941"/>
      <stop offset="0.99" stop-color="#cca11c"/>
      <stop offset="1" stop-color="#c99b14"/>
    </linearGradient>
    <linearGradient id="linear-gradient-5" x1="0.5" y1="0.958" x2="0.5" y2="-0.042" xlink:href="#linear-gradient-4"/>
  </defs>
  <g id="Group_6260" data-name="Group 6260" transform="translate(0 0)">
    <circle id="Ellipse_2396" data-name="Ellipse 2396" cx="15.528" cy="15.528" r="15.528" transform="translate(0 21.96) rotate(-45)" fill="url(#linear-gradient)"/>
    <circle id="Ellipse_2397" data-name="Ellipse 2397" cx="14.96" cy="14.96" r="14.96" transform="translate(0.804 21.96) rotate(-45)" fill="url(#linear-gradient-2)"/>
    <g id="Group_6175" data-name="Group 6175" transform="translate(4.964 4.963)">
      <circle id="Ellipse_2398" data-name="Ellipse 2398" cx="12.018" cy="12.018" r="12.018" transform="translate(0 16.996) rotate(-45)" fill="url(#linear-gradient-3)"/>
      <circle id="Ellipse_2399" data-name="Ellipse 2399" cx="11.776" cy="11.776" r="11.776" transform="translate(0.342 16.996) rotate(-45)" fill="url(#linear-gradient-4)"/>
      <ellipse id="Ellipse_2400" data-name="Ellipse 2400" cx="10.482" cy="10.482" rx="10.482" ry="10.482" transform="translate(6.514 6.514)" fill="url(#linear-gradient-5)"/>
    </g>
    <g id="Group_6178" data-name="Group 6178" transform="translate(7.537 7.52)">
      <g id="Group_6176" data-name="Group 6176" transform="translate(0 0)" opacity="0.9" style="mix-blend-mode: multiply;isolation: isolate">
        <path id="Path_7981" data-name="Path 7981" d="M335.659,849.609l-.385-.114a.778.778,0,0,1-.468-.372.739.739,0,0,1-.073-.6.78.78,0,0,1,.382-.479.763.763,0,0,1,.608-.069l.381.111c.085.025.132.057.143.1a.288.288,0,0,1-.014.14l-.337,1.158a.6.6,0,0,1-.024.072.173.173,0,0,1-.035.048Q335.792,849.647,335.659,849.609Zm-.352-1.237a.38.38,0,0,0-.2.245.391.391,0,0,0,.036.316.4.4,0,0,0,.243.194l.2.058.229-.787-.2-.059A.405.405,0,0,0,335.307,848.372Z" transform="translate(-324.81 -821.172)" fill="#875017"/>
        <path id="Path_7982" data-name="Path 7982" d="M288.634,828.289l-.617-.256a.583.583,0,0,1-.068-.032.175.175,0,0,1-.045-.041q-.042-.051.011-.179t.142-.133a.355.355,0,0,1,.109.031l.793.33c.093.039.138.087.133.144a.343.343,0,0,1-.031.107l-.463,1.113a.209.209,0,0,1-.1.123.226.226,0,0,1-.16-.023l-.789-.328a.649.649,0,0,1-.068-.032.176.176,0,0,1-.045-.041q-.042-.051.011-.178t.142-.134a.363.363,0,0,1,.109.031l.615.256.084-.2-.4-.165a.6.6,0,0,1-.068-.032.176.176,0,0,1-.045-.041q-.042-.051.011-.179c.039-.094.087-.137.144-.132a.364.364,0,0,1,.109.031l.392.163Z" transform="translate(-279.085 -801.547)" fill="#875017"/>
        <path id="Path_7983" data-name="Path 7983" d="M255.438,806.042l.08-1.342a.283.283,0,0,1,.022-.115q.038-.068.179-.061a.288.288,0,0,1,.119.024.117.117,0,0,1,.051.051.13.13,0,0,1,.014.055c0,.016,0,.041,0,.073l-.016.259.524.293.213-.149q.04-.027.06-.039a.157.157,0,0,1,.054-.016.112.112,0,0,1,.071.016.285.285,0,0,1,.083.089q.08.114.042.182a.282.282,0,0,1-.086.078l-1.1.772a.189.189,0,0,1-.1.034.2.2,0,0,1-.1-.024A.184.184,0,0,1,255.438,806.042Zm.407-.368.27-.189-.252-.141Z" transform="translate(-248.151 -779.182)" fill="#875017"/>
        <path id="Path_7984" data-name="Path 7984" d="M223.549,782.512l-.48-.343a.25.25,0,0,1-.075-.074.083.083,0,0,1-.006-.067.4.4,0,0,1,.107-.15.076.076,0,0,1,.058-.017.243.243,0,0,1,.1.048l.635.454q.123.088.1.17a.342.342,0,0,1-.054.1l-.7.98a.608.608,0,0,1-.046.059.169.169,0,0,1-.05.035c-.039.02-.1,0-.172-.051s-.116-.116-.1-.17a.427.427,0,0,1,.057-.1Z" transform="translate(-216.646 -757.264)" fill="#875017"/>
        <path id="Path_7985" data-name="Path 7985" d="M139.669,714.99a.285.285,0,1,1,.4.051A.252.252,0,0,1,139.669,714.99Z" transform="translate(-136.112 -692.13)" fill="#875017"/>
        <path id="Path_7986" data-name="Path 7986" d="M60.679,598.158l-.139-.377a.778.778,0,0,1,.018-.6.739.739,0,0,1,.438-.419.778.778,0,0,1,.613.019.764.764,0,0,1,.42.446l.139.371c.031.083.033.14.007.173a.29.29,0,0,1-.121.073l-1.129.423a.585.585,0,0,1-.072.024.179.179,0,0,1-.06,0Q60.727,598.288,60.679,598.158Zm.78-1.022a.38.38,0,0,0-.317-.015.391.391,0,0,0-.232.218.4.4,0,0,0-.01.31l.073.195.767-.288-.074-.2A.405.405,0,0,0,61.459,597.136Z" transform="translate(-59.607 -578.198)" fill="#875017"/>
        <path id="Path_7987" data-name="Path 7987" d="M44.211,551.888l-.164-.647a.621.621,0,0,1-.015-.073.173.173,0,0,1,.006-.061q.015-.064.15-.1t.192.034a.36.36,0,0,1,.04.106l.21.833q.037.147-.036.193a.344.344,0,0,1-.1.04l-1.169.3a.21.21,0,0,1-.156,0,.227.227,0,0,1-.077-.141l-.209-.828a.629.629,0,0,1-.015-.073.174.174,0,0,1,.006-.061q.015-.064.15-.1c.1-.025.162-.014.192.034a.361.361,0,0,1,.04.106l.163.645.212-.054-.105-.416a.649.649,0,0,1-.015-.073.176.176,0,0,1,.006-.061q.015-.064.15-.1t.193.036a.36.36,0,0,1,.04.106l.1.412Z" transform="translate(-42.559 -533.983)" fill="#875017"/>
        <path id="Path_7988" data-name="Path 7988" d="M37.154,501.836l1.123-.739a.282.282,0,0,1,.1-.051q.077-.01.156.106a.284.284,0,0,1,.052.11.116.116,0,0,1-.01.071.129.129,0,0,1-.036.044l-.06.042-.217.143.079.6.247.081.067.025a.154.154,0,0,1,.045.034.112.112,0,0,1,.03.066.284.284,0,0,1-.021.12q-.044.133-.121.143a.282.282,0,0,1-.114-.022l-1.278-.421a.188.188,0,0,1-.089-.061.192.192,0,0,1-.044-.1A.184.184,0,0,1,37.154,501.836Zm.539.106.313.1-.038-.286Z" transform="translate(-36.95 -485.674)" fill="#875017"/>
        <path id="Path_7989" data-name="Path 7989" d="M34.9,464.284l-.013-.589a.247.247,0,0,1,.014-.1.082.082,0,0,1,.05-.044.32.32,0,0,1,.092-.013.324.324,0,0,1,.092.009.075.075,0,0,1,.048.036.244.244,0,0,1,.024.112l.017.78q0,.152-.079.18a.339.339,0,0,1-.11.015l-1.205.026a.589.589,0,0,1-.075,0,.173.173,0,0,1-.058-.019c-.039-.019-.06-.075-.062-.168s.023-.162.076-.182a.428.428,0,0,1,.113-.013Z" transform="translate(-33.633 -449.394)" fill="#875017"/>
        <path id="Path_7990" data-name="Path 7990" d="M68.743,354.938a.285.285,0,1,1,.2.35A.252.252,0,0,1,68.743,354.938Z" transform="translate(-67.574 -344.158)" fill="#875017"/>
        <path id="Path_7991" data-name="Path 7991" d="M93.207,227.164l.219-.336a.779.779,0,0,1,.489-.343.739.739,0,0,1,.6.1.779.779,0,0,1,.351.5.764.764,0,0,1-.106.6l-.214.334q-.071.111-.135.109a.289.289,0,0,1-.131-.053l-1.014-.651a.64.64,0,0,1-.062-.044.175.175,0,0,1-.036-.048Q93.132,227.281,93.207,227.164Zm1.286.014a.38.38,0,0,0-.177-.263.392.392,0,0,0-.313-.056.4.4,0,0,0-.255.178l-.112.175.69.443.114-.177A.406.406,0,0,0,94.493,227.178Z" transform="translate(-91.199 -220.11)" fill="#875017"/>
        <path id="Path_7992" data-name="Path 7992" d="M122.4,184.186l.42-.519a.6.6,0,0,1,.05-.056.171.171,0,0,1,.052-.032q.061-.026.168.061t.088.174a.362.362,0,0,1-.061.1l-.541.667q-.1.118-.176.086a.339.339,0,0,1-.094-.06l-.937-.759a.21.21,0,0,1-.091-.127.227.227,0,0,1,.067-.147l.538-.664a.633.633,0,0,1,.05-.056.175.175,0,0,1,.052-.032q.06-.026.168.061t.088.174a.363.363,0,0,1-.061.1l-.419.517.17.138.27-.334a.628.628,0,0,1,.05-.056.174.174,0,0,1,.052-.032q.061-.026.168.061t.086.176a.361.361,0,0,1-.061.1l-.268.33Z" transform="translate(-118.403 -177.898)" fill="#875017"/>
        <path id="Path_7993" data-name="Path 7993" d="M163.748,157.11l1.265.455a.283.283,0,0,1,.1.053q.055.056.009.189a.285.285,0,0,1-.057.108.116.116,0,0,1-.063.035.129.129,0,0,1-.057,0l-.07-.023-.244-.088-.429.42.083.246c.01.031.017.054.02.068a.156.156,0,0,1,0,.056.112.112,0,0,1-.035.063.283.283,0,0,1-.109.055q-.132.045-.187-.011a.281.281,0,0,1-.051-.1l-.43-1.275a.2.2,0,0,1,.048-.2A.183.183,0,0,1,163.748,157.11Zm.239.495.106.312.206-.2Z" transform="translate(-159.221 -153.024)" fill="#875017"/>
        <path id="Path_7994" data-name="Path 7994" d="M191.429,132.332l.464-.364a.245.245,0,0,1,.092-.051.082.082,0,0,1,.065.013.4.4,0,0,1,.114.145.075.075,0,0,1,0,.06.244.244,0,0,1-.075.087l-.614.481q-.12.094-.191.045a.343.343,0,0,1-.078-.079l-.743-.949a.628.628,0,0,1-.044-.061.174.174,0,0,1-.019-.058q-.012-.065.1-.15t.191-.048a.434.434,0,0,1,.078.082Z" transform="translate(-185.248 -128.16)" fill="#875017"/>
        <path id="Path_7995" data-name="Path 7995" d="M314.617,82.011a.285.285,0,1,1-.162.369A.252.252,0,0,1,314.617,82.011Z" transform="translate(-305.202 -80.377)" fill="#875017"/>
        <path id="Path_7996" data-name="Path 7996" d="M421.018,34.572l.4-.026a.779.779,0,0,1,.568.187.739.739,0,0,1,.278.539.779.779,0,0,1-.192.582.764.764,0,0,1-.547.276l-.4.028q-.132.009-.168-.042a.288.288,0,0,1-.036-.137l-.086-1.2a.637.637,0,0,1,0-.076.17.17,0,0,1,.017-.058Q420.88,34.582,421.018,34.572Zm.759,1.038a.38.38,0,0,0,.1-.3.392.392,0,0,0-.143-.284.4.4,0,0,0-.295-.1l-.208.015.058.818.21-.015A.406.406,0,0,0,421.777,35.61Z" transform="translate(-408.117 -34.497)" fill="#875017"/>
        <path id="Path_7997" data-name="Path 7997" d="M469.859,34.357l.667.025a.633.633,0,0,1,.075.006.175.175,0,0,1,.057.023q.057.033.052.171t-.087.175a.362.362,0,0,1-.113.009l-.858-.032q-.152-.006-.175-.089a.337.337,0,0,1-.009-.111l.045-1.2a.21.21,0,0,1,.047-.149.226.226,0,0,1,.157-.034l.854.032a.629.629,0,0,1,.075.006.175.175,0,0,1,.057.023q.057.033.052.171t-.087.175a.363.363,0,0,1-.113.009l-.665-.025-.008.219.429.016a.628.628,0,0,1,.075.006.173.173,0,0,1,.057.023q.058.033.052.171t-.089.175a.364.364,0,0,1-.113.009l-.425-.016Z" transform="translate(-455.15 -33.144)" fill="#875017"/>
        <path id="Path_7998" data-name="Path 7998" d="M510.428,38.5l.395,1.285a.285.285,0,0,1,.02.115q-.012.077-.146.12a.284.284,0,0,1-.12.019.116.116,0,0,1-.066-.03.129.129,0,0,1-.032-.047c-.006-.015-.013-.039-.023-.069l-.076-.249-.594-.091-.147.214q-.028.04-.043.057a.155.155,0,0,1-.045.034.111.111,0,0,1-.072.01.284.284,0,0,1-.109-.054q-.115-.079-.1-.156a.28.28,0,0,1,.053-.1l.763-1.109a.189.189,0,0,1,.084-.068.192.192,0,0,1,.106-.014A.183.183,0,0,1,510.428,38.5Zm-.253.488-.186.272.285.044Z" transform="translate(-493.641 -38.193)" fill="#875017"/>
        <path id="Path_7999" data-name="Path 7999" d="M560.348,46.513l.569.154a.248.248,0,0,1,.1.043.081.081,0,0,1,.028.061.32.32,0,0,1-.013.092.315.315,0,0,1-.035.086.075.075,0,0,1-.048.036.245.245,0,0,1-.115-.008l-.753-.2q-.147-.04-.15-.126a.345.345,0,0,1,.016-.11l.315-1.164a.572.572,0,0,1,.023-.071.169.169,0,0,1,.035-.05c.03-.032.089-.036.179-.012s.148.068.153.124a.431.431,0,0,1-.019.112Z" transform="translate(-542.638 -44.826)" fill="#875017"/>
        <path id="Path_8000" data-name="Path 8000" d="M680.269,115.5a.285.285,0,1,1-.393.091A.252.252,0,0,1,680.269,115.5Z" transform="translate(-658.591 -112.739)" fill="#875017"/>
        <path id="Path_8001" data-name="Path 8001" d="M757.609,171.024l.261.3a.778.778,0,0,1,.191.566.74.74,0,0,1-.265.545.779.779,0,0,1-.581.2.763.763,0,0,1-.548-.272l-.26-.3q-.087-.1-.067-.16a.291.291,0,0,1,.088-.111l.91-.79a.62.62,0,0,1,.06-.047.172.172,0,0,1,.056-.021Q757.519,170.919,757.609,171.024Zm-.375,1.23a.38.38,0,0,0,.3-.1.391.391,0,0,0,.142-.285.4.4,0,0,0-.1-.294l-.137-.157-.619.537.138.159A.406.406,0,0,0,757.234,172.254Z" transform="translate(-732.595 -166.406)" fill="#875017"/>
        <path id="Path_8002" data-name="Path 8002" d="M786.251,210.635l.38.549a.636.636,0,0,1,.04.063.173.173,0,0,1,.016.059c.005.044-.03.092-.106.144s-.147.069-.192.035a.363.363,0,0,1-.075-.085l-.488-.706q-.086-.125-.033-.193a.345.345,0,0,1,.084-.074l.992-.685a.21.21,0,0,1,.147-.052.226.226,0,0,1,.122.106l.486.7a.6.6,0,0,1,.04.063.171.171,0,0,1,.016.059q.008.065-.106.144t-.192.035a.361.361,0,0,1-.075-.085l-.378-.548-.18.124.244.353a.611.611,0,0,1,.04.063.174.174,0,0,1,.016.059c.006.044-.03.092-.106.144s-.147.069-.193.033a.365.365,0,0,1-.075-.085l-.242-.35Z" transform="translate(-761.063 -203.89)" fill="#875017"/>
        <path id="Path_8003" data-name="Path 8003" d="M810.552,263.624l-.793,1.085a.282.282,0,0,1-.08.085q-.069.037-.183-.045a.282.282,0,0,1-.087-.085.116.116,0,0,1-.016-.07.13.13,0,0,1,.018-.054l.042-.06.154-.21-.282-.53-.26.011h-.071a.155.155,0,0,1-.054-.016.112.112,0,0,1-.051-.052.284.284,0,0,1-.022-.12q-.006-.14.063-.176a.28.28,0,0,1,.115-.019l1.345-.053a.2.2,0,0,1,.18.1A.183.183,0,0,1,810.552,263.624Zm-.542.09-.33.013.136.255Z" transform="translate(-783.399 -255.753)" fill="#875017"/>
        <path id="Path_8004" data-name="Path 8004" d="M831.863,297.288l.217.548a.25.25,0,0,1,.023.1.082.082,0,0,1-.031.059.316.316,0,0,1-.081.044.319.319,0,0,1-.09.024.075.075,0,0,1-.058-.017.246.246,0,0,1-.062-.1l-.288-.726q-.056-.141.011-.2a.347.347,0,0,1,.1-.053l1.121-.444a.628.628,0,0,1,.071-.025.174.174,0,0,1,.061,0q.066.007.117.136c.037.094.034.16-.008.2a.434.434,0,0,1-.1.052Z" transform="translate(-805.258 -287.854)" fill="#875017"/>
        <path id="Path_8005" data-name="Path 8005" d="M855.463,341.421a.285.285,0,1,1-.357-.187A.252.252,0,0,1,855.463,341.421Z" transform="translate(-827.919 -331.093)" fill="#875017"/>
        <path id="Path_8006" data-name="Path 8006" d="M865.078,450.308l0,.4a.778.778,0,0,1-.218.556.738.738,0,0,1-.553.248.779.779,0,0,1-.571-.224.764.764,0,0,1-.245-.561l-.006-.4q0-.132.051-.166a.288.288,0,0,1,.138-.028l1.205-.02a.626.626,0,0,1,.076,0,.18.18,0,0,1,.057.02C865.056,450.16,865.076,450.216,865.078,450.308Zm-1.078.7a.381.381,0,0,0,.294.121.393.393,0,0,0,.292-.127.4.4,0,0,0,.113-.289l0-.208-.819.013,0,.21A.407.407,0,0,0,864,451.009Z" transform="translate(-836.227 -436.42)" fill="#875017"/>
        <path id="Path_8007" data-name="Path 8007" d="M860.349,497.214l-.071.664a.572.572,0,0,1-.011.074.177.177,0,0,1-.026.055q-.037.055-.175.04t-.168-.1a.355.355,0,0,1,0-.114l.091-.854c.011-.1.044-.157.1-.168a.34.34,0,0,1,.111,0l1.2.128a.211.211,0,0,1,.146.057.228.228,0,0,1,.023.16l-.091.849a.666.666,0,0,1-.011.074.183.183,0,0,1-.027.055q-.036.055-.174.04t-.168-.1a.366.366,0,0,1,0-.113l.071-.662-.218-.023-.046.427a.631.631,0,0,1-.011.074.17.17,0,0,1-.026.055q-.036.055-.174.04c-.1-.011-.157-.044-.168-.1a.365.365,0,0,1,0-.113l.045-.423Z" transform="translate(-832.749 -481.576)" fill="#875017"/>
        <path id="Path_8008" data-name="Path 8008" d="M851.181,537.64l-1.309.3a.285.285,0,0,1-.116.012q-.076-.017-.11-.154a.282.282,0,0,1-.01-.121.117.117,0,0,1,.034-.063.131.131,0,0,1,.049-.029l.071-.018.254-.058.132-.586-.2-.161c-.025-.021-.043-.036-.054-.047a.152.152,0,0,1-.03-.047.109.109,0,0,1,0-.072.282.282,0,0,1,.062-.1c.058-.073.112-.1.163-.092a.284.284,0,0,1,.1.06l1.053.838a.19.19,0,0,1,.062.089.194.194,0,0,1,.007.107A.184.184,0,0,1,851.181,537.64Zm-.469-.286-.258-.205-.064.281Z" transform="translate(-822.826 -519.867)" fill="#875017"/>
        <path id="Path_8009" data-name="Path 8009" d="M837.919,586.687l-.193.557a.25.25,0,0,1-.049.093.082.082,0,0,1-.062.024.314.314,0,0,1-.091-.02.325.325,0,0,1-.083-.04.075.075,0,0,1-.033-.051.243.243,0,0,1,.016-.113l.256-.737c.033-.1.079-.143.136-.141a.337.337,0,0,1,.109.024l1.139.4a.638.638,0,0,1,.07.027.176.176,0,0,1,.048.038q.045.048,0,.179t-.135.144a.434.434,0,0,1-.11-.027Z" transform="translate(-811 -568.088)" fill="#875017"/>
        <path id="Path_8010" data-name="Path 8010" d="M796.359,703.759a.285.285,0,1,1-.064-.4A.252.252,0,0,1,796.359,703.759Z" transform="translate(-770.788 -681.276)" fill="#875017"/>
        <path id="Path_8011" data-name="Path 8011" d="M701.927,775.718l-.321.24a.778.778,0,0,1-.578.152.739.739,0,0,1-.526-.3.778.778,0,0,1-.155-.593.765.765,0,0,1,.309-.529l.317-.239q.106-.08.164-.056a.287.287,0,0,1,.1.1l.726.962a.63.63,0,0,1,.043.063.169.169,0,0,1,.018.057Q702.038,775.635,701.927,775.718Zm-1.2-.459a.38.38,0,0,0,.075.309.392.392,0,0,0,.275.161.4.4,0,0,0,.3-.079l.166-.125-.493-.654-.168.127A.4.4,0,0,0,700.726,775.259Z" transform="translate(-678.436 -750.036)" fill="#875017"/>
        <path id="Path_8012" data-name="Path 8012" d="M657.723,801.825l-.574.341a.592.592,0,0,1-.066.035.176.176,0,0,1-.06.012q-.066,0-.137-.116t-.022-.194a.371.371,0,0,1,.09-.069l.738-.438c.087-.051.152-.058.2-.02a.349.349,0,0,1,.068.089l.615,1.037a.209.209,0,0,1,.041.151c-.01.037-.048.075-.113.114l-.735.436a.676.676,0,0,1-.066.036.177.177,0,0,1-.06.012q-.066,0-.137-.116t-.022-.194a.356.356,0,0,1,.09-.069l.572-.34-.112-.188-.369.219a.636.636,0,0,1-.066.035.177.177,0,0,1-.06.012q-.065,0-.137-.116t-.02-.2a.363.363,0,0,1,.09-.069l.365-.217Z" transform="translate(-636.368 -776.116)" fill="#875017"/>
        <path id="Path_8013" data-name="Path 8013" d="M612.566,823.676l-1.028-.866a.286.286,0,0,1-.079-.086q-.032-.071.057-.18a.284.284,0,0,1,.091-.081.115.115,0,0,1,.071-.011.13.13,0,0,1,.052.022l.057.046.2.168.548-.245.008-.26c0-.033,0-.056,0-.071a.155.155,0,0,1,.019-.052.114.114,0,0,1,.055-.047.286.286,0,0,1,.121-.014c.093,0,.15.028.171.076a.285.285,0,0,1,.011.116l-.04,1.345a.2.2,0,0,1-.115.173A.183.183,0,0,1,612.566,823.676Zm-.052-.547.009-.329-.263.117Z" transform="translate(-592.469 -796.083)" fill="#875017"/>
        <path id="Path_8014" data-name="Path 8014" d="M576.146,841.853l-.562.179a.249.249,0,0,1-.1.016.082.082,0,0,1-.057-.035.319.319,0,0,1-.038-.084.316.316,0,0,1-.018-.091.074.074,0,0,1,.021-.056.242.242,0,0,1,.1-.055l.744-.237q.145-.046.194.025a.335.335,0,0,1,.046.1l.365,1.149a.624.624,0,0,1,.02.072.172.172,0,0,1,0,.061c-.008.043-.055.079-.143.107s-.162.023-.2-.022a.445.445,0,0,1-.045-.1Z" transform="translate(-557.57 -814.915)" fill="#875017"/>
        <path id="Path_8015" data-name="Path 8015" d="M471.3,874.268a.285.285,0,1,1,.28-.29A.252.252,0,0,1,471.3,874.268Z" transform="translate(-456.645 -846.084)" fill="#875017"/>
      </g>
      <g id="Group_6177" data-name="Group 6177" transform="translate(0 0.167)" style="mix-blend-mode: soft-light;isolation: isolate">
        <path id="Path_8016" data-name="Path 8016" d="M335.659,854.7l-.385-.114a.779.779,0,0,1-.468-.372.739.739,0,0,1-.073-.6.778.778,0,0,1,.382-.479.763.763,0,0,1,.608-.069l.381.111q.127.037.143.1a.288.288,0,0,1-.014.141l-.337,1.157a.613.613,0,0,1-.024.072.174.174,0,0,1-.035.048Q335.792,854.737,335.659,854.7Zm-.352-1.237a.38.38,0,0,0-.2.245.392.392,0,0,0,.036.316.4.4,0,0,0,.243.194l.2.058.229-.787-.2-.059A.405.405,0,0,0,335.307,853.462Z" transform="translate(-324.81 -826.261)" fill="#fdf193"/>
        <path id="Path_8017" data-name="Path 8017" d="M288.634,833.378l-.617-.257a.654.654,0,0,1-.068-.031.178.178,0,0,1-.045-.041c-.028-.034-.025-.093.011-.179s.086-.138.142-.134a.372.372,0,0,1,.109.032l.793.33c.093.039.138.087.133.144a.344.344,0,0,1-.031.107l-.463,1.113a.211.211,0,0,1-.1.123.226.226,0,0,1-.16-.023l-.789-.328a.575.575,0,0,1-.068-.032.175.175,0,0,1-.045-.041q-.042-.05.011-.179t.142-.133a.365.365,0,0,1,.109.031l.615.256.084-.2-.4-.165a.556.556,0,0,1-.068-.032.172.172,0,0,1-.045-.041c-.028-.034-.025-.093.011-.179s.087-.138.144-.132a.359.359,0,0,1,.109.031l.392.163Z" transform="translate(-279.085 -806.636)" fill="#fdf193"/>
        <path id="Path_8018" data-name="Path 8018" d="M255.438,811.131l.08-1.342a.281.281,0,0,1,.022-.115c.025-.045.085-.066.179-.062a.285.285,0,0,1,.119.024.118.118,0,0,1,.051.051.131.131,0,0,1,.014.055c0,.017,0,.041,0,.073l-.016.26.524.293.213-.149c.027-.018.047-.031.06-.038a.154.154,0,0,1,.054-.016.113.113,0,0,1,.071.016.287.287,0,0,1,.083.089q.08.114.042.182a.279.279,0,0,1-.086.078l-1.1.772a.19.19,0,0,1-.1.035.192.192,0,0,1-.1-.024A.184.184,0,0,1,255.438,811.131Zm.407-.368.27-.189-.252-.141Z" transform="translate(-248.151 -784.271)" fill="#fdf193"/>
        <path id="Path_8019" data-name="Path 8019" d="M223.549,787.6l-.48-.343a.247.247,0,0,1-.075-.074.083.083,0,0,1-.006-.067.4.4,0,0,1,.107-.15.074.074,0,0,1,.058-.017.242.242,0,0,1,.1.048l.635.454q.123.088.1.17a.34.34,0,0,1-.054.1l-.7.98a.6.6,0,0,1-.046.059.165.165,0,0,1-.05.035q-.059.03-.172-.051t-.1-.17a.428.428,0,0,1,.057-.1Z" transform="translate(-216.646 -762.354)" fill="#fdf193"/>
        <path id="Path_8020" data-name="Path 8020" d="M139.669,720.08a.285.285,0,1,1,.4.05A.252.252,0,0,1,139.669,720.08Z" transform="translate(-136.112 -697.22)" fill="#fdf193"/>
        <path id="Path_8021" data-name="Path 8021" d="M60.679,603.248l-.139-.376a.779.779,0,0,1,.018-.6.739.739,0,0,1,.438-.419.779.779,0,0,1,.613.019.764.764,0,0,1,.42.446l.139.371q.046.124.007.174a.29.29,0,0,1-.121.073l-1.129.423a.624.624,0,0,1-.072.024.171.171,0,0,1-.06,0Q60.727,603.378,60.679,603.248Zm.78-1.022a.381.381,0,0,0-.317-.015.391.391,0,0,0-.232.218.4.4,0,0,0-.01.311l.073.195.767-.288-.074-.2A.405.405,0,0,0,61.459,602.226Z" transform="translate(-59.607 -583.288)" fill="#fdf193"/>
        <path id="Path_8022" data-name="Path 8022" d="M44.211,556.978l-.164-.647a.62.62,0,0,1-.015-.073.173.173,0,0,1,.006-.061q.015-.064.15-.1t.192.034a.36.36,0,0,1,.04.106l.21.832q.037.147-.036.193a.345.345,0,0,1-.1.04l-1.169.3a.21.21,0,0,1-.156,0,.226.226,0,0,1-.077-.142l-.209-.828a.631.631,0,0,1-.015-.073.174.174,0,0,1,.006-.061c.01-.043.06-.076.15-.1s.162-.013.192.034a.361.361,0,0,1,.04.106l.163.645.212-.054-.105-.416a.624.624,0,0,1-.015-.073.176.176,0,0,1,.006-.061c.01-.043.06-.075.15-.1s.162-.013.193.036a.358.358,0,0,1,.04.106l.1.412Z" transform="translate(-42.559 -539.073)" fill="#fdf193"/>
        <path id="Path_8023" data-name="Path 8023" d="M37.154,506.926l1.123-.739a.284.284,0,0,1,.1-.051q.077-.01.156.106a.284.284,0,0,1,.052.11.116.116,0,0,1-.01.071.129.129,0,0,1-.036.044l-.06.042-.217.142.079.6.247.081c.031.01.053.019.067.025a.155.155,0,0,1,.045.033.112.112,0,0,1,.03.066.285.285,0,0,1-.021.12q-.044.133-.121.143a.28.28,0,0,1-.114-.022l-1.278-.421a.19.19,0,0,1-.089-.061.193.193,0,0,1-.044-.1A.184.184,0,0,1,37.154,506.926Zm.539.106.313.1-.038-.286Z" transform="translate(-36.95 -490.764)" fill="#fdf193"/>
        <path id="Path_8024" data-name="Path 8024" d="M34.9,469.374l-.013-.59a.247.247,0,0,1,.014-.1.083.083,0,0,1,.05-.044.326.326,0,0,1,.092-.013.318.318,0,0,1,.092.009.075.075,0,0,1,.048.036.244.244,0,0,1,.024.112l.017.78q0,.152-.079.179a.336.336,0,0,1-.11.015l-1.205.026a.637.637,0,0,1-.075,0,.173.173,0,0,1-.058-.019q-.059-.029-.062-.168t.076-.182a.431.431,0,0,1,.113-.013Z" transform="translate(-33.633 -454.483)" fill="#fdf193"/>
        <path id="Path_8025" data-name="Path 8025" d="M68.743,360.028a.285.285,0,1,1,.2.35A.252.252,0,0,1,68.743,360.028Z" transform="translate(-67.574 -349.248)" fill="#fdf193"/>
        <path id="Path_8026" data-name="Path 8026" d="M93.207,232.254l.219-.336a.779.779,0,0,1,.489-.343.739.739,0,0,1,.6.1.779.779,0,0,1,.351.5.764.764,0,0,1-.106.6l-.214.334q-.071.111-.135.109a.288.288,0,0,1-.131-.053l-1.014-.651a.636.636,0,0,1-.062-.044.176.176,0,0,1-.036-.048Q93.132,232.37,93.207,232.254Zm1.286.014a.38.38,0,0,0-.177-.263.392.392,0,0,0-.313-.056.4.4,0,0,0-.255.178l-.112.175.69.443.114-.177A.406.406,0,0,0,94.493,232.268Z" transform="translate(-91.199 -225.2)" fill="#fdf193"/>
        <path id="Path_8027" data-name="Path 8027" d="M122.4,189.276l.42-.519a.611.611,0,0,1,.05-.056.172.172,0,0,1,.052-.032q.061-.026.168.061t.088.174a.361.361,0,0,1-.061.1l-.541.667q-.1.118-.176.086a.342.342,0,0,1-.094-.06l-.937-.759a.21.21,0,0,1-.091-.127.227.227,0,0,1,.067-.147l.538-.664a.625.625,0,0,1,.05-.056.173.173,0,0,1,.052-.032q.06-.026.168.061t.088.174a.364.364,0,0,1-.061.1l-.419.517.17.138.27-.334a.63.63,0,0,1,.05-.056.174.174,0,0,1,.052-.032q.061-.026.168.061t.086.176a.363.363,0,0,1-.061.1l-.268.33Z" transform="translate(-118.403 -182.988)" fill="#fdf193"/>
        <path id="Path_8028" data-name="Path 8028" d="M163.748,162.2l1.265.455a.283.283,0,0,1,.1.053q.055.056.009.189a.284.284,0,0,1-.057.108.116.116,0,0,1-.063.035.13.13,0,0,1-.057,0l-.07-.023-.244-.088-.429.42.083.246c.01.031.017.054.02.068a.156.156,0,0,1,0,.056.111.111,0,0,1-.035.063.283.283,0,0,1-.109.055q-.132.045-.187-.011a.282.282,0,0,1-.051-.1l-.43-1.275a.2.2,0,0,1,.048-.2A.183.183,0,0,1,163.748,162.2Zm.239.495.106.312.206-.2Z" transform="translate(-159.221 -158.114)" fill="#fdf193"/>
        <path id="Path_8029" data-name="Path 8029" d="M191.429,137.422l.464-.364a.248.248,0,0,1,.092-.051.082.082,0,0,1,.065.013.4.4,0,0,1,.114.145.075.075,0,0,1,0,.06.244.244,0,0,1-.075.087l-.614.481q-.12.094-.191.045a.342.342,0,0,1-.078-.079l-.743-.949a.627.627,0,0,1-.044-.061.174.174,0,0,1-.019-.058q-.012-.065.1-.15t.191-.048a.437.437,0,0,1,.078.082Z" transform="translate(-185.248 -133.25)" fill="#fdf193"/>
        <path id="Path_8030" data-name="Path 8030" d="M314.617,87.1a.285.285,0,1,1-.162.369A.252.252,0,0,1,314.617,87.1Z" transform="translate(-305.202 -85.467)" fill="#fdf193"/>
        <path id="Path_8031" data-name="Path 8031" d="M421.018,39.662l.4-.026a.778.778,0,0,1,.568.187.739.739,0,0,1,.278.539.779.779,0,0,1-.192.582.764.764,0,0,1-.547.276l-.4.028q-.132.009-.168-.042a.288.288,0,0,1-.036-.137l-.086-1.2a.637.637,0,0,1,0-.076.169.169,0,0,1,.017-.058Q420.88,39.672,421.018,39.662Zm.759,1.038a.38.38,0,0,0,.1-.3.392.392,0,0,0-.143-.284.4.4,0,0,0-.295-.1l-.208.015.058.818.21-.015A.406.406,0,0,0,421.777,40.7Z" transform="translate(-408.117 -39.587)" fill="#fdf193"/>
        <path id="Path_8032" data-name="Path 8032" d="M469.859,39.446l.667.025a.635.635,0,0,1,.075.006.175.175,0,0,1,.057.023q.057.033.052.171t-.087.175a.364.364,0,0,1-.113.009l-.858-.032q-.152-.006-.175-.089a.337.337,0,0,1-.009-.111l.045-1.2a.21.21,0,0,1,.047-.149.226.226,0,0,1,.157-.034l.854.032a.642.642,0,0,1,.075.006.175.175,0,0,1,.057.023q.057.033.052.171t-.087.175a.364.364,0,0,1-.113.009l-.665-.025-.008.219.429.016a.639.639,0,0,1,.075.006.173.173,0,0,1,.057.023q.058.033.052.171t-.089.175a.363.363,0,0,1-.113.009l-.425-.016Z" transform="translate(-455.15 -38.234)" fill="#fdf193"/>
        <path id="Path_8033" data-name="Path 8033" d="M510.428,43.595l.395,1.285a.285.285,0,0,1,.02.115q-.012.077-.146.12a.284.284,0,0,1-.12.019.116.116,0,0,1-.066-.03.129.129,0,0,1-.032-.047c-.006-.015-.013-.039-.023-.069l-.076-.249-.594-.091-.147.214q-.028.04-.043.057a.155.155,0,0,1-.045.034.111.111,0,0,1-.072.01.284.284,0,0,1-.109-.054q-.115-.079-.1-.156a.28.28,0,0,1,.053-.1l.763-1.109a.189.189,0,0,1,.084-.068.192.192,0,0,1,.106-.014A.183.183,0,0,1,510.428,43.595Zm-.253.488-.186.272.285.044Z" transform="translate(-493.641 -43.283)" fill="#fdf193"/>
        <path id="Path_8034" data-name="Path 8034" d="M560.348,51.6l.569.154a.247.247,0,0,1,.1.043.081.081,0,0,1,.028.061.32.32,0,0,1-.013.092.315.315,0,0,1-.035.086.075.075,0,0,1-.048.036.244.244,0,0,1-.115-.008l-.753-.2q-.147-.04-.15-.126a.345.345,0,0,1,.016-.11l.315-1.164a.569.569,0,0,1,.023-.071.168.168,0,0,1,.035-.05c.03-.032.089-.036.179-.012s.148.068.153.124a.431.431,0,0,1-.019.112Z" transform="translate(-542.638 -49.916)" fill="#fdf193"/>
        <path id="Path_8035" data-name="Path 8035" d="M680.269,120.59a.285.285,0,1,1-.393.091A.252.252,0,0,1,680.269,120.59Z" transform="translate(-658.591 -117.828)" fill="#fdf193"/>
        <path id="Path_8036" data-name="Path 8036" d="M757.609,176.113l.261.3a.778.778,0,0,1,.191.566.74.74,0,0,1-.265.545.779.779,0,0,1-.581.2.763.763,0,0,1-.548-.272l-.26-.3q-.087-.1-.067-.16a.291.291,0,0,1,.088-.111l.91-.79a.618.618,0,0,1,.06-.047.172.172,0,0,1,.056-.021Q757.519,176.008,757.609,176.113Zm-.375,1.23a.38.38,0,0,0,.3-.1.391.391,0,0,0,.142-.285.4.4,0,0,0-.1-.294l-.137-.157-.619.537.138.159A.406.406,0,0,0,757.234,177.343Z" transform="translate(-732.595 -171.495)" fill="#fdf193"/>
        <path id="Path_8037" data-name="Path 8037" d="M786.251,215.725l.38.549a.626.626,0,0,1,.04.063.173.173,0,0,1,.016.059c.005.044-.03.092-.106.144s-.147.069-.192.035a.362.362,0,0,1-.075-.085l-.488-.706q-.086-.125-.033-.193a.346.346,0,0,1,.084-.074l.992-.685a.21.21,0,0,1,.147-.052.226.226,0,0,1,.122.106l.486.7a.6.6,0,0,1,.04.063.171.171,0,0,1,.016.059q.008.065-.106.144t-.192.035a.361.361,0,0,1-.075-.085l-.378-.548-.18.125.244.353a.616.616,0,0,1,.04.063.175.175,0,0,1,.016.059c.006.044-.03.092-.106.144s-.147.069-.193.033a.366.366,0,0,1-.075-.085l-.242-.35Z" transform="translate(-761.063 -208.979)" fill="#fdf193"/>
        <path id="Path_8038" data-name="Path 8038" d="M810.552,268.714l-.793,1.085a.283.283,0,0,1-.08.084q-.069.037-.183-.045a.283.283,0,0,1-.087-.085.116.116,0,0,1-.016-.07.13.13,0,0,1,.018-.054l.042-.06.154-.21-.282-.53-.26.011h-.071a.156.156,0,0,1-.054-.016.112.112,0,0,1-.051-.052.284.284,0,0,1-.022-.12q-.006-.14.063-.176a.281.281,0,0,1,.115-.019l1.345-.053a.2.2,0,0,1,.18.1A.184.184,0,0,1,810.552,268.714Zm-.542.09-.33.013.136.255Z" transform="translate(-783.399 -260.843)" fill="#fdf193"/>
        <path id="Path_8039" data-name="Path 8039" d="M831.863,302.378l.217.548a.251.251,0,0,1,.023.1.082.082,0,0,1-.031.059.393.393,0,0,1-.171.068.075.075,0,0,1-.058-.017.246.246,0,0,1-.062-.1l-.288-.726q-.056-.141.011-.2a.345.345,0,0,1,.1-.053l1.121-.444a.613.613,0,0,1,.071-.025.171.171,0,0,1,.061,0q.066.007.117.136c.037.094.034.16-.008.2a.432.432,0,0,1-.1.052Z" transform="translate(-805.258 -292.944)" fill="#fdf193"/>
        <path id="Path_8040" data-name="Path 8040" d="M855.463,346.51a.285.285,0,1,1-.357-.187A.252.252,0,0,1,855.463,346.51Z" transform="translate(-827.919 -336.182)" fill="#fdf193"/>
        <path id="Path_8041" data-name="Path 8041" d="M865.078,455.4l0,.4a.778.778,0,0,1-.218.556.739.739,0,0,1-.553.248.779.779,0,0,1-.571-.224.764.764,0,0,1-.245-.561l-.006-.4c0-.088.016-.143.051-.166a.287.287,0,0,1,.138-.028l1.205-.02a.684.684,0,0,1,.076,0,.181.181,0,0,1,.057.02C865.056,455.249,865.076,455.305,865.078,455.4Zm-1.078.7a.38.38,0,0,0,.294.121.392.392,0,0,0,.292-.127.4.4,0,0,0,.113-.289l0-.208-.819.013,0,.21A.408.408,0,0,0,864,456.1Z" transform="translate(-836.227 -441.51)" fill="#fdf193"/>
        <path id="Path_8042" data-name="Path 8042" d="M860.349,502.3l-.071.664a.572.572,0,0,1-.011.074.179.179,0,0,1-.026.055q-.037.055-.175.04t-.168-.1a.355.355,0,0,1,0-.114l.091-.854c.011-.1.044-.157.1-.168a.336.336,0,0,1,.111,0l1.2.128a.211.211,0,0,1,.146.057.228.228,0,0,1,.023.16l-.091.849a.665.665,0,0,1-.011.074.182.182,0,0,1-.027.055q-.036.055-.174.04t-.168-.1a.366.366,0,0,1,0-.114l.071-.662-.218-.023-.046.427a.616.616,0,0,1-.011.074.168.168,0,0,1-.026.055q-.036.055-.174.04c-.1-.011-.157-.044-.168-.1a.366.366,0,0,1,0-.114l.045-.423Z" transform="translate(-832.749 -486.666)" fill="#fdf193"/>
        <path id="Path_8043" data-name="Path 8043" d="M851.181,542.729l-1.309.3a.281.281,0,0,1-.116.012q-.076-.017-.11-.154a.282.282,0,0,1-.01-.121.116.116,0,0,1,.034-.063.13.13,0,0,1,.049-.029l.071-.018.254-.058.132-.586-.2-.161c-.025-.021-.043-.036-.054-.047a.153.153,0,0,1-.03-.047.109.109,0,0,1,0-.072.281.281,0,0,1,.062-.1c.058-.073.112-.1.163-.092a.282.282,0,0,1,.1.06l1.053.838a.191.191,0,0,1,.062.089.193.193,0,0,1,.007.107A.184.184,0,0,1,851.181,542.729Zm-.469-.286-.258-.2-.064.281Z" transform="translate(-822.826 -524.956)" fill="#fdf193"/>
        <path id="Path_8044" data-name="Path 8044" d="M837.919,591.777l-.193.557a.248.248,0,0,1-.049.093.082.082,0,0,1-.062.024.4.4,0,0,1-.174-.06.074.074,0,0,1-.033-.051.245.245,0,0,1,.016-.114l.256-.737c.033-.1.079-.143.136-.141a.342.342,0,0,1,.109.024l1.139.4a.659.659,0,0,1,.07.028.175.175,0,0,1,.048.038c.03.032.03.092,0,.179s-.078.143-.135.144a.436.436,0,0,1-.11-.027Z" transform="translate(-811 -573.178)" fill="#fdf193"/>
        <path id="Path_8045" data-name="Path 8045" d="M796.359,708.848a.285.285,0,1,1-.064-.4A.252.252,0,0,1,796.359,708.848Z" transform="translate(-770.788 -686.365)" fill="#fdf193"/>
        <path id="Path_8046" data-name="Path 8046" d="M701.927,780.808l-.321.24a.778.778,0,0,1-.578.152.739.739,0,0,1-.526-.3.779.779,0,0,1-.155-.593.763.763,0,0,1,.309-.529l.317-.239q.106-.08.164-.056a.288.288,0,0,1,.1.1l.726.963a.63.63,0,0,1,.043.063.17.17,0,0,1,.018.057Q702.038,780.725,701.927,780.808Zm-1.2-.459a.38.38,0,0,0,.075.309.391.391,0,0,0,.275.161.4.4,0,0,0,.3-.079l.166-.125-.493-.655-.168.127A.405.405,0,0,0,700.726,780.349Z" transform="translate(-678.436 -755.126)" fill="#fdf193"/>
        <path id="Path_8047" data-name="Path 8047" d="M657.723,806.915l-.574.341a.572.572,0,0,1-.066.035.172.172,0,0,1-.06.012q-.066,0-.137-.115t-.022-.194a.377.377,0,0,1,.09-.069l.738-.438q.131-.077.2-.02a.345.345,0,0,1,.068.088l.615,1.037a.209.209,0,0,1,.041.151c-.01.037-.048.075-.113.114l-.735.436a.629.629,0,0,1-.066.035.177.177,0,0,1-.06.012q-.066,0-.137-.116t-.022-.194a.36.36,0,0,1,.09-.069l.572-.34-.112-.188-.369.219a.637.637,0,0,1-.066.036.17.17,0,0,1-.06.011c-.044,0-.089-.036-.137-.115s-.058-.152-.02-.2a.363.363,0,0,1,.09-.069l.365-.217Z" transform="translate(-636.368 -781.206)" fill="#fdf193"/>
        <path id="Path_8048" data-name="Path 8048" d="M612.566,828.766l-1.028-.866a.283.283,0,0,1-.079-.086q-.032-.072.057-.18a.284.284,0,0,1,.091-.081.117.117,0,0,1,.071-.01.129.129,0,0,1,.052.022l.057.046.2.168.548-.245.008-.26c0-.032,0-.056,0-.071a.154.154,0,0,1,.019-.052.114.114,0,0,1,.055-.047.287.287,0,0,1,.121-.013c.093,0,.15.028.171.075a.287.287,0,0,1,.011.116l-.04,1.345a.193.193,0,0,1-.034.1.2.2,0,0,1-.082.07A.184.184,0,0,1,612.566,828.766Zm-.052-.547.009-.33-.263.118Z" transform="translate(-592.469 -801.173)" fill="#fdf193"/>
        <path id="Path_8049" data-name="Path 8049" d="M576.146,846.943l-.562.179a.243.243,0,0,1-.1.016.082.082,0,0,1-.057-.035.323.323,0,0,1-.038-.085.316.316,0,0,1-.018-.091.075.075,0,0,1,.021-.057.244.244,0,0,1,.1-.055l.744-.237q.145-.046.194.025a.333.333,0,0,1,.046.1l.365,1.149a.615.615,0,0,1,.02.072.172.172,0,0,1,0,.061c-.008.043-.055.079-.143.107s-.162.023-.2-.022a.442.442,0,0,1-.045-.1Z" transform="translate(-557.57 -820.005)" fill="#fdf193"/>
        <path id="Path_8050" data-name="Path 8050" d="M471.3,879.357a.285.285,0,1,1,.28-.29A.252.252,0,0,1,471.3,879.357Z" transform="translate(-456.645 -851.173)" fill="#fdf193"/>
      </g>
    </g>
    <g id="Group_6185" data-name="Group 6185" transform="translate(16.206 13.685)">
      <g id="Group_6181" data-name="Group 6181" transform="translate(0.467 0)">
        <g id="Group_6180" data-name="Group 6180">
          <path id="Path_8051" data-name="Path 8051" d="M425.355,442.147h0a1.607,1.607,0,0,0,1.607-1.607v-1.729h-1.607a1.606,1.606,0,0,0-1.606,1.607v.123A1.607,1.607,0,0,0,425.355,442.147Z" transform="translate(-420.068 -431.649)" fill="#ebd673"/>
          <g id="Group_6179" data-name="Group 6179">
            <path id="Path_8052" data-name="Path 8052" d="M319.514,327.459a2.471,2.471,0,0,1-2.471,2.471h0a2.471,2.471,0,0,1-2.471-2.471v-.189a2.471,2.471,0,0,1,2.471-2.471h1.573l0-.195v-2.657h-1.448a5.459,5.459,0,0,0-5.459,5.46v.355a5.315,5.315,0,0,0,5.459,5.186,4.889,4.889,0,0,0,5.115-4.842V325.7l-2.767.012Z" transform="translate(-311.707 -318.625)" fill="#ebd673"/>
            <path id="Path_8053" data-name="Path 8053" d="M552.112,224.117v-3.3s-2.736-.408-2.736,2.05l-.018,3.933v.167h0l2.768-.006v-2.845Z" transform="translate(-541.55 -220.794)" fill="#ebd673"/>
          </g>
        </g>
      </g>
      <g id="Group_6184" data-name="Group 6184" transform="translate(0 0)">
        <g id="Group_6183" data-name="Group 6183">
          <path id="Path_8054" data-name="Path 8054" d="M411.154,442.147h0a1.607,1.607,0,0,0,1.607-1.607v-1.729h-1.607a1.606,1.606,0,0,0-1.607,1.607v.123A1.607,1.607,0,0,0,411.154,442.147Z" transform="translate(-405.866 -431.649)" fill="#ba8b1d"/>
          <g id="Group_6182" data-name="Group 6182">
            <path id="Path_8055" data-name="Path 8055" d="M305.311,327.459a2.471,2.471,0,0,1-2.471,2.471h0a2.471,2.471,0,0,1-2.471-2.471v-.189a2.471,2.471,0,0,1,2.471-2.471h1.573l0-.195v-2.657h-1.448a5.46,5.46,0,0,0-5.46,5.46v.355a5.316,5.316,0,0,0,5.46,5.186,4.889,4.889,0,0,0,5.115-4.842V325.7l-2.767.012Z" transform="translate(-297.504 -318.625)" fill="#ba8b1d"/>
            <path id="Path_8056" data-name="Path 8056" d="M537.909,224.117v-3.3s-2.736-.408-2.736,2.05l-.018,3.933v.167h0l2.768-.006v-2.845Z" transform="translate(-527.347 -220.794)" fill="#ba8b1d"/>
          </g>
        </g>
      </g>
      <path id="Path_8057" data-name="Path 8057" d="M410.014,440.54v-.123a1.606,1.606,0,0,1,1.606-1.607h-.466a1.606,1.606,0,0,0-1.607,1.607v.123a1.607,1.607,0,0,0,1.607,1.607h0a1.628,1.628,0,0,0,.233-.017A1.607,1.607,0,0,1,410.014,440.54Z" transform="translate(-405.866 -431.649)" fill="#8f5919" opacity="0.81"/>
      <path id="Path_8058" data-name="Path 8058" d="M297.971,327.763v-.355a5.459,5.459,0,0,1,5.459-5.46h-.467a5.46,5.46,0,0,0-5.46,5.46v.355a5.316,5.316,0,0,0,5.46,5.187c.078,0,.155,0,.232,0A5.3,5.3,0,0,1,297.971,327.763Z" transform="translate(-297.504 -318.625)" fill="#8f5919" opacity="0.81"/>
      <path id="Path_8059" data-name="Path 8059" d="M469.744,437.947V436.2l2.3-.01v0l-2.767.012v1.746a2.471,2.471,0,0,1-2.238,2.46c.077.007.155.011.233.011A2.471,2.471,0,0,0,469.744,437.947Z" transform="translate(-461.471 -429.113)" fill="#8f5919" opacity="0.81"/>
      <path id="Path_8060" data-name="Path 8060" d="M535.639,222.869a1.963,1.963,0,0,1,2.079-2.068,2.111,2.111,0,0,0-2.545,2.068l-.018,3.933v.167h.467V226.8Z" transform="translate(-527.347 -220.794)" fill="#8f5919" opacity="0.81"/>
    </g>
  </g>
</svg>
