<svg xmlns="http://www.w3.org/2000/svg" width="29.443" height="18.737" viewBox="0 0 29.443 18.737">
  <path id="ic_group_24px" d="M21.075,13.03A4.015,4.015,0,1,0,17.06,9.015,4,4,0,0,0,21.075,13.03Zm-10.707,0A4.015,4.015,0,1,0,6.353,9.015,4,4,0,0,0,10.368,13.03Zm0,2.677C7.25,15.707,1,17.273,1,20.391v3.346H19.737V20.391C19.737,17.273,13.487,15.707,10.368,15.707Zm10.707,0c-.388,0-.83.027-1.3.067a5.648,5.648,0,0,1,2.637,4.617v3.346h8.03V20.391C30.443,17.273,24.193,15.707,21.075,15.707Z" transform="translate(-1 -5)" fill="#d00038"/>
</svg>
